<svg id="Group_196" data-name="Group 196" xmlns="http://www.w3.org/2000/svg" xmlns:xlink="http://www.w3.org/1999/xlink" width="27.428" height="30.176" viewBox="0 0 27.428 30.176">
  <defs>
    <clipPath id="clip-path">
      <rect id="Rectangle_200" data-name="Rectangle 200" width="27.428" height="30.176" fill="#fff"/>
    </clipPath>
  </defs>
  <g id="Group_195" data-name="Group 195" transform="translate(0 0)" clip-path="url(#clip-path)">
    <path id="Path_412" data-name="Path 412" d="M20.558,0h.03c.024,0,.048.008.071.013a2.425,2.425,0,0,1,.469.115A1.334,1.334,0,0,1,21.941,1.4c.007.417,0,.835,0,1.252V2.75h.1c.408,0,.816,0,1.223,0a5.045,5.045,0,0,1,.631.04A3.956,3.956,0,0,1,26.069,3.81,4.05,4.05,0,0,1,27.427,6.9q0,9.559,0,19.119a4.184,4.184,0,0,1-.047.653,4.122,4.122,0,0,1-4.129,3.5H4.632c-.226,0-.452,0-.677-.009a3.973,3.973,0,0,1-2.549-1.013A4,4,0,0,1,0,26.038Q0,16.456,0,6.874A4.016,4.016,0,0,1,.263,5.411,4.059,4.059,0,0,1,2.241,3.2a3.913,3.913,0,0,1,1.747-.447c.466-.009.933,0,1.4,0h.1V2.672c0-.43,0-.86,0-1.289A1.6,1.6,0,0,1,5.5,1.177a1.371,1.371,0,0,1,2.727.235q0,.623,0,1.245v.087H19.2v-.07c0-.432,0-.865,0-1.3A1.361,1.361,0,0,1,20.355.027c.068-.01.136-.018.2-.027m4.129,13.725H2.741v.115q0,6.067,0,12.135c0,.051,0,.1,0,.154a1.269,1.269,0,0,0,.16.577,1.357,1.357,0,0,0,1.265.728q9.552,0,19.1,0a1.467,1.467,0,0,0,.343-.038,1.362,1.362,0,0,0,1.073-1.384q0-6.1,0-12.193ZM21.943,5.493v.1c0,.437.009.875,0,1.311A1.369,1.369,0,0,1,19.2,6.88c0-.432,0-.865,0-1.3V5.5H8.226v.084c0,.413,0,.826,0,1.238a1.97,1.97,0,0,1-.014.235,1.371,1.371,0,0,1-1.886,1.07A1.331,1.331,0,0,1,5.487,6.85c-.008-.422,0-.845,0-1.267V5.5c-.029,0-.046,0-.063,0-.444,0-.889,0-1.334,0a1.3,1.3,0,0,0-.19.016A1.368,1.368,0,0,0,2.741,6.822q0,2.029,0,4.059c0,.1,0,.1.1.1H24.589c.1,0,.1,0,.1-.094q0-1.989,0-3.978a1.611,1.611,0,0,0-.01-.206,1.366,1.366,0,0,0-1.352-1.206c-.378,0-.756,0-1.134,0h-.247" transform="translate(0 0)" fill="#fff"/>
    <path id="Path_413" data-name="Path 413" d="M25.213,31.315a1.37,1.37,0,1,1-1.408-1.344,1.374,1.374,0,0,1,1.408,1.344" transform="translate(-10.128 -13.507)" fill="#fff"/>
    <path id="Path_414" data-name="Path 414" d="M32.459,31.333a1.37,1.37,0,1,1,1.368,1.377,1.371,1.371,0,0,1-1.368-1.377" transform="translate(-14.628 -13.506)" fill="#fff"/>
    <path id="Path_415" data-name="Path 415" d="M15.224,31.339a1.37,1.37,0,1,1-1.376-1.371,1.371,1.371,0,0,1,1.376,1.371" transform="translate(-5.626 -13.506)" fill="#fff"/>
    <path id="Path_416" data-name="Path 416" d="M22.468,41.334a1.372,1.372,0,1,1,1.372,1.361,1.373,1.373,0,0,1-1.372-1.361" transform="translate(-10.126 -18.007)" fill="#fff"/>
    <path id="Path_417" data-name="Path 417" d="M33.829,39.956a1.369,1.369,0,1,1-1.37,1.374,1.369,1.369,0,0,1,1.37-1.374" transform="translate(-14.628 -18.007)" fill="#fff"/>
    <path id="Path_418" data-name="Path 418" d="M13.861,39.956A1.369,1.369,0,1,1,12.484,41.3a1.365,1.365,0,0,1,1.378-1.345" transform="translate(-5.626 -18.007)" fill="#fff"/>
  </g>
</svg>
