<svg id="Group_203" data-name="Group 203" xmlns="http://www.w3.org/2000/svg" xmlns:xlink="http://www.w3.org/1999/xlink" width="30" height="30" viewBox="0 0 30 30">
  <defs>
    <clipPath id="clip-path">
      <rect id="Rectangle_201" data-name="Rectangle 201" width="30" height="30" fill="#fff"/>
    </clipPath>
  </defs>
  <g id="Group_202" data-name="Group 202" clip-path="url(#clip-path)">
    <path id="Path_420" data-name="Path 420" d="M15.939,0H14.453c-.2.021-.4.044-.6.061A14.743,14.743,0,0,0,8.809,1.409,15.1,15.1,0,0,0,2.674,6.6,14.891,14.891,0,0,0,.093,13.549c-.032.3-.062.6-.093.9v1.486a1.678,1.678,0,0,1,.03.181,14.378,14.378,0,0,0,.662,3.608,15.111,15.111,0,0,0,6.864,8.6A14.626,14.626,0,0,0,13.549,30.3l.9.093h1.452c.319-.032.637-.06.955-.095a14.88,14.88,0,0,0,6.281-2.155,15.121,15.121,0,0,0,5.2-5.334A14.867,14.867,0,0,0,30.3,16.859c.033-.307.063-.613.094-.92V14.453c-.01-.06-.026-.12-.029-.181A14.778,14.778,0,0,0,29.323,9.6a15.1,15.1,0,0,0-5.63-6.993A14.841,14.841,0,0,0,16.843.092c-.3-.032-.6-.062-.9-.092M2.6,15.372A12.6,12.6,0,1,1,15.326,27.792,12.608,12.608,0,0,1,2.6,15.372" transform="translate(-0.392 -0.392)" fill="#fff"/>
    <path id="Path_421" data-name="Path 421" d="M16.467,19.4V18.248q0-3.182,0-6.363a1.091,1.091,0,0,0-.889-1.149,1.066,1.066,0,0,0-1.27.951c-.025.387-.013.776-.013,1.164,0,2.51,0,5.019.006,7.529a1.445,1.445,0,0,0,.139.631,1.025,1.025,0,0,0,.987.558q2.971,0,5.942,0c.168,0,.337,0,.506,0a1.084,1.084,0,1,0,0-2.168q-2.533,0-5.065,0h-.346" transform="translate(-1.67 -4.594)" fill="#fff"/>
  </g>
</svg>
