<svg xmlns="http://www.w3.org/2000/svg" width="25.911" height="25.919" viewBox="0 0 25.911 25.919">
  <g id="Group_204" data-name="Group 204" transform="translate(-201 -1414.737)">
    <path id="Path_412" data-name="Path 412" d="M12.17,0h1.585c.075.014.149.031.224.043.713.115,1.439.179,2.138.353A12.958,12.958,0,0,1,13.28,25.917,12.585,12.585,0,0,1,6.338,24.09,12.769,12.769,0,0,1,.2,15.215c-.091-.482-.136-.973-.2-1.46V12.17a2.022,2.022,0,0,0,.042-.221A12.613,12.613,0,0,1,2.814,4.907,12.7,12.7,0,0,1,10.455.251C11.021.139,11.6.082,12.17,0m.8,1.992A10.968,10.968,0,1,0,23.928,12.977,10.965,10.965,0,0,0,12.971,1.992" transform="translate(201 1414.737)" fill="#eb2c60"/>
    <path id="Path_413" data-name="Path 413" d="M235.476,104.366h.345q2.773,0,5.546,0a1,1,0,1,1,.009,1.989q-3.4,0-6.8,0a1,1,0,0,1-1.1-1.094q0-3.4,0-6.8a1,1,0,1,1,1.993,0q0,2.786,0,5.572v.331" transform="translate(-20.52 1322.341)" fill="#eb2c60"/>
  </g>
</svg>
