<svg xmlns="http://www.w3.org/2000/svg" width="26.815" height="26.815" viewBox="0 0 26.815 26.815">
  <path id="Icon_awesome-facebook-square" data-name="Icon awesome-facebook-square" d="M23.942,2.25H2.873A2.873,2.873,0,0,0,0,5.123V26.192a2.873,2.873,0,0,0,2.873,2.873h8.215V19.948H7.317V15.657h3.771v-3.27c0-3.72,2.215-5.775,5.607-5.775a22.845,22.845,0,0,1,3.323.29v3.651H18.146a2.146,2.146,0,0,0-2.419,2.318v2.786h4.117l-.658,4.291H15.727v9.116h8.215a2.873,2.873,0,0,0,2.873-2.873V5.123A2.873,2.873,0,0,0,23.942,2.25Z" transform="translate(0 -2.25)" fill="#5f19e1"/>
</svg>
