<svg xmlns="http://www.w3.org/2000/svg" width="26.26" height="26.26" viewBox="0 0 26.26 26.26">
  <path id="Icon_metro-instagram" data-name="Icon metro-instagram" d="M24.471,1.928H6.93a4.372,4.372,0,0,0-4.36,4.36V23.829a4.372,4.372,0,0,0,4.36,4.36H24.471a4.372,4.372,0,0,0,4.36-4.36V6.288a4.372,4.372,0,0,0-4.36-4.36ZM10.977,13.417h9.448a5,5,0,1,1-9.448,0Zm14.571,0v9.846a1.646,1.646,0,0,1-1.641,1.641H7.495a1.646,1.646,0,0,1-1.641-1.641V13.417H8.421a7.463,7.463,0,1,0,14.561,0Zm0-5.746a.823.823,0,0,1-.821.821H23.087a.823.823,0,0,1-.821-.821V6.031a.823.823,0,0,1,.821-.821h1.641a.823.823,0,0,1,.821.821Z" transform="translate(-2.571 -1.928)" fill="#eb2c60"/>
</svg>
