<svg xmlns="http://www.w3.org/2000/svg" width="26.815" height="26.815" viewBox="0 0 26.815 26.815">
  <path id="Icon_awesome-linkedin" data-name="Icon awesome-linkedin" d="M24.9,2.25H1.909A1.924,1.924,0,0,0,0,4.183V27.132a1.924,1.924,0,0,0,1.909,1.933H24.9a1.929,1.929,0,0,0,1.915-1.933V4.183A1.929,1.929,0,0,0,24.9,2.25ZM8.1,25.234H4.13v-12.8H8.11v12.8ZM6.117,10.689a2.3,2.3,0,1,1,2.3-2.3,2.305,2.305,0,0,1-2.3,2.3ZM23,25.234H19.028V19.009c0-1.484-.03-3.394-2.065-3.394-2.071,0-2.388,1.616-2.388,3.286v6.333H10.6v-12.8h3.813v1.748h.054a4.186,4.186,0,0,1,3.765-2.065c4.022,0,4.77,2.652,4.77,6.1Z" transform="translate(0 -2.25)" fill="#eb2c60"/>
</svg>
