<svg id="Group_4" data-name="Group 4" xmlns="http://www.w3.org/2000/svg" xmlns:xlink="http://www.w3.org/1999/xlink" width="349" height="71.371" viewBox="0 0 349 71.371">
  <defs>
    <clipPath id="clip-path">
      <rect id="Rectangle_5" data-name="Rectangle 5" width="349" height="71.371" fill="none"/>
    </clipPath>
  </defs>
  <g id="Group_1" data-name="Group 1" clip-path="url(#clip-path)">
    <path id="Path_1" data-name="Path 1" d="M16.665,11.514A6.832,6.832,0,0,1,19.543,13.8a6.08,6.08,0,0,1,1.167,2.679,33.251,33.251,0,0,1,.213,4.493V34.633H14.715V20.476a6.268,6.268,0,0,0-.635-3.032,3.178,3.178,0,0,0-3.13-1.623,4.3,4.3,0,0,0-3.631,1.614,7.411,7.411,0,0,0-1.239,4.6v12.6H0V0H6.079V14.392a7.424,7.424,0,0,1,3.048-2.825,8.57,8.57,0,0,1,3.641-.8,9.838,9.838,0,0,1,3.9.747" transform="translate(0 0)" fill="#5f19e1"/>
    <path id="Path_2" data-name="Path 2" d="M36.408,27.73q-2.944,3.633-8.936,3.633T18.534,27.73a13.463,13.463,0,0,1-2.943-8.747,13.552,13.552,0,0,1,2.943-8.716Q21.478,6.58,27.472,6.58t8.936,3.686a13.552,13.552,0,0,1,2.943,8.716,13.463,13.463,0,0,1-2.943,8.747m-4.864-3.36a8.81,8.81,0,0,0,1.429-5.387,8.762,8.762,0,0,0-1.429-5.378,4.835,4.835,0,0,0-4.1-1.885,4.859,4.859,0,0,0-4.105,1.885A8.718,8.718,0,0,0,21.9,18.983a8.766,8.766,0,0,0,1.441,5.387,4.845,4.845,0,0,0,4.105,1.895,4.821,4.821,0,0,0,4.1-1.895" transform="translate(9.617 4.059)" fill="#5f19e1"/>
    <path id="Path_3" data-name="Path 3" d="M39.1,7.042V21.054a7.381,7.381,0,0,0,.467,2.986,3.228,3.228,0,0,0,3.247,1.77,4.24,4.24,0,0,0,4.244-2.517,9.145,9.145,0,0,0,.6-3.6V7.042h6.163V30.289H47.909V27c-.057.073-.2.285-.425.64a4.339,4.339,0,0,1-.807.939,8.449,8.449,0,0,1-2.755,1.748,9.344,9.344,0,0,1-3.116.469q-5.149,0-6.935-3.711a14.236,14.236,0,0,1-1-6.036V7.042Z" transform="translate(20.277 4.344)" fill="#5f19e1"/>
    <path id="Path_4" data-name="Path 4" d="M54.745,23.118a4.051,4.051,0,0,0,.836,2.3q1.135,1.215,4.2,1.216a6.433,6.433,0,0,0,2.862-.534,1.707,1.707,0,0,0,1.061-1.6,1.726,1.726,0,0,0-.855-1.557,34.858,34.858,0,0,0-6.359-1.835,13.211,13.211,0,0,1-5.583-2.451,5.321,5.321,0,0,1-1.622-4.181,7.249,7.249,0,0,1,2.532-5.534q2.534-2.314,7.13-2.314a13.088,13.088,0,0,1,7.1,1.738q2.748,1.739,3.155,6H63.127a3.587,3.587,0,0,0-.663-1.856,4.179,4.179,0,0,0-3.421-1.237,4.932,4.932,0,0,0-2.834.619,1.779,1.779,0,0,0-.844,1.45,1.583,1.583,0,0,0,.9,1.513,38.786,38.786,0,0,0,6.345,1.686,11.628,11.628,0,0,1,5.446,2.581A5.856,5.856,0,0,1,69.845,23.5a7.06,7.06,0,0,1-2.574,5.641Q64.7,31.33,59.31,31.33q-5.491,0-8.11-2.314a7.524,7.524,0,0,1-2.618-5.9Z" transform="translate(29.968 4.092)" fill="#5f19e1"/>
    <path id="Path_5" data-name="Path 5" d="M80.353,7.75a9.446,9.446,0,0,1,4.018,3.439,11.425,11.425,0,0,1,1.851,4.805,29.45,29.45,0,0,1,.2,4.613H69.491q.141,3.5,2.43,4.907a6.191,6.191,0,0,0,3.353.873A4.713,4.713,0,0,0,79.9,23.721h6.207a7.6,7.6,0,0,1-2.254,4.2q-3.124,3.391-8.746,3.391a12.668,12.668,0,0,1-8.189-2.86q-3.548-2.859-3.547-9.307,0-6.041,3.2-9.265A11.211,11.211,0,0,1,74.885,6.66a13.246,13.246,0,0,1,5.468,1.09M71.26,13a6.315,6.315,0,0,0-1.62,3.6H80.113a5.071,5.071,0,0,0-1.618-3.672,5.329,5.329,0,0,0-3.606-1.255A4.818,4.818,0,0,0,71.26,13" transform="translate(39.09 4.108)" fill="#5f19e1"/>
    <path id="Path_6" data-name="Path 6" d="M81.7,9.673,94.825,22.8,81.7,35.936v9.672l22.8-22.8L81.7,0Z" transform="translate(50.395 0)" fill="#5f19e1"/>
    <rect id="Rectangle_1" data-name="Rectangle 1" width="6.904" height="7.41" transform="translate(132.091 19.1)" fill="#5f19e1"/>
    <path id="Path_7" data-name="Path 7" d="M37.322,35.927h1.536l-5.4,13.184H31.924l1.767-4.319-3.615-8.865h1.652l2.813,7.263Z" transform="translate(18.552 22.162)" fill="#a6a8ab"/>
    <path id="Path_8" data-name="Path 8" d="M40.544,45.094a4.351,4.351,0,0,1-4.464-4.645,4.531,4.531,0,1,1,9.061,0,4.443,4.443,0,0,1-4.6,4.645m0-1.308a3.043,3.043,0,0,0,3.077-3.337,3.011,3.011,0,0,0-3.028-3.319c-1.57,0-2.993,1.062-2.993,3.319,0,2.275,1.391,3.337,2.944,3.337" transform="translate(22.256 22.106)" fill="#a6a8ab"/>
    <path id="Path_9" data-name="Path 9" d="M50.873,44.891H49.384V43.567a3.3,3.3,0,0,1-2.862,1.455,3.5,3.5,0,0,1-3.68-3.843V35.927h1.471v5.054c0,1.816,1,2.747,2.5,2.747,1.536,0,2.566-.947,2.566-2.878V35.927h1.489Z" transform="translate(26.427 22.162)" fill="#a6a8ab"/>
    <path id="Path_10" data-name="Path 10" d="M50.848,44.953H49.36V35.989h1.488v1.455a3.022,3.022,0,0,1,2.9-1.618v1.538h-.391c-1.423,0-2.5.639-2.5,2.715Z" transform="translate(30.448 22.1)" fill="#a6a8ab"/>
    <path id="Path_11" data-name="Path 11" d="M68.425,39.973a2.027,2.027,0,1,0-4.041,0v5.006H62.095V39.973a2.034,2.034,0,1,0-4.055,0v5.006H55.747V35.916H58.04v1.1a3.3,3.3,0,0,1,2.666-1.227,3.468,3.468,0,0,1,3.188,1.735A3.589,3.589,0,0,1,67,35.785a3.524,3.524,0,0,1,3.712,3.877v5.316H68.425Z" transform="translate(34.388 22.074)" fill="#58595b"/>
    <path id="Path_12" data-name="Path 12" d="M70.583,45.132a4.437,4.437,0,0,1-4.6-4.678,4.662,4.662,0,1,1,9.324,0,4.53,4.53,0,0,1-4.726,4.678m0-2a2.413,2.413,0,0,0,2.37-2.682,2.379,2.379,0,0,0-2.338-2.682c-1.211,0-2.307.867-2.307,2.682,0,1.8,1.048,2.682,2.275,2.682" transform="translate(40.703 22.068)" fill="#58595b"/>
    <path id="Path_13" data-name="Path 13" d="M74.643,35.866l2.289,6.952,2.289-6.952h2.438l-3.353,9.062H75.526l-3.336-9.062Z" transform="translate(44.531 22.124)" fill="#58595b"/>
    <path id="Path_14" data-name="Path 14" d="M83.025,45.132a4.388,4.388,0,0,1-4.547-4.678,4.355,4.355,0,0,1,4.547-4.679,4.254,4.254,0,0,1,4.464,4.484,5.418,5.418,0,0,1-.063.883H80.8a2.123,2.123,0,0,0,2.178,2.094,1.866,1.866,0,0,0,1.814-1.1h2.471a4.211,4.211,0,0,1-4.236,2.993M80.816,39.6h4.3a2.014,2.014,0,0,0-2.16-1.947A2.1,2.1,0,0,0,80.816,39.6" transform="translate(48.41 22.068)" fill="#58595b"/>
    <path id="Path_15" data-name="Path 15" d="M85.553,40.2h1.636l-1.832,4.4h-1Z" transform="translate(52.038 24.796)" fill="#58595b"/>
    <path id="Path_16" data-name="Path 16" d="M93.978,45.094a4.351,4.351,0,0,1-4.464-4.645,4.531,4.531,0,1,1,9.061,0,4.444,4.444,0,0,1-4.6,4.645m0-1.308a3.042,3.042,0,0,0,3.075-3.337,3.01,3.01,0,0,0-3.027-3.319c-1.57,0-2.991,1.062-2.991,3.319,0,2.275,1.389,3.337,2.943,3.337" transform="translate(55.217 22.106)" fill="#a6a8ab"/>
    <path id="Path_17" data-name="Path 17" d="M104.308,44.891h-1.489V43.567a3.3,3.3,0,0,1-2.862,1.455,3.5,3.5,0,0,1-3.68-3.843V35.927h1.471v5.054c0,1.816,1,2.747,2.5,2.747,1.536,0,2.566-.947,2.566-2.878V35.927h1.489Z" transform="translate(59.389 22.162)" fill="#a6a8ab"/>
    <path id="Path_18" data-name="Path 18" d="M104.283,44.953h-1.488V35.989h1.488v1.455a3.022,3.022,0,0,1,2.9-1.618v1.538h-.391c-1.423,0-2.5.639-2.5,2.715Z" transform="translate(63.41 22.1)" fill="#a6a8ab"/>
    <path id="Path_19" data-name="Path 19" d="M113.366,45.132a4.388,4.388,0,0,1-4.547-4.678,4.355,4.355,0,0,1,4.547-4.679,4.255,4.255,0,0,1,4.466,4.484,5.418,5.418,0,0,1-.065.883h-6.627a2.123,2.123,0,0,0,2.178,2.094,1.866,1.866,0,0,0,1.814-1.1H117.6a4.211,4.211,0,0,1-4.236,2.993M111.157,39.6h4.3a2.014,2.014,0,0,0-2.16-1.947,2.1,2.1,0,0,0-2.142,1.947" transform="translate(67.126 22.068)" fill="#6d6e70"/>
    <path id="Path_20" data-name="Path 20" d="M118.938,42.114l-1.651,2.813h-2.454l2.96-4.547L114.8,35.867h2.582l1.85,2.8,1.669-2.8h2.453l-2.977,4.514,3.009,4.547H120.8Z" transform="translate(70.816 22.125)" fill="#6d6e70"/>
    <path id="Path_21" data-name="Path 21" d="M126.159,35.776c2.323,0,4.138,1.816,4.138,4.645s-1.814,4.71-4.138,4.71a3.7,3.7,0,0,1-2.993-1.439V49.3h-2.291V35.923h2.291v1.308a3.619,3.619,0,0,1,2.993-1.455m-.6,2.011a2.447,2.447,0,0,0-2.388,2.666,2.447,2.447,0,0,0,2.388,2.666,2.478,2.478,0,0,0,2.4-2.7,2.42,2.42,0,0,0-2.4-2.634" transform="translate(74.562 22.069)" fill="#6d6e70"/>
    <path id="Path_22" data-name="Path 22" d="M131.911,45.132a4.388,4.388,0,0,1-4.547-4.678,4.355,4.355,0,0,1,4.547-4.679,4.255,4.255,0,0,1,4.466,4.484,5.421,5.421,0,0,1-.065.883h-6.628a2.123,2.123,0,0,0,2.178,2.094,1.866,1.866,0,0,0,1.814-1.1h2.471a4.211,4.211,0,0,1-4.236,2.993M129.7,39.6H134a2.014,2.014,0,0,0-2.16-1.947A2.1,2.1,0,0,0,129.7,39.6" transform="translate(78.565 22.068)" fill="#6d6e70"/>
    <path id="Path_23" data-name="Path 23" d="M136.255,44.978h-2.291V35.916h2.291v1.408a3.143,3.143,0,0,1,2.781-1.539v2.4h-.606c-1.358,0-2.175.524-2.175,2.275Z" transform="translate(82.636 22.074)" fill="#6d6e70"/>
    <path id="Path_24" data-name="Path 24" d="M138.684,38.6H137.6v-1.88h1.082V34.481h2.307v2.241h2.028V38.6h-2.028v4.385c0,.6.244.867.964.867h1.064v1.931h-1.441c-1.735,0-2.894-.737-2.894-2.815Z" transform="translate(84.881 21.27)" fill="#6d6e70"/>
    <path id="Path_25" data-name="Path 25" d="M141.816,34.88a1.408,1.408,0,1,1,1.407,1.34,1.342,1.342,0,0,1-1.407-1.34m.246,2.42h2.291v9.062h-2.291Z" transform="translate(87.48 20.69)" fill="#6d6e70"/>
    <path id="Path_26" data-name="Path 26" d="M148.434,45.131c-2.275,0-3.861-1.324-3.96-3.009h2.307a1.5,1.5,0,0,0,1.633,1.209c.9,0,1.392-.407,1.392-.931,0-1.62-5.119-.59-5.119-3.91,0-1.505,1.34-2.715,3.581-2.715,2.191,0,3.517,1.193,3.649,2.991h-2.192a1.351,1.351,0,0,0-1.521-1.175c-.85,0-1.293.343-1.293.865,0,1.652,5.022.622,5.088,3.944,0,1.554-1.358,2.731-3.565,2.731" transform="translate(89.12 22.069)" fill="#6d6e70"/>
    <path id="Path_27" data-name="Path 27" d="M154.47,45.132a4.388,4.388,0,0,1-4.547-4.678,4.355,4.355,0,0,1,4.547-4.679,4.255,4.255,0,0,1,4.466,4.484,5.423,5.423,0,0,1-.065.883h-6.628a2.123,2.123,0,0,0,2.178,2.094,1.866,1.866,0,0,0,1.814-1.1h2.471a4.211,4.211,0,0,1-4.236,2.993M152.261,39.6h4.3a2.014,2.014,0,0,0-2.16-1.947,2.1,2.1,0,0,0-2.142,1.947" transform="translate(92.481 22.068)" fill="#6d6e70"/>
    <path id="Path_28" data-name="Path 28" d="M130.935,7.669a9.446,9.446,0,0,1,4.018,3.439,11.425,11.425,0,0,1,1.851,4.805,29.448,29.448,0,0,1,.2,4.613H120.073q.141,3.5,2.43,4.907a6.191,6.191,0,0,0,3.353.873,4.713,4.713,0,0,0,4.624-2.666h6.207a7.6,7.6,0,0,1-2.254,4.2q-3.124,3.391-8.746,3.391a12.668,12.668,0,0,1-8.189-2.86q-3.548-2.859-3.547-9.307,0-6.041,3.2-9.265a11.211,11.211,0,0,1,8.312-3.222,13.246,13.246,0,0,1,5.468,1.09m-9.093,5.25a6.315,6.315,0,0,0-1.62,3.6h10.472a5.071,5.071,0,0,0-1.618-3.672,5.329,5.329,0,0,0-3.606-1.255,4.818,4.818,0,0,0-3.628,1.329" transform="translate(70.292 4.058)" fill="#ed1651"/>
    <path id="Path_29" data-name="Path 29" d="M128.68,30.193l7.932-11.772L129.021,6.988h7.442l3.884,6.734,3.795-6.734h7.231l-7.636,11.326,7.934,11.879H144.1l-4-6.99-4.039,6.99Z" transform="translate(79.377 4.31)" fill="#ed1651"/>
    <path id="Path_30" data-name="Path 30" d="M164.3,9.652q2.845,3,2.844,8.83,0,6.141-2.779,9.363a9.028,9.028,0,0,1-7.159,3.221,7.5,7.5,0,0,1-4.636-1.387,8.924,8.924,0,0,1-1.976-2.239V41.718h-6.015V7.158H150.4V10.59A9.837,9.837,0,0,1,152.5,8.2a7.764,7.764,0,0,1,4.852-1.557A9.19,9.19,0,0,1,164.3,9.652m-4.665,4.372a4.326,4.326,0,0,0-4.018-2.07,4.571,4.571,0,0,0-4.59,3.137,11.755,11.755,0,0,0-.645,4.222q0,4.053,2.173,5.695a4.989,4.989,0,0,0,3.061.96,4.447,4.447,0,0,0,3.911-1.963,9.079,9.079,0,0,0,1.347-5.226,9.075,9.075,0,0,0-1.239-4.755" transform="translate(89.184 4.099)" fill="#ed1651"/>
    <path id="Path_31" data-name="Path 31" d="M177.111,7.669a9.446,9.446,0,0,1,4.018,3.439,11.424,11.424,0,0,1,1.851,4.805,29.449,29.449,0,0,1,.2,4.613H166.249q.141,3.5,2.43,4.907a6.191,6.191,0,0,0,3.353.873,4.713,4.713,0,0,0,4.624-2.666h6.207a7.6,7.6,0,0,1-2.254,4.2q-3.124,3.391-8.746,3.391a12.668,12.668,0,0,1-8.189-2.86q-3.548-2.859-3.547-9.307,0-6.041,3.2-9.265a11.211,11.211,0,0,1,8.312-3.222,13.24,13.24,0,0,1,5.468,1.09m-9.093,5.25a6.315,6.315,0,0,0-1.62,3.6h10.472a5.071,5.071,0,0,0-1.618-3.672,5.329,5.329,0,0,0-3.606-1.255,4.818,4.818,0,0,0-3.628,1.329" transform="translate(98.776 4.058)" fill="#ed1651"/>
    <path id="Path_32" data-name="Path 32" d="M188.818,6.629c.078.008.252.018.522.031v6.228c-.385-.042-.724-.071-1.025-.086s-.538-.021-.724-.021q-3.669,0-4.925,2.39a9.271,9.271,0,0,0-.7,4.138V30.42h-6.121V6.655h5.8v4.569a12.932,12.932,0,0,1,2.451-3.177,6.685,6.685,0,0,1,4.438-1.429c.113,0,.209,0,.288.011" transform="translate(108.467 4.083)" fill="#ed1651"/>
    <path id="Path_33" data-name="Path 33" d="M186.047,13.9V8.837h3.242V3.084H195.3V8.837h3.775V13.9H195.3V26.181a2.776,2.776,0,0,0,.362,1.782,4,4,0,0,0,2.22.351c.184,0,.378,0,.585-.01s.411-.018.608-.032v4.543l-2.88.107q-4.3.148-5.885-1.494a4.435,4.435,0,0,1-1.023-3.219V13.9Z" transform="translate(114.764 1.903)" fill="#ed1651"/>
    <path id="Path_34" data-name="Path 34" d="M118.6,35.935,105.474,22.8,118.6,9.672V0L95.8,22.8l22.8,22.8Z" transform="translate(59.095 0)" fill="#ed1651"/>
    <rect id="Rectangle_2" data-name="Rectangle 2" width="6.904" height="7.41" transform="translate(170.793 19.1)" fill="#ed1651"/>
    <rect id="Rectangle_3" data-name="Rectangle 3" width="6.904" height="7.41" transform="translate(318.488 27.425)" fill="#ed1651"/>
    <rect id="Rectangle_4" data-name="Rectangle 4" width="4.092" height="13.119" transform="translate(329.363 22.117)" fill="#ed1651"/>
    <path id="Path_35" data-name="Path 35" d="M219.649,14.55a4.013,4.013,0,0,1,1.517,3.533v8.833h-4.134V18.936a3.173,3.173,0,0,0-.323-1.588,2.379,2.379,0,0,0-2.247-1.012,2.858,2.858,0,0,0-2.8,1.481,4.471,4.471,0,0,0-.393,2v7.1h-4.034V13.822h3.908v1.913a6.2,6.2,0,0,1,1.467-1.457,5.725,5.725,0,0,1,3.142-.792,6.624,6.624,0,0,1,3.9,1.064" transform="translate(127.835 8.319)" fill="#ed1651"/>
    <path id="Path_36" data-name="Path 36" d="M207.8,12.467a2.046,2.046,0,1,1-2.045-2.045,2.046,2.046,0,0,1,2.045,2.045" transform="translate(125.657 6.429)" fill="#ed1651"/>
  </g>
</svg>
