<svg version="1.2" xmlns="http://www.w3.org/2000/svg" viewBox="0 0 46 46" width="46" height="46">
	<title>logo-svg</title>
	<defs>
		<clipPath clipPathUnits="userSpaceOnUse" id="cp1">
			<path d="m-132 0h349v71.37h-349z"/>
		</clipPath>
	</defs>
	<style>
		.s0 { fill: #5f19e1 } 
		.s1 { fill: #a6a8ab } 
		.s2 { fill: #58595b } 
		.s3 { fill: #6d6e70 } 
		.s4 { fill: #ed1651 } 
	</style>
	<g id="Clip-Path: Group_1" clip-path="url(#cp1)">
		<g id="Group_1">
			<path id="Path_1" class="s0" d="m-115.3 11.5q0.4 0.2 0.8 0.4 0.4 0.3 0.8 0.6 0.3 0.2 0.6 0.6 0.4 0.3 0.6 0.7 0.3 0.3 0.5 0.6 0.1 0.3 0.3 0.7 0.1 0.3 0.2 0.7 0.1 0.3 0.2 0.7 0.1 0.5 0.1 1.1 0.1 0.6 0.1 1.1 0 0.6 0 1.1 0 0.6 0 1.2v13.6h-6.2v-14.1q0-0.4 0-0.8 0-0.4-0.1-0.8-0.1-0.4-0.2-0.7-0.1-0.4-0.3-0.8-0.2-0.4-0.6-0.7-0.3-0.3-0.7-0.5-0.5-0.3-0.9-0.3-0.5-0.1-0.9-0.1-0.6 0-1.1 0.1-0.5 0.1-1 0.3-0.4 0.2-0.8 0.5-0.5 0.3-0.8 0.7-0.3 0.5-0.6 1.1-0.2 0.5-0.4 1.1-0.1 0.6-0.2 1.2-0.1 0.6 0 1.2v12.6h-6.1v-34.6h6.1v14.4q0.3-0.5 0.6-0.9 0.3-0.4 0.7-0.7 0.4-0.4 0.8-0.7 0.5-0.3 0.9-0.5 0.5-0.2 0.9-0.4 0.4-0.1 0.9-0.2 0.5-0.1 0.9-0.2 0.5 0 1 0 0.5 0 1 0 0.5 0 1 0.1 0.4 0.1 0.9 0.3 0.5 0.1 1 0.3z"/>
			<path id="Path_2" fill-rule="evenodd" class="s0" d="m-86 31.8q-2.9 3.6-8.9 3.6-6 0-8.9-3.6-0.8-0.9-1.4-2-0.5-1-0.9-2.1-0.4-1.1-0.5-2.3-0.2-1.2-0.2-2.4 0-1.1 0.2-2.3 0.1-1.2 0.5-2.3 0.4-1.1 1-2.1 0.5-1.1 1.3-2 2.9-3.7 8.9-3.7 6 0 8.9 3.7 0.8 0.9 1.3 2 0.6 1 1 2.1 0.3 1.1 0.5 2.3 0.2 1.2 0.2 2.3 0 1.2-0.2 2.4-0.2 1.2-0.5 2.3-0.4 1.1-1 2.1-0.5 1.1-1.3 2zm-4.8-3.4q0.4-0.6 0.6-1.2 0.3-0.7 0.5-1.3 0.2-0.7 0.3-1.4 0-0.8 0-1.5 0-0.7 0-1.4-0.1-0.7-0.3-1.4-0.2-0.7-0.5-1.3-0.2-0.6-0.6-1.2-0.4-0.5-0.9-0.9-0.4-0.3-1-0.6-0.5-0.2-1.1-0.3-0.6-0.2-1.1-0.1-0.6-0.1-1.2 0.1-0.6 0.1-1.1 0.3-0.6 0.3-1 0.6-0.5 0.4-0.8 0.9-0.4 0.6-0.7 1.2-0.3 0.6-0.5 1.3-0.2 0.7-0.3 1.4 0 0.7 0 1.4 0 0.8 0 1.5 0.1 0.7 0.3 1.4 0.2 0.6 0.5 1.3 0.3 0.6 0.7 1.2 0.3 0.5 0.8 0.9 0.4 0.3 1 0.6 0.5 0.2 1.1 0.3 0.6 0.2 1.2 0.1 0.6 0.1 1.1-0.1 0.6-0.1 1.1-0.3 0.6-0.3 1-0.6 0.5-0.4 0.9-0.9z"/>
			<path id="Path_3" class="s0" d="m-72.6 11.4v14q0 0.4 0 0.8 0 0.3 0.1 0.7 0 0.4 0.1 0.8 0.1 0.3 0.2 0.7 0.3 0.4 0.6 0.8 0.4 0.3 0.8 0.6 0.4 0.2 0.9 0.3 0.5 0.1 1 0.1 0.7 0 1.3-0.1 0.6-0.2 1.2-0.5 0.6-0.4 1-0.9 0.5-0.5 0.7-1.1 0.2-0.4 0.3-0.8 0.1-0.5 0.2-0.9 0.1-0.5 0.1-0.9 0.1-0.5 0-1v-12.6h6.2v23.2h-5.9v-3.3q-0.1 0.2-0.4 0.7-0.1 0.1-0.2 0.2-0.1 0.2-0.2 0.3-0.1 0.1-0.2 0.2-0.1 0.1-0.2 0.2-0.3 0.3-0.7 0.6-0.3 0.2-0.6 0.4-0.4 0.3-0.8 0.4-0.3 0.2-0.7 0.4-0.4 0.1-0.8 0.2-0.3 0.1-0.7 0.1-0.4 0.1-0.8 0.1-0.4 0-0.8 0-5.2 0-7-3.7-0.2-0.7-0.4-1.4-0.3-0.8-0.4-1.5-0.1-0.8-0.1-1.6-0.1-0.7-0.1-1.5v-14z"/>
			<path id="Path_4" class="s0" d="m-47.3 27.2q0 0.3 0.1 0.6 0 0.3 0.2 0.6 0.1 0.3 0.2 0.6 0.2 0.3 0.3 0.5 1.2 1.2 4.2 1.2 0.4 0 0.8 0 0.3 0 0.7-0.1 0.4 0 0.7-0.2 0.4-0.1 0.7-0.2 0.2-0.1 0.4-0.3 0.2-0.1 0.4-0.3 0.1-0.3 0.2-0.5 0.1-0.3 0.1-0.5 0-0.2-0.1-0.5 0-0.2-0.1-0.4-0.2-0.2-0.3-0.4-0.2-0.1-0.4-0.3-0.8-0.3-1.5-0.5-0.8-0.3-1.6-0.5-0.8-0.3-1.6-0.5-0.8-0.1-1.6-0.3-0.8-0.1-1.5-0.4-0.8-0.2-1.5-0.5-0.7-0.3-1.3-0.7-0.7-0.4-1.3-0.9-0.4-0.4-0.8-0.8-0.3-0.5-0.5-1.1-0.2-0.5-0.3-1.1-0.1-0.6 0-1.1 0-0.8 0.1-1.6 0.2-0.8 0.5-1.5 0.3-0.7 0.8-1.3 0.5-0.7 1.1-1.2 2.5-2.3 7.1-2.3 0.9 0 1.9 0.1 0.9 0.1 1.8 0.3 0.9 0.2 1.8 0.5 0.8 0.4 1.6 0.9 2.8 1.7 3.2 6h-6.1q0-0.3-0.1-0.5 0-0.3-0.1-0.5-0.1-0.3-0.2-0.5-0.1-0.2-0.3-0.4-0.3-0.3-0.7-0.6-0.4-0.2-0.8-0.4-0.5-0.2-1-0.2-0.4-0.1-0.9 0-0.4-0.1-0.7 0-0.4 0-0.8 0.1-0.3 0-0.7 0.2-0.3 0.1-0.6 0.3-0.2 0.1-0.4 0.3-0.1 0.1-0.2 0.3-0.1 0.2-0.2 0.4-0.1 0.2-0.1 0.4 0 0.3 0.1 0.5 0 0.2 0.2 0.4 0.1 0.2 0.2 0.4 0.2 0.1 0.4 0.2 0.8 0.3 1.6 0.6 0.8 0.2 1.6 0.4 0.8 0.2 1.6 0.4 0.8 0.2 1.6 0.3 0.7 0.2 1.5 0.4 0.7 0.2 1.4 0.6 0.7 0.3 1.3 0.7 0.6 0.4 1.2 0.9 0.5 0.4 0.8 0.9 0.3 0.5 0.6 1.1 0.2 0.6 0.3 1.2 0.1 0.6 0.1 1.2 0 0.8-0.1 1.6-0.2 0.8-0.5 1.5-0.4 0.7-0.8 1.4-0.5 0.6-1.2 1.1-2.5 2.2-7.9 2.2-5.5 0-8.1-2.3-0.7-0.5-1.2-1.2-0.5-0.7-0.8-1.4-0.3-0.8-0.5-1.6-0.2-0.9-0.2-1.7z"/>
			<path id="Path_5" fill-rule="evenodd" class="s0" d="m-12.6 11.9q0.7 0.2 1.2 0.6 0.6 0.4 1.1 0.8 0.5 0.4 1 0.9 0.4 0.5 0.8 1.1 0.3 0.5 0.6 1.1 0.3 0.6 0.6 1.2 0.2 0.6 0.4 1.2 0.1 0.7 0.2 1.3 0.1 0.6 0.1 1.2 0.1 0.5 0.1 1.1 0 0.6 0 1.2 0 0.5 0 1.1h-16.9q0.1 3.5 2.4 4.9 0.4 0.2 0.8 0.4 0.4 0.2 0.8 0.3 0.5 0.1 0.9 0.2 0.4 0 0.9 0 0.7 0.1 1.4-0.1 0.7-0.2 1.3-0.5 0.6-0.4 1.1-0.9 0.5-0.5 0.8-1.2h6.2q-0.1 0.6-0.3 1.2-0.2 0.6-0.5 1.1-0.3 0.5-0.6 1-0.4 0.5-0.9 0.9-3.1 3.4-8.7 3.4-1.1 0-2.2-0.1-1.1-0.2-2.1-0.6-1.1-0.4-2.1-0.9-0.9-0.5-1.8-1.2-3.5-2.9-3.5-9.3 0-6.1 3.2-9.3 0.8-0.8 1.7-1.4 1-0.7 2.1-1.1 1.1-0.4 2.2-0.6 1.1-0.2 2.3-0.1 0.7 0 1.4 0 0.7 0.1 1.4 0.2 0.7 0.2 1.3 0.4 0.7 0.2 1.3 0.5zm-9 5.2q-0.4 0.4-0.7 0.8-0.2 0.4-0.4 0.9-0.3 0.4-0.4 0.9-0.1 0.5-0.2 1h10.5q0-0.5-0.1-1-0.1-0.5-0.3-1-0.2-0.5-0.5-0.9-0.3-0.4-0.7-0.8-0.4-0.3-0.8-0.5-0.4-0.3-0.9-0.4-0.5-0.2-0.9-0.3-0.5 0-1 0-0.5 0-1 0-0.5 0.1-1 0.3-0.4 0.1-0.9 0.4-0.4 0.3-0.7 0.6z"/>
			<path id="Path_6" class="s0" d="m0.1 9.7l13.1 13.1-13.1 13.1v9.7l22.8-22.8-22.8-22.8z"/>
			<path id="Rectangle_1" class="s0" d="m0.1 19.1h6.9v7.4h-6.9z"/>
			<path id="Path_7" class="s1" d="m-76.1 58.1h1.5l-5.4 13.2h-1.5l1.7-4.3-3.6-8.9h1.7l2.8 7.3z"/>
			<path id="Path_8" fill-rule="evenodd" class="s1" d="m-69.2 67.2q-0.9 0-1.8-0.3-0.8-0.4-1.5-1-0.6-0.7-0.9-1.6-0.3-0.8-0.3-1.7c0-1.3 0.5-2.4 1.3-3.3 0.9-0.9 2.1-1.3 3.3-1.3 1.2 0 2.3 0.4 3.2 1.3 0.8 0.9 1.3 2 1.3 3.3q0 0.9-0.3 1.8-0.3 0.8-1 1.5-0.6 0.6-1.5 1-0.9 0.3-1.8 0.3zm0-1.3q0.6 0 1.2-0.3 0.6-0.2 1.1-0.7 0.4-0.5 0.6-1.1 0.2-0.6 0.2-1.2 0-0.7-0.2-1.3-0.2-0.6-0.6-1.1-0.4-0.5-1-0.7-0.6-0.3-1.3-0.3c-1.5 0-2.9 1.1-2.9 3.4 0 2.2 1.3 3.3 2.9 3.3z"/>
			<path id="Path_9" class="s1" d="m-54.7 67.1h-1.5v-1.4q-0.2 0.4-0.5 0.7-0.4 0.2-0.7 0.4-0.4 0.2-0.8 0.3-0.4 0.1-0.9 0.1-0.7 0-1.4-0.3-0.7-0.2-1.3-0.8-0.5-0.5-0.8-1.3-0.2-0.7-0.1-1.5v-5.2h1.4v5c0 1.9 1 2.8 2.5 2.8 1.6 0 2.6-1 2.6-2.9v-4.9h1.5z"/>
			<path id="Path_10" class="s1" d="m-50.7 67.1h-1.5v-9h1.5v1.4q0.2-0.3 0.5-0.7 0.3-0.3 0.7-0.5 0.4-0.2 0.8-0.3 0.5-0.1 0.9-0.1v1.6h-0.4c-1.4 0-2.5 0.6-2.5 2.7z"/>
			<path id="Path_11" class="s2" d="m-29.2 62c0.1-0.5-0.1-1.1-0.5-1.5-0.4-0.4-0.9-0.6-1.5-0.6-0.6 0-1.1 0.2-1.5 0.6-0.4 0.4-0.6 1-0.5 1.5v5.1h-2.3v-5.1c0-0.5-0.2-1.1-0.5-1.5-0.4-0.4-1-0.6-1.5-0.6-0.6 0-1.2 0.2-1.5 0.6-0.4 0.4-0.6 1-0.6 1.5v5.1h-2.3v-9.1h2.3v1.1q0.3-0.3 0.6-0.5 0.3-0.3 0.6-0.4 0.4-0.2 0.7-0.3 0.4 0 0.8 0 0.5-0.1 0.9 0 0.5 0.2 0.9 0.4 0.5 0.2 0.8 0.5 0.3 0.4 0.6 0.8 0.2-0.4 0.6-0.7 0.3-0.4 0.7-0.6 0.4-0.2 0.9-0.3 0.4-0.1 0.9-0.1 0.8-0.1 1.5 0.2 0.7 0.3 1.2 0.8 0.6 0.6 0.8 1.3 0.3 0.8 0.2 1.5v5.4h-2.3z"/>
			<path id="Path_12" fill-rule="evenodd" class="s2" d="m-20.7 67.2q-0.9 0-1.8-0.3-0.9-0.4-1.5-1-0.7-0.7-1-1.6-0.4-0.8-0.3-1.8c0-1.2 0.5-2.4 1.4-3.3 0.8-0.8 2-1.3 3.2-1.3 1.3 0 2.5 0.5 3.3 1.3 0.9 0.9 1.4 2.1 1.4 3.3q0 1-0.3 1.8-0.4 0.9-1 1.6-0.7 0.7-1.6 1-0.9 0.3-1.8 0.3zm0-2q0.5 0 1-0.2 0.4-0.2 0.8-0.6 0.3-0.4 0.5-0.9 0.1-0.5 0.1-1 0-0.5-0.1-1-0.2-0.5-0.5-0.8-0.3-0.4-0.8-0.6-0.5-0.3-1-0.3c-1.2 0-2.3 0.9-2.3 2.7 0 1.8 1.1 2.7 2.3 2.7z"/>
			<path id="Path_13" class="s2" d="m-12.8 58l2.3 6.9 2.3-6.9h2.4l-3.4 9.1h-2.7l-3.4-9.1z"/>
			<path id="Path_14" fill-rule="evenodd" class="s2" d="m-0.6 67.2q-0.9 0-1.8-0.3-0.8-0.4-1.5-1-0.6-0.7-1-1.6-0.3-0.8-0.2-1.8-0.1-0.9 0.2-1.8 0.4-0.9 1-1.5 0.7-0.7 1.5-1.1 0.9-0.3 1.8-0.3 0.9 0 1.8 0.3 0.8 0.4 1.5 1 0.6 0.6 0.9 1.5 0.3 0.8 0.3 1.7 0 0.1 0 0.2 0 0.2 0 0.3 0 0.1 0 0.2 0 0.1-0.1 0.2h-6.6q0 0.4 0.2 0.8 0.2 0.4 0.5 0.7 0.3 0.3 0.7 0.5 0.4 0.1 0.8 0.1 0.3 0 0.5 0 0.3-0.1 0.6-0.3 0.2-0.1 0.4-0.3 0.2-0.2 0.3-0.5h2.5q-0.2 0.7-0.6 1.3-0.5 0.5-1 0.9-0.6 0.4-1.3 0.6-0.7 0.2-1.4 0.2zm-2.2-5.5h4.3q0-0.4-0.2-0.8-0.1-0.4-0.4-0.7-0.3-0.2-0.7-0.4-0.4-0.1-0.8-0.1-0.4 0-0.8 0.2-0.4 0.1-0.7 0.4-0.3 0.2-0.5 0.6-0.1 0.4-0.2 0.8z"/>
			<path id="Path_15" class="s2" d="m5.6 65h1.6l-1.8 4.4h-1z"/>
			<path id="Path_16" fill-rule="evenodd" class="s1" d="m17.2 67.2q-0.9 0-1.8-0.3-0.8-0.4-1.5-1-0.6-0.7-0.9-1.6-0.3-0.8-0.3-1.7c0-1.3 0.5-2.4 1.3-3.3 0.9-0.9 2-1.3 3.3-1.3 1.2 0 2.3 0.4 3.2 1.3 0.8 0.9 1.3 2 1.3 3.3q0 0.9-0.3 1.8-0.3 0.8-1 1.5-0.6 0.6-1.5 1-0.9 0.3-1.8 0.3zm0-1.3q0.6 0 1.2-0.3 0.6-0.2 1.1-0.7 0.4-0.5 0.6-1.1 0.2-0.6 0.2-1.2 0-0.7-0.2-1.3-0.2-0.6-0.6-1.1-0.4-0.5-1-0.7-0.6-0.3-1.3-0.3c-1.5 0-3 1.1-3 3.4 0 2.2 1.4 3.3 3 3.3z"/>
			<path id="Path_17" class="s1" d="m31.7 67.1h-1.5v-1.4q-0.2 0.4-0.5 0.7-0.4 0.2-0.7 0.4-0.4 0.2-0.8 0.3-0.4 0.1-0.9 0.1-0.7 0-1.4-0.3-0.7-0.2-1.3-0.8-0.5-0.5-0.8-1.3-0.2-0.7-0.1-1.5v-5.2h1.4v5c0 1.9 1 2.8 2.5 2.8 1.6 0 2.6-1 2.6-2.9v-4.9h1.5z"/>
			<path id="Path_18" class="s1" d="m35.7 67.1h-1.5v-9h1.5v1.4q0.2-0.3 0.5-0.7 0.3-0.3 0.7-0.5 0.4-0.2 0.8-0.3 0.5-0.1 0.9-0.1v1.6h-0.4c-1.4 0-2.5 0.6-2.5 2.7z"/>
			<path id="Path_19" fill-rule="evenodd" class="s3" d="m48.5 67.2q-0.9 0-1.8-0.3-0.9-0.4-1.5-1-0.7-0.7-1-1.6-0.3-0.8-0.3-1.8 0-0.9 0.3-1.8 0.3-0.9 1-1.5 0.6-0.7 1.5-1.1 0.9-0.3 1.8-0.3 0.9 0 1.7 0.3 0.9 0.4 1.5 1 0.7 0.6 1 1.5 0.3 0.8 0.3 1.7 0 0.1 0 0.2 0 0.2-0.1 0.3 0 0.1 0 0.2 0 0.1 0 0.2h-6.6q0 0.4 0.1 0.8 0.2 0.4 0.5 0.7 0.3 0.3 0.7 0.5 0.4 0.1 0.8 0.1 0.3 0 0.6 0 0.3-0.1 0.5-0.3 0.3-0.1 0.5-0.3 0.1-0.2 0.3-0.5h2.4q-0.2 0.7-0.6 1.3-0.4 0.5-1 0.9-0.6 0.4-1.2 0.6-0.7 0.2-1.4 0.2zm-2.2-5.5h4.3q0-0.4-0.2-0.8-0.2-0.4-0.5-0.7-0.3-0.2-0.7-0.4-0.4-0.1-0.8-0.1-0.4 0-0.8 0.2-0.3 0.1-0.6 0.4-0.3 0.2-0.5 0.6-0.2 0.4-0.2 0.8z"/>
			<path id="Path_20" class="s3" d="m57.8 64.2l-1.7 2.9h-2.5l3-4.6-3-4.5h2.6l1.8 2.8 1.7-2.8h2.5l-3 4.5 3 4.6h-2.6z"/>
			<path id="Path_21" fill-rule="evenodd" class="s3" d="m68.7 57.8c2.3 0 4.2 1.9 4.2 4.7 0 2.8-1.9 4.7-4.2 4.7q-0.4 0-0.8-0.1-0.5-0.1-0.8-0.3-0.4-0.2-0.8-0.4-0.3-0.3-0.6-0.6v5.6h-2.3v-13.4h2.3v1.3q0.3-0.3 0.6-0.6 0.4-0.3 0.7-0.5 0.4-0.2 0.9-0.3 0.4-0.1 0.8-0.1zm-0.6 2.1q-0.5 0-1 0.2-0.4 0.2-0.8 0.6-0.3 0.3-0.5 0.8-0.1 0.5-0.1 1 0 0.5 0.1 1 0.2 0.5 0.5 0.9 0.4 0.4 0.8 0.6 0.5 0.2 1 0.2 0.5 0 1-0.2 0.5-0.3 0.8-0.6 0.3-0.4 0.5-0.9 0.2-0.5 0.1-1 0.1-0.5-0.1-1-0.2-0.5-0.5-0.9-0.3-0.3-0.8-0.5-0.5-0.2-1-0.2z"/>
			<path id="Path_22" fill-rule="evenodd" class="s3" d="m78.5 67.2q-1 0-1.8-0.3-0.9-0.4-1.5-1-0.7-0.7-1-1.6-0.3-0.8-0.3-1.8 0-0.9 0.3-1.8 0.3-0.9 0.9-1.5 0.7-0.7 1.6-1.1 0.8-0.3 1.8-0.3 0.9 0 1.7 0.3 0.9 0.4 1.5 1 0.6 0.6 1 1.5 0.3 0.8 0.2 1.7 0 0.1 0 0.2 0 0.2 0 0.3 0 0.1 0 0.2 0 0.1 0 0.2h-6.7q0.1 0.4 0.2 0.8 0.2 0.4 0.5 0.7 0.3 0.3 0.7 0.5 0.4 0.1 0.8 0.1 0.3 0 0.6 0 0.3-0.1 0.5-0.3 0.2-0.1 0.4-0.3 0.2-0.2 0.3-0.5h2.5q-0.2 0.7-0.6 1.3-0.4 0.5-1 0.9-0.6 0.4-1.2 0.6-0.7 0.2-1.4 0.2zm-2.2-5.5h4.3q0-0.4-0.2-0.8-0.2-0.4-0.5-0.7-0.3-0.2-0.7-0.4-0.4-0.1-0.8-0.1-0.4 0-0.8 0.2-0.4 0.1-0.7 0.4-0.3 0.2-0.4 0.6-0.2 0.4-0.2 0.8z"/>
			<path id="Path_23" class="s3" d="m86.9 67.1h-2.3v-9.1h2.3v1.4q0.2-0.4 0.5-0.7 0.3-0.2 0.7-0.4 0.3-0.3 0.7-0.4 0.5-0.1 0.9 0v2.4h-0.6c-1.4 0-2.2 0.5-2.2 2.2z"/>
			<path id="Path_24" class="s3" d="m91.6 59.9h-1.1v-1.9h1.1v-2.2h2.3v2.2h2v1.9h-2v4.4c0 0.6 0.2 0.8 0.9 0.8h1.1v2h-1.4c-1.8 0-2.9-0.8-2.9-2.9z"/>
			<path id="Path_25" class="s3" d="m97.3 55.6c0-0.6 0.3-1.1 0.8-1.4 0.5-0.2 1.2-0.1 1.6 0.3 0.4 0.4 0.5 1 0.3 1.5-0.2 0.6-0.7 0.9-1.3 0.9q-0.3 0-0.5-0.1-0.3-0.1-0.5-0.3-0.2-0.1-0.3-0.4-0.1-0.3-0.1-0.5zm0.2 2.4h2.3v9.1h-2.3z"/>
			<path id="Path_26" class="s3" d="m105.6 67.2c-2.3 0-3.9-1.3-4-3h2.3q0.1 0.3 0.2 0.5 0.2 0.2 0.4 0.4 0.2 0.2 0.5 0.3 0.3 0 0.5 0c0.9 0 1.4-0.4 1.4-0.9 0-1.7-5.1-0.6-5.1-3.9 0-1.5 1.3-2.8 3.6-2.8 2.2 0 3.5 1.2 3.6 3h-2.2q0-0.2-0.1-0.5-0.2-0.2-0.4-0.4-0.2-0.1-0.4-0.2-0.3-0.1-0.6 0c-0.8 0-1.3 0.3-1.3 0.8 0 1.7 5.1 0.6 5.1 4 0 1.5-1.3 2.7-3.5 2.7z"/>
			<path id="Path_27" fill-rule="evenodd" class="s3" d="m115 67.2q-1 0-1.8-0.3-0.9-0.4-1.6-1-0.6-0.7-0.9-1.6-0.4-0.8-0.3-1.8-0.1-0.9 0.3-1.8 0.3-0.9 0.9-1.5 0.7-0.7 1.5-1.1 0.9-0.3 1.9-0.3 0.9 0 1.7 0.3 0.8 0.4 1.5 1 0.6 0.6 0.9 1.5 0.4 0.8 0.3 1.7 0 0.1 0 0.2 0 0.2 0 0.3 0 0.1 0 0.2 0 0.1 0 0.2h-6.7q0 0.4 0.2 0.8 0.2 0.4 0.5 0.7 0.3 0.3 0.7 0.5 0.4 0.1 0.8 0.1 0.3 0 0.6 0 0.2-0.1 0.5-0.3 0.2-0.1 0.4-0.3 0.2-0.2 0.3-0.5h2.5q-0.2 0.7-0.6 1.3-0.4 0.5-1 0.9-0.6 0.4-1.3 0.6-0.6 0.2-1.3 0.2zm-2.3-5.5h4.3q0-0.4-0.1-0.8-0.2-0.4-0.5-0.7-0.3-0.2-0.7-0.4-0.4-0.1-0.8-0.1-0.4 0-0.8 0.2-0.4 0.1-0.7 0.4-0.3 0.2-0.5 0.6-0.1 0.4-0.2 0.8z"/>
			<path id="Path_28" fill-rule="evenodd" class="s4" d="m69.2 11.7q0.6 0.3 1.2 0.7 0.6 0.3 1.1 0.8 0.5 0.4 0.9 0.9 0.5 0.5 0.8 1.1 0.4 0.5 0.7 1.1 0.3 0.6 0.5 1.2 0.3 0.6 0.4 1.2 0.2 0.6 0.3 1.3 0.1 0.5 0.1 1.1 0.1 0.6 0.1 1.2 0 0.6 0 1.1 0 0.6 0 1.2h-16.9q0.1 3.5 2.4 4.9 0.4 0.2 0.8 0.4 0.4 0.2 0.8 0.3 0.4 0.1 0.9 0.1 0.4 0.1 0.8 0.1 0.8 0 1.5-0.1 0.7-0.2 1.3-0.6 0.6-0.3 1.1-0.8 0.5-0.6 0.8-1.2h6.2q-0.1 0.6-0.3 1.2-0.2 0.5-0.5 1.1-0.3 0.5-0.7 1-0.3 0.5-0.8 0.9-3.1 3.4-8.7 3.4-1.1 0-2.2-0.2-1.1-0.2-2.2-0.5-1-0.4-2-0.9-1-0.6-1.8-1.3-3.6-2.8-3.6-9.3 0-6 3.2-9.2 0.9-0.9 1.8-1.5 1-0.6 2.1-1 1-0.4 2.2-0.6 1.1-0.2 2.3-0.2 0.7 0 1.4 0.1 0.7 0.1 1.3 0.2 0.7 0.1 1.4 0.3 0.7 0.2 1.3 0.5zm-9.1 5.3q-0.3 0.3-0.6 0.8-0.3 0.4-0.5 0.8-0.2 0.5-0.3 1-0.1 0.5-0.2 1h10.5q0-0.5-0.1-1-0.1-0.6-0.3-1-0.3-0.5-0.6-0.9-0.3-0.4-0.6-0.8-0.4-0.3-0.8-0.6-0.5-0.2-0.9-0.4-0.5-0.1-1-0.2-0.5-0.1-0.9-0.1-0.5 0-1 0.1-0.5 0.1-1 0.2-0.5 0.2-0.9 0.5-0.4 0.2-0.8 0.6z"/>
			<path id="Path_29" class="s4" d="m76.1 34.5l7.9-11.8-7.6-11.4h7.4l3.9 6.7 3.8-6.7h7.2l-7.6 11.3 7.9 11.9h-7.5l-4-7-4.1 7z"/>
			<path id="Path_30" fill-rule="evenodd" class="s4" d="m121.5 13.8q2.8 3 2.8 8.8 0 6.1-2.8 9.3-0.6 0.8-1.4 1.4-0.8 0.7-1.8 1.1-0.9 0.4-1.9 0.6-1 0.2-2 0.2-0.6 0-1.2-0.1-0.7-0.1-1.2-0.2-0.6-0.2-1.2-0.5-0.5-0.3-1-0.6-0.3-0.3-0.6-0.5-0.3-0.3-0.5-0.6-0.3-0.2-0.5-0.5-0.2-0.3-0.4-0.7v14.3h-6v-34.5h5.8v3.4q0.2-0.3 0.4-0.7 0.3-0.3 0.5-0.6 0.3-0.3 0.6-0.6 0.3-0.2 0.6-0.5 0.5-0.4 1.1-0.7 0.6-0.3 1.2-0.5 0.6-0.2 1.2-0.3 0.7-0.1 1.3-0.1 1 0 2 0.2 0.9 0.2 1.8 0.6 0.9 0.4 1.7 1 0.8 0.5 1.5 1.3zm-4.7 4.3q-0.3-0.5-0.7-0.9-0.5-0.4-1-0.7-0.5-0.3-1.1-0.4-0.6-0.1-1.2 0-0.8-0.1-1.5 0.1-0.7 0.2-1.3 0.6-0.6 0.5-1.1 1.1-0.5 0.6-0.7 1.3-0.2 0.5-0.3 1-0.1 0.5-0.2 1.1-0.1 0.5-0.1 1-0.1 0.6 0 1.1 0 4.1 2.1 5.7 0.4 0.2 0.7 0.4 0.4 0.2 0.8 0.3 0.4 0.2 0.8 0.2 0.4 0.1 0.8 0.1 0.6 0 1.1-0.1 0.6-0.1 1.1-0.4 0.5-0.3 1-0.6 0.4-0.4 0.7-0.9 0.4-0.6 0.6-1.2 0.3-0.6 0.5-1.3 0.2-0.7 0.2-1.4 0.1-0.6 0.1-1.3 0-0.6-0.1-1.3-0.1-0.6-0.2-1.2-0.2-0.6-0.4-1.2-0.3-0.5-0.6-1.1z"/>
			<path id="Path_31" fill-rule="evenodd" class="s4" d="m143.9 11.7q0.6 0.3 1.2 0.7 0.5 0.3 1 0.8 0.6 0.4 1 0.9 0.4 0.5 0.8 1.1 0.4 0.5 0.7 1.1 0.3 0.6 0.5 1.2 0.2 0.6 0.4 1.2 0.2 0.6 0.3 1.3 0 0.5 0.1 1.1 0 0.6 0 1.2 0.1 0.6 0.1 1.1 0 0.6 0 1.2h-17q0.2 3.5 2.5 4.9 0.3 0.2 0.7 0.4 0.4 0.2 0.9 0.3 0.4 0.1 0.8 0.1 0.5 0.1 0.9 0.1 0.7 0 1.4-0.1 0.7-0.2 1.3-0.6 0.7-0.3 1.1-0.8 0.5-0.6 0.8-1.2h6.2q-0.1 0.6-0.3 1.2-0.2 0.5-0.5 1.1-0.2 0.5-0.6 1-0.4 0.5-0.8 0.9-3.1 3.4-8.8 3.4-1.1 0-2.2-0.2-1.1-0.2-2.1-0.5-1.1-0.4-2-0.9-1-0.6-1.8-1.3-3.6-2.8-3.6-9.3 0-6 3.2-9.2 0.8-0.9 1.8-1.5 1-0.6 2-1 1.1-0.4 2.2-0.6 1.2-0.2 2.3-0.2 0.7 0 1.4 0.1 0.7 0.1 1.4 0.2 0.7 0.1 1.4 0.3 0.6 0.2 1.3 0.5zm-9.1 5.3q-0.3 0.3-0.6 0.8-0.3 0.4-0.5 0.8-0.2 0.5-0.3 1-0.2 0.5-0.2 1h10.4q0-0.5-0.1-1-0.1-0.6-0.3-1-0.2-0.5-0.5-0.9-0.3-0.4-0.7-0.8-0.4-0.3-0.8-0.6-0.4-0.2-0.9-0.4-0.4-0.1-0.9-0.2-0.5-0.1-1-0.1-0.5 0-1 0.1-0.5 0.1-0.9 0.2-0.5 0.2-0.9 0.5-0.4 0.2-0.8 0.6z"/>
			<path id="Path_32" class="s4" d="m165.3 10.7q0.1 0 0.5 0v6.3q-0.6-0.1-1-0.1-0.5 0-0.7 0-3.7 0-5 2.4-0.2 0.4-0.3 1-0.2 0.5-0.3 1 0 0.5-0.1 1 0 0.6 0 1.1v11.1h-6.1v-23.8h5.8v4.6q0.3-0.4 0.5-0.9 0.3-0.4 0.6-0.8 0.3-0.4 0.7-0.7 0.3-0.4 0.7-0.8 0.4-0.3 1-0.6 0.5-0.3 1.1-0.5 0.5-0.2 1.1-0.2 0.6-0.1 1.2-0.1 0.2 0 0.3 0z"/>
			<path id="Path_33" class="s4" d="m168.8 15.8v-5.1h3.3v-5.7h6v5.7h3.7v5.1h-3.7v12.3q-0.1 0.2-0.1 0.4 0 0.3 0.1 0.5 0 0.2 0.1 0.4 0.1 0.3 0.2 0.5 0.3 0.1 0.6 0.2 0.2 0.1 0.5 0.1 0.3 0 0.6 0 0.3 0.1 0.5 0 0.3 0 0.6 0 0.3 0 0.6 0v4.5l-2.8 0.1q-4.3 0.2-5.9-1.5-0.3-0.3-0.5-0.7-0.2-0.4-0.4-0.8-0.1-0.4-0.1-0.8-0.1-0.5 0-0.9v-14.3z"/>
			<path id="Path_34" class="s4" d="m45.7 35.9l-13.1-13.1 13.1-13.1v-9.7l-22.8 22.8 22.8 22.8z"/>
			<path id="Rectangle_2" class="s4" d="m38.8 19.1h6.9v7.4h-6.9z"/>
			<path id="Rectangle_3" class="s4" d="m186.5 27.4h6.9v7.4h-6.9z"/>
			<path id="Rectangle_4" class="s4" d="m197.4 22.1h4.1v13.1h-4.1z"/>
			<path id="Path_35" class="s4" d="m215.5 22.9q0.4 0.3 0.7 0.7 0.3 0.4 0.5 0.8 0.2 0.5 0.3 1 0 0.5 0 1v8.8h-4.1v-7.9q0-0.2 0-0.5-0.1-0.2-0.1-0.4 0-0.2-0.1-0.4-0.1-0.1-0.2-0.3-0.1-0.3-0.4-0.5-0.2-0.2-0.5-0.4-0.3-0.1-0.7-0.1-0.3-0.1-0.6 0-0.4-0.1-0.8 0-0.5 0.1-0.8 0.3-0.4 0.2-0.7 0.5-0.3 0.3-0.5 0.6-0.1 0.3-0.2 0.5-0.1 0.3-0.1 0.5-0.1 0.3-0.1 0.5 0 0.3 0 0.5v7.1h-4v-13.1h3.9v2q0.1-0.3 0.3-0.5 0.2-0.2 0.4-0.3 0.1-0.2 0.3-0.4 0.2-0.2 0.4-0.3 0.4-0.2 0.8-0.4 0.4-0.1 0.8-0.2 0.4-0.1 0.8-0.2 0.4 0 0.8 0 0.5 0 1 0 0.5 0.1 1 0.2 0.5 0.2 1 0.4 0.5 0.2 0.9 0.5z"/>
			<path id="Path_36" class="s4" d="m201.5 18.9c0 0.8-0.5 1.6-1.3 1.9-0.8 0.3-1.7 0.1-2.2-0.5-0.6-0.5-0.8-1.4-0.5-2.2 0.3-0.8 1.1-1.2 1.9-1.2q0.4 0 0.8 0.1 0.4 0.2 0.7 0.5 0.2 0.2 0.4 0.6 0.2 0.4 0.2 0.8z"/>
		</g>
	</g>
</svg>