<svg xmlns="http://www.w3.org/2000/svg" width="25.911" height="25.919" viewBox="0 0 25.911 25.919">
  <g id="Group_205" data-name="Group 205" transform="translate(-234.306 -1414.737)">
    <path id="Path_411" data-name="Path 411" d="M840.762,142.039v1.414h-2.614c.035.057.053.09.074.12a3.459,3.459,0,0,1,.571,1.227c.018.079.058.087.124.087.569,0,1.138,0,1.706,0h.136V146.3c-.044,0-.086.006-.128.006-.557,0-1.114,0-1.671,0a.15.15,0,0,0-.175.134,3.608,3.608,0,0,1-2.288,2.475c-.142.057-.291.094-.47.15,1.123,1.152,2.272,2.237,3.392,3.346l-1,.994c-.169-.162-.349-.333-.527-.506l-3.491-3.4-.009-.008a.887.887,0,0,0-.72-.352v-1.4c.034,0,.08-.005.125-.006.545-.014,1.09-.025,1.635-.042a2.091,2.091,0,0,0,1.376-.491,1.967,1.967,0,0,0,.515-.686c.026-.06.044-.125.072-.207H833.7V144.89h3.7a2.862,2.862,0,0,0-.121-.3,1.874,1.874,0,0,0-1.668-1.051q-.906-.032-1.812-.051c-.1,0-.135-.031-.134-.135,0-.363-.006-.727-.006-1.09,0-.183,0-.19.19-.195.553-.013,1.106-.026,1.659-.027q2.554-.006,5.107,0h.145" transform="translate(-589.949 1279.975)" fill="#eb2c60"/>
    <path id="Path_414" data-name="Path 414" d="M662.265,0h1.585c.075.014.149.031.224.043.713.115,1.439.179,2.138.353a12.958,12.958,0,0,1-2.836,25.521,12.585,12.585,0,0,1-6.942-1.826,12.769,12.769,0,0,1-6.136-8.875c-.091-.482-.136-.973-.2-1.46V12.17a2.02,2.02,0,0,0,.042-.221A12.964,12.964,0,0,1,660.55.251c.566-.113,1.143-.169,1.714-.251m.8,1.992a10.968,10.968,0,1,0,10.957,10.985A10.965,10.965,0,0,0,663.066,1.992" transform="translate(-415.789 1414.737)" fill="#eb2c60"/>
  </g>
</svg>
