<svg xmlns="http://www.w3.org/2000/svg" xmlns:xlink="http://www.w3.org/1999/xlink" width="677.166" height="423.253" viewBox="0 0 677.166 423.253">
  <defs>
    <clipPath id="clip-path">
      <rect id="Rectangle_156" data-name="Rectangle 156" width="43.024" height="3.106" fill="none"/>
    </clipPath>
    <clipPath id="clip-path-2">
      <rect id="Rectangle_157" data-name="Rectangle 157" width="3.107" height="3.106" fill="none"/>
    </clipPath>
  </defs>
  <g id="Group_179" data-name="Group 179" transform="translate(-381.835 -264)">
    <path id="Path_415" data-name="Path 415" d="M36.381,422.43c-31.187-22.062-59.293-68.3-8.26-164.681S-3.9,149.424,128.569,63.175c134.2-87.375,310.929-92.1,444.72,36.557C701.582,223.1,687.1,359.258,650.006,421.949c-298.178,0-613.624.481-613.624.481" transform="translate(381.834 264)" fill="#faf0f3"/>
    <path id="Path_416" data-name="Path 416" d="M577.142,218.479V494.138a7.882,7.882,0,0,1-7.861,7.855H431.438a7.878,7.878,0,0,1-7.857-7.855V218.479a7.879,7.879,0,0,1,7.857-7.859H569.281a7.883,7.883,0,0,1,7.861,7.859" transform="translate(220.901 183.978)" fill="#5f19e1"/>
    <g id="Group_175" data-name="Group 175" transform="translate(702.294 402.521)" opacity="0.4">
      <g id="Group_174" data-name="Group 174">
        <g id="Group_173" data-name="Group 173" clip-path="url(#clip-path)">
          <path id="Path_417" data-name="Path 417" d="M558.288,226.5H518.37a1.553,1.553,0,0,1,0-3.107h39.919a1.553,1.553,0,0,1,0,3.107" transform="translate(-516.817 -223.398)" fill="#5e92dd"/>
        </g>
      </g>
    </g>
    <g id="Group_178" data-name="Group 178" transform="translate(695.204 402.521)" opacity="0.4">
      <g id="Group_177" data-name="Group 177">
        <g id="Group_176" data-name="Group 176" clip-path="url(#clip-path-2)">
          <path id="Path_418" data-name="Path 418" d="M506.936,226.5h0a1.553,1.553,0,1,1,1.553-1.553,1.558,1.558,0,0,1-1.553,1.553" transform="translate(-505.383 -223.398)" fill="#5e92dd"/>
        </g>
      </g>
    </g>
    <path id="Path_419" data-name="Path 419" d="M554.352,648.426a10.018,10.018,0,1,1-10.018-10.015,9.988,9.988,0,0,1,10.018,10.015" transform="translate(178.828 21.445)" fill="#2b478b"/>
    <rect id="Rectangle_158" data-name="Rectangle 158" width="136.172" height="242.384" transform="translate(653.676 412.547)" fill="#dceaff"/>
    <path id="Path_420" data-name="Path 420" d="M551.447,656.435a10.016,10.016,0,1,1-12.483-15.507,22.455,22.455,0,0,0,12.483,15.507" transform="translate(178.828 20.489)" fill="#233862"/>
    <rect id="Rectangle_159" data-name="Rectangle 159" width="135.911" height="118.061" transform="translate(653.677 483.121)" fill="#f99746"/>
    <path id="Path_421" data-name="Path 421" d="M564.093,440.238H470.352a3.714,3.714,0,0,1-3.709-3.709V383.224a3.714,3.714,0,0,1,3.709-3.709h93.741a3.713,3.713,0,0,1,3.708,3.709v53.306a3.713,3.713,0,0,1-3.708,3.709m-93.741-60.023a3.013,3.013,0,0,0-3.009,3.009v53.306a3.013,3.013,0,0,0,3.009,3.009h93.741a3.012,3.012,0,0,0,3.008-3.009V383.224a3.012,3.012,0,0,0-3.008-3.009Z" transform="translate(204.54 119.809)" fill="#ebf3fa"/>
    <path id="Path_422" data-name="Path 422" d="M503.72,455.527l-21.614.169a1.669,1.669,0,0,1-1.676-1.65v-.208a1.668,1.668,0,0,1,1.649-1.676l21.614-.168a1.668,1.668,0,0,1,1.676,1.65l0,.208a1.667,1.667,0,0,1-1.65,1.675" transform="translate(199.303 92.271)" fill="#fff"/>
    <path id="Path_423" data-name="Path 423" d="M549.655,455.17l-21.614.168a1.667,1.667,0,0,1-1.675-1.649l0-.208a1.668,1.668,0,0,1,1.65-1.676l21.614-.168a1.669,1.669,0,0,1,1.676,1.65v.208a1.668,1.668,0,0,1-1.65,1.675" transform="translate(181.85 92.407)" fill="#fff"/>
    <path id="Path_424" data-name="Path 424" d="M484.206,421.3a4.027,4.027,0,0,1-.4,1.94,1.822,1.822,0,0,1-3.2.025,4.78,4.78,0,0,1-.038-3.866,1.834,1.834,0,0,1,3.218-.025,4.035,4.035,0,0,1,.419,1.926m-.991,0a3.991,3.991,0,0,0-.177-1.244q-.265-.754-.853-.75t-.848.755a3.863,3.863,0,0,0-.166,1.254q.016,2.016,1.045,2.009.6,0,.841-.771a3.98,3.98,0,0,0,.158-1.254" transform="translate(199.398 105.024)" fill="#fff"/>
    <path id="Path_425" data-name="Path 425" d="M491.363,421.241a4.017,4.017,0,0,1-.4,1.94,1.822,1.822,0,0,1-3.2.025,4.78,4.78,0,0,1-.038-3.866,1.835,1.835,0,0,1,3.218-.025,4.051,4.051,0,0,1,.42,1.926m-.991,0a4.009,4.009,0,0,0-.178-1.244q-.265-.754-.853-.75t-.848.755a3.88,3.88,0,0,0-.166,1.254q.016,2.016,1.046,2.009.594,0,.841-.771a4.019,4.019,0,0,0,.158-1.254" transform="translate(196.678 105.045)" fill="#fff"/>
    <path id="Path_426" data-name="Path 426" d="M498.521,421.185a4.035,4.035,0,0,1-.4,1.94,1.822,1.822,0,0,1-3.2.025,4.78,4.78,0,0,1-.038-3.866,1.834,1.834,0,0,1,3.218-.025,4.045,4.045,0,0,1,.419,1.926m-.991,0a3.972,3.972,0,0,0-.178-1.244q-.265-.754-.852-.75-.6,0-.848.755a3.867,3.867,0,0,0-.166,1.254q.016,2.016,1.045,2.009.594,0,.84-.771a3.985,3.985,0,0,0,.158-1.254" transform="translate(193.959 105.066)" fill="#fff"/>
    <path id="Path_427" data-name="Path 427" d="M505.678,421.129a4.017,4.017,0,0,1-.4,1.94,1.822,1.822,0,0,1-3.2.025,4.782,4.782,0,0,1-.038-3.867,1.835,1.835,0,0,1,3.218-.025,4.041,4.041,0,0,1,.419,1.927m-.992,0a3.986,3.986,0,0,0-.177-1.244q-.265-.754-.852-.75-.6,0-.848.756a3.86,3.86,0,0,0-.166,1.254q.016,2.017,1.045,2.009.594,0,.84-.77a3.982,3.982,0,0,0,.158-1.254" transform="translate(191.239 105.087)" fill="#fff"/>
    <path id="Path_428" data-name="Path 428" d="M516.525,421.044a4.019,4.019,0,0,1-.4,1.94,1.822,1.822,0,0,1-3.2.025,4.78,4.78,0,0,1-.038-3.866,1.834,1.834,0,0,1,3.218-.025,4.039,4.039,0,0,1,.419,1.926m-.992,0a3.993,3.993,0,0,0-.177-1.244c-.177-.5-.461-.753-.853-.75s-.684.255-.848.755a3.868,3.868,0,0,0-.166,1.254q.016,2.016,1.046,2.009.594,0,.84-.771a3.984,3.984,0,0,0,.158-1.254" transform="translate(187.119 105.12)" fill="#fff"/>
    <path id="Path_429" data-name="Path 429" d="M523.682,420.989a4.014,4.014,0,0,1-.4,1.94,1.822,1.822,0,0,1-3.2.025,4.782,4.782,0,0,1-.038-3.867,1.835,1.835,0,0,1,3.218-.025,4.048,4.048,0,0,1,.419,1.926m-.991,0a3.993,3.993,0,0,0-.177-1.244q-.265-.754-.853-.75-.6,0-.848.756a3.863,3.863,0,0,0-.166,1.254q.016,2.017,1.046,2.01.594,0,.84-.771a3.983,3.983,0,0,0,.158-1.254" transform="translate(184.399 105.141)" fill="#fff"/>
    <path id="Path_430" data-name="Path 430" d="M530.839,420.933a4.028,4.028,0,0,1-.4,1.94,1.822,1.822,0,0,1-3.2.025,4.782,4.782,0,0,1-.038-3.866,1.834,1.834,0,0,1,3.218-.025,4.038,4.038,0,0,1,.419,1.926m-.991,0a3.973,3.973,0,0,0-.178-1.244q-.264-.754-.852-.75t-.848.755a3.858,3.858,0,0,0-.165,1.255q.016,2.017,1.045,2.009.6,0,.841-.771a3.98,3.98,0,0,0,.158-1.254" transform="translate(181.679 105.162)" fill="#fff"/>
    <path id="Path_431" data-name="Path 431" d="M538,420.878a4.029,4.029,0,0,1-.4,1.94,1.822,1.822,0,0,1-3.2.025,4.783,4.783,0,0,1-.038-3.867,1.835,1.835,0,0,1,3.218-.025,4.047,4.047,0,0,1,.419,1.926m-.991,0a3.989,3.989,0,0,0-.177-1.244q-.265-.754-.853-.75t-.848.756a3.861,3.861,0,0,0-.165,1.254q.016,2.016,1.045,2.009.594-.006.84-.771a3.981,3.981,0,0,0,.158-1.254" transform="translate(178.961 105.183)" fill="#fff"/>
    <path id="Path_432" data-name="Path 432" d="M548.843,420.793a4.018,4.018,0,0,1-.4,1.94,1.822,1.822,0,0,1-3.2.025,4.788,4.788,0,0,1-.038-3.866,1.835,1.835,0,0,1,3.218-.025,4.042,4.042,0,0,1,.419,1.927m-.991,0a3.971,3.971,0,0,0-.178-1.244q-.265-.754-.852-.75-.6,0-.848.756a3.839,3.839,0,0,0-.166,1.254q.016,2.016,1.045,2.009.6-.006.84-.771a3.955,3.955,0,0,0,.159-1.254" transform="translate(174.84 105.215)" fill="#fff"/>
    <path id="Path_433" data-name="Path 433" d="M556,420.737a4.025,4.025,0,0,1-.4,1.94,1.822,1.822,0,0,1-3.2.025,4.78,4.78,0,0,1-.038-3.866,1.835,1.835,0,0,1,3.218-.025,4.048,4.048,0,0,1,.418,1.927m-.99,0a3.986,3.986,0,0,0-.179-1.244q-.265-.754-.852-.75-.6,0-.848.755a3.829,3.829,0,0,0-.166,1.254q.016,2.016,1.045,2.009.594-.006.841-.771a4.017,4.017,0,0,0,.158-1.254" transform="translate(172.12 105.236)" fill="#fff"/>
    <path id="Path_434" data-name="Path 434" d="M563.158,420.682a4.018,4.018,0,0,1-.4,1.94,1.822,1.822,0,0,1-3.2.025,4.781,4.781,0,0,1-.038-3.866,1.835,1.835,0,0,1,3.218-.025,4.036,4.036,0,0,1,.419,1.926m-.992,0a3.973,3.973,0,0,0-.177-1.244q-.265-.754-.852-.75-.6,0-.848.755a3.856,3.856,0,0,0-.165,1.255q.016,2.016,1.045,2.009.6,0,.841-.771a3.959,3.959,0,0,0,.158-1.254" transform="translate(169.401 105.257)" fill="#fff"/>
    <path id="Path_435" data-name="Path 435" d="M570.316,420.626a4.028,4.028,0,0,1-.4,1.94,1.822,1.822,0,0,1-3.2.025,4.782,4.782,0,0,1-.038-3.867,1.835,1.835,0,0,1,3.218-.025,4.039,4.039,0,0,1,.419,1.927m-.991,0a4,4,0,0,0-.177-1.244q-.265-.754-.852-.75-.6.005-.849.755a3.872,3.872,0,0,0-.166,1.255q.016,2.016,1.045,2.009.594-.006.84-.771a3.961,3.961,0,0,0,.158-1.254" transform="translate(166.682 105.279)" fill="#fff"/>
    <path id="Path_436" data-name="Path 436" d="M581.162,420.542a4.025,4.025,0,0,1-.4,1.94,1.822,1.822,0,0,1-3.2.025,4.78,4.78,0,0,1-.038-3.866,1.835,1.835,0,0,1,3.218-.025,4.039,4.039,0,0,1,.419,1.926m-.991,0a4,4,0,0,0-.177-1.244q-.266-.754-.853-.75-.6,0-.848.755a3.873,3.873,0,0,0-.166,1.255q.016,2.016,1.045,2.009.6-.006.84-.771a3.964,3.964,0,0,0,.158-1.254" transform="translate(162.56 105.31)" fill="#fff"/>
    <path id="Path_437" data-name="Path 437" d="M588.32,420.486a4.021,4.021,0,0,1-.4,1.94,1.822,1.822,0,0,1-3.2.025,4.781,4.781,0,0,1-.038-3.866,1.835,1.835,0,0,1,3.218-.025,4.039,4.039,0,0,1,.419,1.927m-.991,0a3.993,3.993,0,0,0-.177-1.244q-.265-.754-.852-.75-.6,0-.849.755a3.861,3.861,0,0,0-.166,1.254q.016,2.016,1.045,2.009.6,0,.84-.771a3.978,3.978,0,0,0,.158-1.254" transform="translate(159.841 105.332)" fill="#fff"/>
    <path id="Path_438" data-name="Path 438" d="M595.477,420.43a4.024,4.024,0,0,1-.4,1.94,1.822,1.822,0,0,1-3.2.025,4.781,4.781,0,0,1-.038-3.866,1.834,1.834,0,0,1,3.218-.025,4.038,4.038,0,0,1,.419,1.926m-.991,0a3.976,3.976,0,0,0-.177-1.244q-.265-.754-.852-.75-.6,0-.849.755a3.869,3.869,0,0,0-.166,1.254q.016,2.017,1.045,2.009.595,0,.84-.771a3.988,3.988,0,0,0,.158-1.254" transform="translate(157.121 105.353)" fill="#fff"/>
    <path id="Path_439" data-name="Path 439" d="M602.634,420.374a4.015,4.015,0,0,1-.4,1.94,1.822,1.822,0,0,1-3.2.025,4.787,4.787,0,0,1-.038-3.866,1.835,1.835,0,0,1,3.218-.025,4.04,4.04,0,0,1,.419,1.926m-.991,0a3.975,3.975,0,0,0-.177-1.244q-.265-.754-.852-.75-.6,0-.848.755a3.834,3.834,0,0,0-.166,1.255q.016,2.017,1.045,2.009.6-.006.841-.771a3.982,3.982,0,0,0,.158-1.254" transform="translate(154.402 105.374)" fill="#fff"/>
    <path id="Path_440" data-name="Path 440" d="M502.8,396.876l-21.152.164a1.663,1.663,0,1,1-.026-3.325l21.152-.164a1.662,1.662,0,1,1,.026,3.325" transform="translate(199.477 114.476)" fill="#fff"/>
    <path id="Path_441" data-name="Path 441" d="M613.731,394.442a2.543,2.543,0,0,0-.574-1.593.273.273,0,0,0-.407-.017l-.1.1a.27.27,0,0,0-.018.357,1.867,1.867,0,0,1,.018,2.321.27.27,0,0,0,.024.357l.1.1a.272.272,0,0,0,.407-.024,2.545,2.545,0,0,0,.549-1.6" transform="translate(149.096 114.781)" fill="#fff"/>
    <path id="Path_442" data-name="Path 442" d="M615.713,393.825a3.905,3.905,0,0,0-1-2.584.271.271,0,0,0-.4,0l-.056.058a.273.273,0,0,0,0,.372,3.3,3.3,0,0,1,.033,4.34.273.273,0,0,0,.011.371l.056.056a.271.271,0,0,0,.4-.01,3.9,3.9,0,0,0,.96-2.6" transform="translate(148.483 115.387)" fill="#fff"/>
    <path id="Path_443" data-name="Path 443" d="M617.46,393.286a5.108,5.108,0,0,0-1.365-3.441.272.272,0,0,0-.4.37,4.573,4.573,0,0,1,.048,6.17.272.272,0,0,0,.4.364,5.111,5.111,0,0,0,1.312-3.462" transform="translate(147.937 115.917)" fill="#fff"/>
    <path id="Path_444" data-name="Path 444" d="M619.257,392.7a6.4,6.4,0,0,0-1.762-4.367.274.274,0,0,0-.394,0l-.1.1a.271.271,0,0,0,0,.374,5.739,5.739,0,0,1,.061,7.825.271.271,0,0,0,.007.374l.1.1a.273.273,0,0,0,.395-.009,6.4,6.4,0,0,0,1.694-4.394" transform="translate(147.442 116.49)" fill="#fff"/>
    <path id="Path_445" data-name="Path 445" d="M482.441,463.269a1.943,1.943,0,0,1-.191.936.879.879,0,0,1-1.545.012,2.307,2.307,0,0,1-.018-1.865.885.885,0,0,1,1.552-.012,1.959,1.959,0,0,1,.2.929m-.478,0a1.928,1.928,0,0,0-.086-.6c-.086-.242-.222-.363-.411-.362s-.331.123-.409.365a1.857,1.857,0,0,0-.08.6q.007.973.5.969c.192,0,.326-.125.406-.372a1.923,1.923,0,0,0,.076-.605" transform="translate(199.275 88.513)" fill="#fff"/>
    <path id="Path_446" data-name="Path 446" d="M485.893,463.242a1.942,1.942,0,0,1-.191.936.879.879,0,0,1-1.545.012,2.307,2.307,0,0,1-.018-1.865.885.885,0,0,1,1.552-.012,1.951,1.951,0,0,1,.2.929m-.478,0a1.926,1.926,0,0,0-.086-.6c-.086-.242-.222-.363-.411-.362s-.33.123-.409.365a1.851,1.851,0,0,0-.08.6q.008.973.5.969.287,0,.406-.372a1.915,1.915,0,0,0,.076-.6" transform="translate(197.964 88.523)" fill="#fff"/>
    <path id="Path_447" data-name="Path 447" d="M488.726,462.007a.311.311,0,0,1-.038.128l-1.1,2.316q-.081.17-.213.171a.186.186,0,0,1-.138-.055.176.176,0,0,1-.058-.135.288.288,0,0,1,.032-.133l1.1-2.311q.08-.167.208-.167a.207.207,0,0,1,.142.05.175.175,0,0,1,.059.135" transform="translate(196.737 88.537)" fill="#fff"/>
    <path id="Path_448" data-name="Path 448" d="M491.706,463.2a1.942,1.942,0,0,1-.191.936.879.879,0,0,1-1.545.012,2.306,2.306,0,0,1-.018-1.865.884.884,0,0,1,1.552-.012,1.945,1.945,0,0,1,.2.929m-.478,0a1.923,1.923,0,0,0-.086-.6q-.129-.365-.411-.362c-.193,0-.331.123-.409.365a1.852,1.852,0,0,0-.08.6q.007.974.5.97c.192,0,.326-.126.406-.372a1.92,1.92,0,0,0,.076-.605" transform="translate(195.755 88.541)" fill="#fff"/>
    <path id="Path_449" data-name="Path 449" d="M495.158,463.17a1.934,1.934,0,0,1-.192.936.879.879,0,0,1-1.545.012,2.307,2.307,0,0,1-.018-1.865.885.885,0,0,1,1.552-.012,1.959,1.959,0,0,1,.2.93m-.478,0a1.926,1.926,0,0,0-.086-.6q-.128-.364-.411-.361t-.409.365a1.854,1.854,0,0,0-.08.6q.007.973.5.969c.192,0,.326-.125.406-.372a1.911,1.911,0,0,0,.076-.6" transform="translate(194.443 88.551)" fill="#fff"/>
    <path id="Path_450" data-name="Path 450" d="M498.61,463.143a1.941,1.941,0,0,1-.191.936.879.879,0,0,1-1.545.012,2.305,2.305,0,0,1-.018-1.864.885.885,0,0,1,1.552-.012,1.945,1.945,0,0,1,.2.929m-.478,0a1.93,1.93,0,0,0-.086-.6q-.129-.364-.411-.362t-.409.365a1.856,1.856,0,0,0-.08.6q.008.973.5.969c.192,0,.326-.125.406-.372a1.917,1.917,0,0,0,.076-.6" transform="translate(193.133 88.561)" fill="#fff"/>
    <path id="Path_451" data-name="Path 451" d="M502.062,463.116a1.942,1.942,0,0,1-.191.936.879.879,0,0,1-1.545.012,2.306,2.306,0,0,1-.018-1.865.885.885,0,0,1,1.552-.012,1.95,1.95,0,0,1,.2.929m-.478,0a1.927,1.927,0,0,0-.086-.6q-.128-.364-.411-.361c-.193,0-.33.123-.409.365a1.856,1.856,0,0,0-.08.6q.007.974.5.969c.192,0,.326-.125.406-.372a1.911,1.911,0,0,0,.076-.6" transform="translate(191.821 88.571)" fill="#fff"/>
    <path id="Path_452" data-name="Path 452" d="M198.586,251.588a61.022,61.022,0,1,1,68.38,52.643,61.021,61.021,0,0,1-68.38-52.643" transform="translate(306.581 194.589)" fill="#e2810e"/>
    <path id="Path_453" data-name="Path 453" d="M190.073,252.695a61.021,61.021,0,1,1,68.38,52.643,61.021,61.021,0,0,1-68.38-52.643" transform="translate(309.815 194.169)" fill="#ffb93e"/>
    <path id="Path_454" data-name="Path 454" d="M261.225,304.434a55.6,55.6,0,1,1,36.885-21.217,55.232,55.232,0,0,1-36.885,21.217m-13.91-106.977a52.28,52.28,0,1,0,58.585,45.1,52.339,52.339,0,0,0-58.585-45.1" transform="translate(306.437 190.408)" fill="#ffa412"/>
    <path id="Path_455" data-name="Path 455" d="M283.85,273.164a9.174,9.174,0,0,0-.546-3.184,6.707,6.707,0,0,0-1.7-2.483,12.689,12.689,0,0,0-3.017-2.036,33.5,33.5,0,0,0-4.5-1.8,87.431,87.431,0,0,1-8.3-3.249,27.659,27.659,0,0,1-6.4-3.961,16.273,16.273,0,0,1-4.168-5.3,18.374,18.374,0,0,1-.319-13.969,15.458,15.458,0,0,1,3.655-5.3,19.291,19.291,0,0,1,5.739-3.709,25.737,25.737,0,0,1,7.523-1.874l-.1-9.227,7.427-.083.1,9.356a23.069,23.069,0,0,1,7.265,2.032,17.437,17.437,0,0,1,9.142,10.054,23.219,23.219,0,0,1,1.317,7.769l-13.414.151q-.059-5.174-2.385-7.714a7.852,7.852,0,0,0-6.18-2.5,9.981,9.981,0,0,0-3.59.623,6.758,6.758,0,0,0-2.466,1.622,6.3,6.3,0,0,0-1.412,2.41,9.268,9.268,0,0,0-.431,2.981,8.514,8.514,0,0,0,.5,2.883,6.287,6.287,0,0,0,1.629,2.375,12.709,12.709,0,0,0,3.04,2.036,43.034,43.034,0,0,0,4.688,1.953q4.52,1.631,8.231,3.358a28.009,28.009,0,0,1,6.382,4,15.716,15.716,0,0,1,5.711,12.551,16.8,16.8,0,0,1-1.246,6.827,15.268,15.268,0,0,1-3.678,5.259,18.629,18.629,0,0,1-5.786,3.6,27.78,27.78,0,0,1-7.57,1.81l.1,8.58-7.381.083-.1-8.538a31.116,31.116,0,0,1-7.469-1.6,19.74,19.74,0,0,1-6.425-3.658,17.66,17.66,0,0,1-4.525-6.095,21.5,21.5,0,0,1-1.771-8.863l13.415-.151a13.264,13.264,0,0,0,.916,5.1,8.582,8.582,0,0,0,2.335,3.252,8.309,8.309,0,0,0,3.292,1.688,14.194,14.194,0,0,0,3.742.453,11.882,11.882,0,0,0,3.823-.6,7.933,7.933,0,0,0,2.745-1.584,6.329,6.329,0,0,0,1.644-2.369,7.7,7.7,0,0,0,.524-2.96" transform="translate(286.314 181.56)" fill="#f0980a"/>
    <path id="Path_456" data-name="Path 456" d="M708.931,251.588a61.021,61.021,0,1,1,68.38,52.643,61.021,61.021,0,0,1-68.38-52.643" transform="translate(112.683 194.589)" fill="#e2810e"/>
    <path id="Path_457" data-name="Path 457" d="M700.418,252.695a61.022,61.022,0,1,1,68.38,52.643,61.021,61.021,0,0,1-68.38-52.643" transform="translate(115.917 194.169)" fill="#ffb93e"/>
    <path id="Path_458" data-name="Path 458" d="M786.794,236.431a24.836,24.836,0,0,1,14.468,4.8l2.808,1.975V228.4l-1.01-.486a35.979,35.979,0,0,0-15.71-3.324c-10.626,0-19.255,3.439-25.648,10.221a33.934,33.934,0,0,0-8.061,14.71h-9.588v11h8.083c-.009.427-.023.851-.023,1.284,0,.54.013,1.071.03,1.6h-8.09v11h9.9a30.955,30.955,0,0,0,7.239,12.217c6.042,6.259,13.929,9.432,23.442,9.432a35.576,35.576,0,0,0,18.505-4.818l.869-.519V276.687l-2.856,2.154a24.654,24.654,0,0,1-15.037,5.318c-6.433,0-11.334-2.031-14.984-6.209a19.97,19.97,0,0,1-2.461-3.541H791v-11H765.7c-.052-.8-.083-1.623-.083-2.464,0-.143.013-.278.014-.42H791v-11H767.659a21.707,21.707,0,0,1,4.007-6.487,19.365,19.365,0,0,1,15.128-6.606" transform="translate(99.142 178.669)" fill="#f0980a"/>
    <path id="Path_459" data-name="Path 459" d="M771.57,304.434a55.6,55.6,0,1,1,36.885-21.217,55.232,55.232,0,0,1-36.885,21.217M757.66,197.458a52.28,52.28,0,1,0,58.585,45.1,52.34,52.34,0,0,0-58.585-45.1" transform="translate(112.538 190.408)" fill="#ffa412"/>
    <path id="Path_460" data-name="Path 460" d="M604.17,117.286,601.3,77.41l-13.635,10.7a164.855,164.855,0,0,0-55.434-38.622,179.349,179.349,0,0,0-33.663-10.647,188.325,188.325,0,0,0-35.206-4.011A192.652,192.652,0,0,0,389.5,48a187.464,187.464,0,0,0-34.072,17.537,183.434,183.434,0,0,0-28.372,22.849L314.1,78.133,311.029,118l44.816-6.81L342.856,100.9c31.5-30.911,75.088-48.09,120.04-47.207,42.861.841,81.423,17.461,108.9,46.863l-12.41,9.739Z" transform="translate(263.663 250.781)" fill="#5f19e1"/>
    <path id="Path_481" data-name="Path 481" d="M890.488,490.446s-5.283,3-6.763,3-7.286-1.123-8.9-.3a18.909,18.909,0,0,0-5.1,5.242c-.989,1.955,3.979,1.091,6.327-.574a1.481,1.481,0,0,1,1.173-.242c1.216.265,3.743.724,4.962.273,1.641-.607,10.282-1.282,10.282-1.282Z" transform="translate(51.445 77.662)" fill="#ed975d"/>
    <path id="Path_482" data-name="Path 482" d="M940.067,421.117s-5.478,38.933-14.548,42.419c-4.476,1.721-24.255,5.621-30.107,6.013,0,0-1.433-1.163-1.084-5.9,0,0,20.723-7.608,23.667-11.746,4.381-6.157-2.72-25.156,2.778-30.939s14.758-8.269,19.293.149" transform="translate(42.068 106.068)" fill="#ed7d2b"/>
    <path id="Path_483" data-name="Path 483" d="M879.844,663.653s-.569,9.176-2.344,9.308c-.236.017-9,.017-9,.017l-11.193-.065a3.631,3.631,0,0,1,3.344-3.267c3.271-.57,8.748-2.87,10.73-7.194,2.085-4.549,8.466,1.2,8.466,1.2" transform="translate(56.115 12.976)" fill="#163560"/>
    <path id="Path_484" data-name="Path 484" d="M931.386,542.721a68.235,68.235,0,0,1-5.351,7.656c-5.887,7.432-12.3,13.56-13.412,19.353a26.234,26.234,0,0,1-1.035,3.708c-.467,1.326-1.043,2.721-1.707,4.164a128.38,128.38,0,0,1-9.965,17.034c-6.448,9.555-12.512,17.528-12.512,17.528-4.306.5-9.948.431-11.12-.474.444-1.114,5.3-14.307,11.783-30.431,2.635-6.545,5.436-13.507,8.14-20.221q.539-1.345,1.076-2.674c.827-2.055,1.64-4.078,2.434-6.047,6.092-15.14,10.945-27.194,10.945-27.194s24.349-9.224,26.878-3.247c2.085,4.928.387,9.756-6.153,20.845" transform="translate(48.902 66.486)" fill="#eb2c60"/>
    <path id="Path_485" data-name="Path 485" d="M909.649,624.633s7.735,4.97,6.985,6.584c-.1.215-4.375,7.87-4.375,7.87l-5.513,9.741a3.632,3.632,0,0,1-1.222-4.513c1.1-3.134,1.759-9.037-1.05-12.876-2.955-4.039,5.176-6.807,5.176-6.807" transform="translate(38.438 26.68)" fill="#163560"/>
    <path id="Path_486" data-name="Path 486" d="M888.837,594.457s4.528.26,8.309-7.442c0,0-7.278-24.9-11.6-30.247-.2-.245-.147-.515.114-.81,3.262-3.678,39.5-11.154,44.24-18.524a22.827,22.827,0,0,0,3.061-7.056,16.677,16.677,0,0,0,.224-7.6l-36.194-1.047s-30.052,18.787-33.549,31.558c-2.081,7.6,25.394,41.171,25.394,41.171" transform="translate(53.824 65.777)" fill="#eb2c60"/>
    <path id="Path_487" data-name="Path 487" d="M899.343,556.969c3.262-3.678,39.5-11.155,44.24-18.524a22.806,22.806,0,0,0,3.061-7.056v-4.58l-15.383-2.42s-4.363,13.424-17.282,18.458c-12.1,4.715-14.393,13.081-14.635,14.123" transform="translate(40.142 64.766)" fill="#eb2c60"/>
    <path id="Path_488" data-name="Path 488" d="M933.589,410.139c7.322,1.892,19.461-4.891,19.461-4.891a17.971,17.971,0,0,1-6.461-10.126c-.089-.351-.168-.71-.239-1.079l-3.761-.8L937,398.256a48.207,48.207,0,0,0,.827,5.656q.181.937.421,2.007a17.243,17.243,0,0,0-4.656,4.22" transform="translate(27.131 114.592)" fill="#ffb27d"/>
    <path id="Path_489" data-name="Path 489" d="M954.4,446.067c-1.049,14.106.331,35.559-.859,39.275-1.027,3.206-12.726,1.3-17.4.229-1.728-.4-3.822-.962-5.984-1.631-6.031-1.868-12.6-4.534-13.308-6.514a1.682,1.682,0,0,1-.065-.228,1.81,1.81,0,0,1,.013-.83c.235-1.009,1.141-2.1,1.248-4.6.119-2.79.1-6.075.206-9.607.005-.4.01-.832.054-1.228l0-.145c0-.076,0-.149.006-.226.1-3.94.307-8.082.545-12.189.152-2.58.328-5.135.53-7.583a101.444,101.444,0,0,1,2.173-15.491,24.873,24.873,0,0,1,7.991-12.336l2.225-1.91a12.869,12.869,0,0,0,8.076-1.075c2.875-1.365,3.867-2.343,4.368-1.974,6.639,5.122,11.413,20.817,10.175,38.062" transform="translate(33.529 109.014)" fill="#5f19e1"/>
    <path id="Path_490" data-name="Path 490" d="M930.191,497.159c-6.031-1.868-12.6-4.534-13.308-6.514a1.592,1.592,0,0,1-.065-.228c0-.277.007-.553.012-.83.235-1.009,1.141-2.1,1.248-4.6.12-2.79.1-6.075.206-9.608,0-.4.01-.831.054-1.227l0-.145c0-.076,0-.149.005-.226l24.383-31.065s16.39,34.131-12.538,54.442" transform="translate(33.503 95.796)" fill="#ed7d2b"/>
    <path id="Path_491" data-name="Path 491" d="M939.085,398.256a48.223,48.223,0,0,0,.827,5.656c5.462-1.765,7.939-6.7,8.766-8.791q-.133-.526-.24-1.079l-3.761-.8Z" transform="translate(25.043 114.592)" fill="#ed975d"/>
    <path id="Path_492" data-name="Path 492" d="M933.855,393.434s11.91-1.987,10.558-9.386-.725-12.636-8.386-11.68-8.619,4.048-8.768,6.627,3.464,14.766,6.6,14.439" transform="translate(29.537 122.567)" fill="#ffb27d"/>
    <path id="Path_493" data-name="Path 493" d="M885.512,489.609l-29.732.635-8.282-25.49a.552.552,0,1,0-1.051.341l8.608,26.492a.686.686,0,0,0,.667.474l29.829-.637Z" transform="translate(60.249 87.568)" fill="#4a75cb"/>
    <path id="Path_494" data-name="Path 494" d="M895.6,506.955s-9.748,2.57-13.4,2.3-6.7-2.008-7.156-2.916-1.426-2.517,1.062-2.22,5.887.826,5.992.348-2.029-.433-2.029-.433-.645-.938.167-.972,3.181-.677,4.061-.236,1.692,2.064,2.336,2,8.157-3.385,8.157-3.385Z" transform="translate(49.595 73.486)" fill="#ffb27d"/>
    <path id="Path_495" data-name="Path 495" d="M939.247,424.246s-1.152,39.3-9.783,43.765c-4.259,2.2-23.488,8.26-29.26,9.295,0,0-1.553-1-1.728-5.74,0,0,19.758-9.847,22.227-14.283,3.677-6.6-5.476-24.7-.65-31.057s13.756-9.845,19.192-1.979" transform="translate(40.471 104.536)" fill="#5f19e1"/>
    <path id="Path_496" data-name="Path 496" d="M941.446,384.087a5.636,5.636,0,0,0-1.429-3.993s.545-2.545-.462-2.964-1.216,1.72-1.677,1.385a10.275,10.275,0,0,1-3.4-4.278c-.881-2.349-8.943.5-9.883.919s-3.96-1.129-4.547-2.387a17.685,17.685,0,0,0,2.433-2.349c.755-1.006,6.04-7.8,13.423-5.873s8.39,5.453,7.97,8.474.594,10.054-2.429,11.067" transform="translate(32.275 125.626)" fill="#2b478b"/>
    <path id="Path_497" data-name="Path 497" d="M981.743,566.393H925.687a2.052,2.052,0,0,1-2.047-2.047v-11.64a2.052,2.052,0,0,1,2.047-2.046h56.056a2.052,2.052,0,0,1,2.047,2.046v11.64a2.053,2.053,0,0,1-2.047,2.047" transform="translate(30.911 54.785)" fill="#f99746"/>
    <path id="Path_498" data-name="Path 498" d="M932.32,576.033l-.882,4.162-12.76,60.26c-.036.209-.324.37-.668.37-.655,0-1.165-.35-1.1-.753l10.12-61.708.383-2.331Z" transform="translate(33.468 45.145)" fill="#efcbab"/>
    <path id="Path_499" data-name="Path 499" d="M938.525,576.033l-.882,4.162c-.605-1.658-4.4-1.831-4.4-1.831l.383-2.331Z" transform="translate(27.263 45.145)" fill="#cca07f"/>
    <path id="Path_500" data-name="Path 500" d="M1017.739,640.824c-.344,0-.631-.16-.667-.37l-12.76-60.26-.551-2.6-.331-1.566h4.9l.383,2.331.3,1.829,9.82,59.88c.069.4-.441.752-1.1.752" transform="translate(0.595 45.145)" fill="#efcbab"/>
    <path id="Path_501" data-name="Path 501" d="M1009.014,580.193c-1.247-1.984-5.251-2.593-5.251-2.593l0,0-.332-1.566h4.9l.383,2.331Z" transform="translate(0.595 45.145)" fill="#cca07f"/>
    <path id="Path_502" data-name="Path 502" d="M676.684,681.587H1.4a.736.736,0,0,1-.734-.734v-.176a.736.736,0,0,1,.734-.734H676.684a.736.736,0,0,1,.733.734v.176a.736.736,0,0,1-.734.734" transform="translate(381.582 5.665)" fill="#2e3552"/>
    <path id="Path_503" data-name="Path 503" d="M555.291,516.121H510.222a2.35,2.35,0,0,1-2.35-2.35V500.743a2.35,2.35,0,0,1,2.35-2.35h45.069a2.35,2.35,0,0,1,2.35,2.35v13.028a2.35,2.35,0,0,1-2.35,2.35" transform="translate(188.876 74.643)" fill="#ebf3fa"/>
    <text id="Yey_" data-name="Yey!" transform="translate(685.968 454.622)" fill="#eb2c60" font-size="23" font-family="Helvetica"><tspan x="0" y="0" letter-spacing="-0.049em">Y</tspan><tspan y="0" letter-spacing="0.059em">e</tspan><tspan y="0" letter-spacing="0.06em">y</tspan><tspan y="0">!</tspan></text>
  </g>
</svg>
