<svg xmlns="http://www.w3.org/2000/svg" width="26.815" height="26.815" viewBox="0 0 26.815 26.815">
  <path id="Icon_awesome-twitter-square" data-name="Icon awesome-twitter-square" d="M23.942,2.25H2.873A2.874,2.874,0,0,0,0,5.123V26.192a2.874,2.874,0,0,0,2.873,2.873H23.942a2.874,2.874,0,0,0,2.873-2.873V5.123A2.874,2.874,0,0,0,23.942,2.25Zm-2.927,9.5c.012.168.012.341.012.509A11.093,11.093,0,0,1,9.858,23.433a11.117,11.117,0,0,1-6.027-1.76,8.27,8.27,0,0,0,.946.048,7.871,7.871,0,0,0,4.872-1.676A3.931,3.931,0,0,1,5.98,17.321a4.231,4.231,0,0,0,1.772-.072,3.926,3.926,0,0,1-3.142-3.855v-.048a3.923,3.923,0,0,0,1.772.5,3.917,3.917,0,0,1-1.748-3.268,3.877,3.877,0,0,1,.533-1.981A11.146,11.146,0,0,0,13.258,12.7a3.934,3.934,0,0,1,6.7-3.585,7.692,7.692,0,0,0,2.49-.946,3.915,3.915,0,0,1-1.724,2.161,7.812,7.812,0,0,0,2.263-.611A8.263,8.263,0,0,1,21.015,11.755Z" transform="translate(0 -2.25)" fill="#eb2c60"/>
</svg>
