<svg id="Group_228" data-name="Group 228" xmlns="http://www.w3.org/2000/svg" width="18.467" height="22.261" viewBox="0 0 18.467 22.261">
  <g id="Polygon_5" data-name="Polygon 5" transform="matrix(-0.052, 0.999, -0.999, -0.052, 18.467, 0.605)" fill="none">
    <path d="M10.843,0,21.685,11.565H0Z" stroke="none"/>
    <path d="M 10.84262084960938 1.462117195129395 L 2.308235168457031 10.56546115875244 L 19.37700653076172 10.56546115875244 L 10.84262084960938 1.462117195129395 M 10.84262084960938 9.5367431640625e-07 L 21.68524169921875 11.56546115875244 L 0 11.56546115875244 L 10.84262084960938 9.5367431640625e-07 Z" stroke="none" fill="#000"/>
  </g>
  <g id="Polygon_4" data-name="Polygon 4" transform="matrix(-0.052, 0.999, -0.999, -0.052, 12.685, 0.605)" fill="#fff">
    <path d="M 20.53112411499023 11.06546115875244 L 1.154117822647095 11.06546115875244 L 10.84262084960938 0.7310590147972107 L 20.53112411499023 11.06546115875244 Z" stroke="none"/>
    <path d="M 10.84262084960938 1.462117195129395 L 2.308235168457031 10.56546115875244 L 19.37700653076172 10.56546115875244 L 10.84262084960938 1.462117195129395 M 10.84262084960938 9.5367431640625e-07 L 21.68524169921875 11.56546115875244 L 0 11.56546115875244 L 10.84262084960938 9.5367431640625e-07 Z" stroke="none" fill="#000"/>
  </g>
</svg>
