<svg xmlns="http://www.w3.org/2000/svg" width="26.26" height="26.26" viewBox="0 0 26.26 26.26">
  <path id="Icon_metro-youtube" data-name="Icon metro-youtube" d="M10.089,1.928,8.315,5.447,6.541,1.928H4.278L7.476,7.5l.019-.011v4.286H9.136V7.49l.019.011,3.2-5.573ZM14.88,5.211a.832.832,0,0,1,.821.821V9.314a.821.821,0,0,1-1.641,0V6.031a.832.832,0,0,1,.821-.821Zm0-1.641a2.469,2.469,0,0,0-2.462,2.462V9.314a2.462,2.462,0,0,0,4.924,0V6.031A2.469,2.469,0,0,0,14.88,3.569Zm7.386,0v6.462c-.716.6-1.641.957-1.641-1.17V3.569H18.983V9.194h0c.025,1.357.311,3.8,3.28,1.813v.768h1.641V3.569H22.266Zm2.462,16.413a.822.822,0,0,0-.821.821v.821h1.641V20.8a.822.822,0,0,0-.821-.821Zm-7.386.821v4.308c.556.556,1.641.615,1.641-.205V21.059C18.983,20.238,18.163,19.982,17.342,20.8ZM28.7,16.842a3.413,3.413,0,0,0-3.356-3.291c-1.79-.089-5.884-.134-9.481-.134s-7.983.045-9.773.134a3.413,3.413,0,0,0-3.356,3.291c-.107,1.926-.161,2.625-.161,3.588s.054,2.408.161,4.334a3.413,3.413,0,0,0,3.356,3.291c1.79.089,6.176.134,9.773.134s7.692-.045,9.481-.134A3.413,3.413,0,0,0,28.7,24.764q.134-2.408.134-4.334c0-1.284-.045-1.983-.134-3.588Zm-21.2,9.706H5.853V18.341H4.212V16.7H9.136v1.641H7.495Zm6.565,0H12.418v-.768c-3.12,1.751-3.255.056-3.28-1.3h0v-4.5h1.641V24.5c0,.992.925.9,1.641.3v-4.82H14.06Zm6.565-1.665c0,1.715-1.757,2.216-3.283.882v.783H15.7V16.7h1.641v2.667c1.641-1.641,3.283-1.026,3.283.615Zm6.565-3.259v.821H23.907v1.641a.821.821,0,0,0,1.641,0v-.821H27.19v.821a2.462,2.462,0,0,1-4.924,0V20.8a2.462,2.462,0,0,1,4.924,0v.821Z" transform="translate(-2.571 -1.928)" fill="#eb2c60"/>
</svg>
