<svg xmlns="http://www.w3.org/2000/svg" xmlns:xlink="http://www.w3.org/1999/xlink" width="37.076" height="37.644" viewBox="0 0 37.076 37.644">
  <defs>
    <clipPath id="clip-path">
      <rect id="Rectangle_268" data-name="Rectangle 268" width="37.076" height="37.644" transform="translate(0 0)" fill="#5f19e1"/>
    </clipPath>
  </defs>
  <g id="Group_554" data-name="Group 554" transform="translate(0 0)">
    <g id="Group_491" data-name="Group 491" clip-path="url(#clip-path)">
      <path id="Path_876" data-name="Path 876" d="M34.323,24.551a2.925,2.925,0,0,0-2.944-.409c-.41.162-.8.234-.989-.248s.179-.7.56-.86a4.12,4.12,0,0,1,4.532.984c.624.666.591,1-.21,1.405q-6.719,3.405-13.448,6.787c-.239.12-.482.231-.865.414l11.564,3.7a1.572,1.572,0,0,0-1.049-1.851,13.4,13.4,0,0,1-1.52-.539c-.23-.123-.325-.5-.482-.761.287-.111.6-.358.856-.306a8.755,8.755,0,0,1,1.806.611,2.843,2.843,0,0,1,1.529,3.445c-.221.708-.485.85-1.2.623q-6.792-2.169-13.585-4.337a2.558,2.558,0,0,0-.992-.22,5.75,5.75,0,0,1-3.217-.8c-3.2-1.547-6.419-3.05-9.616-4.6a4.393,4.393,0,0,0-2.251-.506,12.118,12.118,0,0,1-2.13-.022c-.244-.028-.451-.382-.676-.588.219-.186.429-.522.656-.534,1.126-.055,2.256-.044,3.384-.012a2.215,2.215,0,0,1,.822.281c3.743,1.772,7.48,3.557,11.228,5.318a3.629,3.629,0,0,0,1.119.262,8.542,8.542,0,0,0,5.075-1.062c3.865-2.017,7.771-3.956,11.66-5.928.1-.053.2-.126.379-.241" fill="#5f19e1"/>
      <path id="Path_877" data-name="Path 877" d="M25.89,1.484c-.868,1.15-1.649,2.184-2.427,3.218-.133.177-.22.437-.394.52a3.124,3.124,0,0,1-.84.15c-.04-.265-.212-.628-.1-.781q1.63-2.22,3.352-4.372c.292-.365.665-.234.94.1a40.075,40.075,0,0,1,5.966,8.962,6.863,6.863,0,0,1-2.305,8.186,7.058,7.058,0,0,1-8.55-.139,6.8,6.8,0,0,1-2.007-8.321c.185-.377.371-.759.86-.56.533.217.4.644.215,1.052a5.322,5.322,0,0,0,.954,6.2,5.486,5.486,0,0,0,6.013,1.7,5.732,5.732,0,0,0,4.148-4.78A4.282,4.282,0,0,0,31.255,9.7c-1.037-1.855-2.14-3.676-3.283-5.467-.589-.923-1.322-1.753-2.082-2.745" fill="#5f19e1"/>
      <path id="Path_878" data-name="Path 878" d="M29.039,21.863a1.753,1.753,0,0,0-1.96.2A34.845,34.845,0,0,0,24,24.321c-1.483,1.331-3.352,1.216-5.1,1.56-.224.044-.5-.146-.746-.251-2.113-.908-4.211-1.854-6.344-2.714-.715-.289-1.528-.328-2.274-.554-.268-.081-.634-.356-.666-.583-.064-.45.331-.645.74-.565a16.037,16.037,0,0,1,2.78.65c2.027.794,4,1.717,6.013,2.556a2.069,2.069,0,0,0,1.105.162,10.148,10.148,0,0,0,3.018-.754,35.82,35.82,0,0,0,3.835-2.712,3.109,3.109,0,0,1,3.82.027c.469.381.6.766.1,1.215-2.085,1.892-4.166,3.791-6.266,5.667a1.84,1.84,0,0,1-.8.323c-1.5.345-3.014.663-4.518,1.007-.445.1-.886.158-1.007-.39-.125-.566.338-.672.764-.766,1.435-.316,2.871-.632,4.3-.964a1.685,1.685,0,0,0,.727-.308c1.781-1.572,3.545-3.164,5.311-4.753a2.486,2.486,0,0,0,.245-.311" fill="#5f19e1"/>
      <path id="Path_879" data-name="Path 879" d="M35.477,29.649a2.645,2.645,0,0,0-2.362-.883c-.463.053-.882.064-.939-.5-.053-.528.381-.609.783-.673a4.023,4.023,0,0,1,3.961,1.985c.293.558.181.9-.426,1.048-3.258.783-6.519,1.557-9.789,2.289a.9.9,0,0,1-.759-.434c-.156-.433.209-.623.611-.717q3.681-.859,7.357-1.735c.491-.116.981-.237,1.563-.377" fill="#5f19e1"/>
      <path id="Path_880" data-name="Path 880" d="M11.076,18.333c.323.072.491.1.656.147a11.846,11.846,0,0,1,4.33,2.106q1.161.9,2.335,1.785c.339.257.626.554.293.973s-.691.215-1.027-.044c-.524-.4-1.07-.78-1.577-1.2a12.211,12.211,0,0,0-4.835-2.545,1.1,1.1,0,0,1-.6-.674c-.044-.131.3-.391.427-.545" fill="#5f19e1"/>
      <path id="Path_881" data-name="Path 881" d="M6.2,17.872c.347.27.781.436.846.694.139.556-.357.615-.785.707-1.574.337-3.142.7-4.711,1.06-.237.055-.477.236-.694.2a3.3,3.3,0,0,1-.834-.36c.149-.245.251-.649.455-.71,1.867-.557,3.752-1.055,5.723-1.6" fill="#5f19e1"/>
      <path id="Path_882" data-name="Path 882" d="M30.632,11.743a5.031,5.031,0,0,1-1.891,3.777c-.329.26-.723.367-.927-.05a.928.928,0,0,1,.2-.849,3.823,3.823,0,0,0,1.4-2.718c.025-.412.154-.809.606-.716.275.057.484.435.607.556" fill="#5f19e1"/>
      <path id="Path_883" data-name="Path 883" d="M22.162,6.862c-.417.3-.643.577-.875.58-.182,0-.507-.328-.517-.524a.728.728,0,0,1,.476-.554c.229-.017.477.242.916.5" fill="#5f19e1"/>
      <path id="Path_884" data-name="Path 884" d="M26.743,15.875c-.4.286-.622.571-.848.572-.192,0-.385-.326-.578-.508.194-.2.361-.521.591-.577.174-.043.429.248.835.513" fill="#5f19e1"/>
      <path id="Path_885" data-name="Path 885" d="M9.721,18.588c-.4.291-.633.594-.8.561-.238-.046-.426-.345-.635-.536.182-.2.354-.532.55-.547.222-.017.466.256.89.522" fill="#5f19e1"/>
    </g>
  </g>
</svg>
