<svg xmlns="http://www.w3.org/2000/svg" xmlns:xlink="http://www.w3.org/1999/xlink" width="36.25" height="35.73" viewBox="0 0 36.25 35.73">
  <defs>
    <clipPath id="clip-path">
      <rect id="Rectangle_271" data-name="Rectangle 271" width="36.25" height="35.73" fill="#5f19e1"/>
    </clipPath>
  </defs>
  <g id="Group_557" data-name="Group 557" transform="translate(0 0)">
    <g id="Group_497" data-name="Group 497" transform="translate(0 0)" clip-path="url(#clip-path)">
      <path id="Path_901" data-name="Path 901" d="M11.151,36.53q-5.021,0-10.043,0c-1.011,0-1.1-.086-1.1-1.043,0-3.273-.011-6.547,0-9.82a8.211,8.211,0,0,1,8.226-8.176,60.542,60.542,0,0,1,7.235.166,7.988,7.988,0,0,1,6.882,7.7c.046,3.421,0,6.844.021,10.266,0,.68-.281.916-.951.913-3.423-.017-6.846-.009-10.269-.008M7.558,35.309c0-2.362.011-4.641-.008-6.918,0-.619.225-.926.874-.922q2.754.014,5.51,0c.644,0,.891.29.881.915-.022,1.487-.007,2.974-.007,4.461v2.443H16.32V20.593c0-1.784-.068-1.85-1.916-1.9-.043,0-.086.034-.2.082v.7c0,.644.014,1.289,0,1.932a3.018,3.018,0,0,1-6.032.009c-.024-.9,0-1.81,0-2.773-.446.061-.767.134-1.088.144-.808.027-1.062.361-1.054,1.2.05,4.833.025,9.666.025,14.5v.818ZM13.545,28.7H8.82v6.6h4.726Zm-8.732.025H1.265v6.552H4.814Zm12.764,6.554H21.1V28.7H17.578ZM4.787,27.439V19.681C2.224,20.844.677,24.32,1.312,27.439Zm16.289.014c.48-3.452-1.059-6.835-3.485-7.739v7.739ZM9.387,18.689c0,1.018-.053,1.978.016,2.931a1.755,1.755,0,0,0,1.7,1.511,1.7,1.7,0,0,0,1.816-1.354,28.492,28.492,0,0,0,.026-3.087Z" transform="translate(0 -0.808)" fill="#5f19e1"/>
      <path id="Path_902" data-name="Path 902" d="M26.174,31.62c0-1.215.036-2.432-.022-3.644a1.757,1.757,0,0,0-.468-1.07A6.512,6.512,0,0,1,27.175,16.5c.97-.524,1.342-.314,1.339.749,0,1.24.028,2.481-.013,3.72-.023.7.275.931.94.9.627-.031,1.259-.028,1.887,0s.914-.209.9-.867c-.034-1.289-.01-2.579-.011-3.868,0-.878.38-1.112,1.179-.721a6.478,6.478,0,0,1,1.75,10.341,1.881,1.881,0,0,0-.6,1.493c.026,2.381.013,4.761.009,7.143,0,.951-.138,1.086-1.078,1.088q-3.1,0-6.193,0c-.979,0-1.107-.131-1.109-1.131,0-1.24,0-2.48,0-3.721m7.171,3.634v-.892c0-2.307.01-4.613-.008-6.92a1.316,1.316,0,0,1,.535-1.138,5.262,5.262,0,0,0,.114-8.052,5.675,5.675,0,0,0-.562-.378c0,1.209.015,2.294,0,3.378a1.672,1.672,0,0,1-1.783,1.788c-.78.031-1.561.016-2.341.007-1.358-.017-1.981-.631-1.993-1.963-.009-1.032,0-2.064,0-3.212a5.77,5.77,0,0,0-.521.342,5.263,5.263,0,0,0-.016,8,1.605,1.605,0,0,1,.629,1.4c-.025,2.281-.012,4.564-.009,6.846,0,.261.022.523.034.794Z" transform="translate(-0.751 -0.75)" fill="#5f19e1"/>
      <path id="Path_903" data-name="Path 903" d="M18.806,6.253c.64,0,1.316,0,1.991,0,.474,0,1.063-.088,1.053.613-.011.642-.565.575-1.017.575-.93,0-1.858,0-2.9,0,0,.72,0,1.4,0,2.086A6.638,6.638,0,0,1,4.891,11.207a19.273,19.273,0,0,1-.254-3.317c-.008-.12-.016-.24-.028-.411a3.018,3.018,0,0,1-.827-.055c-.229-.082-.531-.275-.572-.465s.2-.441.335-.653c.107-.168.315-.3.356-.477a7.581,7.581,0,0,1,14.8.235,1.03,1.03,0,0,0,.1.191M16.777,7.5H5.848c0,.718-.007,1.384,0,2.049a5.421,5.421,0,0,0,4.9,5.323,5.361,5.361,0,0,0,5.83-4.282,24.528,24.528,0,0,0,.2-3.089m.681-1.281a6.292,6.292,0,0,0-12.326,0Z" transform="translate(-0.101 0)" fill="#5f19e1"/>
      <path id="Path_904" data-name="Path 904" d="M30.385,13.99c-3.138.034-5.568-3.4-4.017-6.088,1.025-1.773,2.312-3.4,3.508-5.073A.63.63,0,0,1,31,2.843,60.107,60.107,0,0,1,34.478,7.85c1.611,2.819-.955,6.249-4.093,6.14m.1-9.909a14.171,14.171,0,0,0-3.2,4.762,3.419,3.419,0,0,0,.024,1.732,3.276,3.276,0,0,0,4.167,2.067A3.082,3.082,0,0,0,33.58,8.764a16.686,16.686,0,0,0-3.1-4.683" transform="translate(-0.819 -0.115)" fill="#5f19e1"/>
    </g>
  </g>
</svg>
