<svg xmlns="http://www.w3.org/2000/svg" xmlns:xlink="http://www.w3.org/1999/xlink" width="38.932" height="37.321" viewBox="0 0 38.932 37.321">
  <defs>
    <clipPath id="clip-path">
      <rect id="Rectangle_273" data-name="Rectangle 273" width="38.932" height="37.321" fill="#5f19e1"/>
    </clipPath>
  </defs>
  <g id="Group_559" data-name="Group 559" transform="translate(57 63)">
    <g id="Group_501" data-name="Group 501" transform="translate(-57 -63)" clip-path="url(#clip-path)">
      <path id="Path_906" data-name="Path 906" d="M13.969,22.235a8.809,8.809,0,0,1,1.309-.549,2.417,2.417,0,0,1,.857.112c-.132.258-.2.626-.408.753a14.49,14.49,0,0,1-1.841.884c-.586.248-.845.077-.909-.555-.043-.424-.075-.849-.121-1.378a9.446,9.446,0,0,0-4.533,3.814,1.383,1.383,0,0,0-.086.665,23.235,23.235,0,0,1-.049,2.575,13.52,13.52,0,0,1-.657,2.137,5.13,5.13,0,0,0,.45.62,7.491,7.491,0,0,1,1.668,5.142c.018.606-.216.871-.844.865q-3.11-.029-6.22,0c-.634.006-.834-.264-.836-.868A7.622,7.622,0,0,1,3.79,30.836a3.482,3.482,0,0,1-1.253-3.275c.039-1.01,0-2.022.011-3.034a2.529,2.529,0,0,1,.71-2.049c-.329-.927-.66-1.76-.913-2.616-.112-.38-.249-.527-.657-.538-1.6-.046-1.916-.454-1.55-2.071a.9.9,0,0,1,.68-.515c1.87-.043,3.743-.052,5.613-.013A3.477,3.477,0,0,1,9.008,19.06,15.316,15.316,0,0,1,9.14,21.7c0,.2-.347.389-.533.583-.155-.2-.42-.383-.443-.6-.064-.6,0-1.214-.042-1.818a1.533,1.533,0,0,0-.994-1.565c.105,1.875-.573,3.793,1.187,5.245a11.566,11.566,0,0,1,4.276-3.084c.132-.055.131-.384.238-.557a4.449,4.449,0,0,1,.434-.522c.181.168.492.316.52.506.108.738.127,1.489.186,2.341m-6.8,5.046a4.233,4.233,0,0,1-1.051-.02c-.242-.068-.433-.318-.646-.487.206-.175.388-.439.625-.5a4.352,4.352,0,0,1,1.072-.022V25.28a5.141,5.141,0,0,1-1.152-.023c-.21-.051-.364-.331-.542-.509.191-.161.362-.414.579-.463a5.023,5.023,0,0,1,1.084-.021c.032-.843-.365-1.218-1.024-1.282a7.763,7.763,0,0,0-1.576.029.982.982,0,0,0-.93,1.025c-.029,1.566-.051,3.135.005,4.7a1.75,1.75,0,0,0,1.62,1.554,1.6,1.6,0,0,0,1.659-1.048,2.977,2.977,0,0,1-.83-.058,2.334,2.334,0,0,1-.591-.472c.206-.171.389-.432.625-.494A4.462,4.462,0,0,1,7.171,28.2Zm1.19,7.17a5.078,5.078,0,0,0-1.343-2.725c-.279-.371-.475-.718-1.068-.5-.4.146-1.074-.077-1.284.163a5.161,5.161,0,0,0-1.632,3.066Zm-5.53-16.68a1.3,1.3,0,0,0-.023.4c.176.58.414,1.145.553,1.733.414,1.75,1.071,2.22,2.713,1.86V17.771ZM2.81,36.234H8.556c.047-.061.1-.122.143-.182-.174-.182-.345-.518-.524-.522-1.754-.04-3.509-.024-5.315-.024-.019.274-.033.483-.05.728" fill="#5f19e1"/>
      <path id="Path_907" data-name="Path 907" d="M32.565,27.838c1.763.637,2.1,1.105,2.1,2.921.006,1.162.014,2.325,0,3.488a2.885,2.885,0,0,1-2.742,3.041A2.826,2.826,0,0,1,29,34.443c-.066-1.387-.058-2.782.007-4.169.076-1.617.6-2.094,2.518-2.443,0-1.541.012-3.1-.016-4.66a.832.832,0,0,0-.367-.516c-1.453-1.051-2.9-2.108-4.4-3.1a2.368,2.368,0,0,0-1.215-.241c-.576-.01-.831-.232-.826-.813.019-2.263-.214-2.042,1.942-2.043q5.536,0,11.071,0c1.192,0,1.211.021,1.211,1.242v.151c0,1.349,0,1.338-1.372,1.463a1.4,1.4,0,0,0-.679.267c-1.328,1.009-2.649,2.027-3.95,3.071a1.02,1.02,0,0,0-.349.68c-.031,1.49-.016,2.98-.016,4.509m-6.787-9.625.141-.177c.745.411,1.52.775,2.228,1.242,1.157.765,2.281,1.582,3.4,2.41a.657.657,0,0,0,.97-.009c.874-.726,1.775-1.418,2.687-2.1.808-.6,1.475-1.483,2.694-1.308-.016-.313-.028-.529-.041-.768H25.778Zm4.456,16.965a1.769,1.769,0,0,0,2.024,1.037,1.787,1.787,0,0,0,1.365-1.71c.029-1.288.015-2.577.01-3.866-.005-1.35-.35-1.709-1.691-1.749a4.573,4.573,0,0,0-.9.075,1.03,1.03,0,0,0-.95,1.255,3.32,3.32,0,0,1,.925.018,2.976,2.976,0,0,1,.729.493,2.642,2.642,0,0,1-.707.5,3.736,3.736,0,0,1-.993.02v.941a5.475,5.475,0,0,1,1.147.072c.213.057.368.325.549.5-.194.158-.369.406-.587.453a5.773,5.773,0,0,1-1.156.02c.019.366.031.607.046.918a4.3,4.3,0,0,1,1.092.023c.232.064.405.341.6.523-.194.161-.365.391-.588.464a3.278,3.278,0,0,1-.915.019" fill="#5f19e1"/>
      <path id="Path_908" data-name="Path 908" d="M11.584,10.752c-.3,1.369.265,2.369,1.532,2.561a26.123,26.123,0,0,0,3.142.211c1.515.046,3.032.1,4.545.05a15.725,15.725,0,0,0,3.052-.376,1.862,1.862,0,0,0,1.152-2.385c-.045-.008-.1-.039-.135-.022-.349.189-.778.539-1-.019-.082-.211.25-.716.52-.909a.976.976,0,0,1,1.639.679,3.033,3.033,0,0,1-.943,3.1,1.976,1.976,0,0,0-.708,1.257A6.711,6.711,0,0,1,22,18.926c-3.08,2.5-7.236,1.548-9.142-2.089a4.946,4.946,0,0,1-.39-.9,5.667,5.667,0,0,0-1.416-2.8,2.479,2.479,0,0,1-.466-2.7c.127-.343.634-.8.926-.769a2.178,2.178,0,0,1,1.209.754c.242.266-.157.719-.541.624a3.129,3.129,0,0,1-.6-.292m9.768,3.883H15.214c.133,1.257.24,2.384.383,3.507a.787.787,0,0,0,.322.46,4.272,4.272,0,0,0,4.715.009.887.887,0,0,0,.343-.538c.143-1.1.245-2.2.375-3.438m.767,2.513.24.09,1.181-2.754c-.947-.121-1.229.258-1.261.95-.026.573-.1,1.143-.16,1.714m-7.945.066.269-.074a15.362,15.362,0,0,1-.185-1.781c.006-.805-.433-.932-1.249-.894.416.98.79,1.865,1.165,2.749" fill="#5f19e1"/>
      <path id="Path_909" data-name="Path 909" d="M25.685,4.817c-.1,1.173-.172,2.35-.321,3.517-.031.245-.343.455-.525.681-.159-.244-.313-.491-.478-.73-.15-.218-.269-.544-.477-.622a15.493,15.493,0,0,0-11.18-.01c-.218.081-.321.456-.49.685s-.359.454-.54.681c-.164-.217-.46-.427-.471-.651-.1-2.059-.177-4.121-.2-6.182a1.039,1.039,0,0,1,.53-.77,16.949,16.949,0,0,1,13.483-.034.789.789,0,0,1,.583.848c-.028.859-.008,1.719-.008,2.579ZM24.563,6.8c0-1.482.019-2.791-.02-4.1a.8.8,0,0,0-.445-.564,15.735,15.735,0,0,0-11.665.005c-.18.069-.433.275-.437.422-.033,1.372-.019,2.745-.019,4.243A17,17,0,0,1,24.563,6.8" fill="#5f19e1"/>
      <path id="Path_910" data-name="Path 910" d="M13.2,27.108c.682,0,1.364.017,2.045,0,.591-.019.8.245.793.822-.024,1.187-.007,2.374-.007,3.561a.386.386,0,0,1,0,.076c-.258,1.318-1.634,1.342-2.4,2.07-.416.393-.77.007-1.158-.155a3.129,3.129,0,0,1-2.148-3.835,9.554,9.554,0,0,0,.018-1.815c0-.5.231-.734.742-.723.707.016,1.414,0,2.121,0m-1.855,1.037a10.867,10.867,0,0,1-.022,2.061c-.27,1.31.589,1.774,1.489,2.269.774.425,1.1-.376,1.64-.59.219-.088.506-.361.516-.561.051-1.049.024-2.1.024-3.179Z" fill="#5f19e1"/>
      <path id="Path_911" data-name="Path 911" d="M23.637,21.522c-.041.469-.085.942-.123,1.415-.044.536-.339.736-.822.533a19.445,19.445,0,0,1-2.044-.977c-.173-.1-.21-.437-.309-.665.26-.07.548-.247.774-.187a9.784,9.784,0,0,1,1.4.606c.06-.793.08-1.512.189-2.217.036-.232.3-.429.464-.643.172.2.337.41.52.6a2.4,2.4,0,0,0,.64.6,10.577,10.577,0,0,1,5.741,5.824c.147.353.452.8-.11,1.03-.547.23-.675-.264-.826-.631a9.5,9.5,0,0,0-4.957-5.162,3.181,3.181,0,0,0-.351-.136.57.57,0,0,0-.182.009" fill="#5f19e1"/>
      <path id="Path_912" data-name="Path 912" d="M18.778,30.3q0,2.958,0,5.916a1.5,1.5,0,0,1-.045.6.626.626,0,0,1-.426.331.58.58,0,0,1-.453-.288,2.006,2.006,0,0,1-.081-.743q-.006-5.8,0-11.6a1.4,1.4,0,0,1,.035-.6c.1-.192.323-.446.488-.443s.368.272.461.468a1.522,1.522,0,0,1,.024.6V30.3" fill="#5f19e1"/>
      <path id="Path_913" data-name="Path 913" d="M31.809,15.946q-2.88,0-5.76,0a1.53,1.53,0,0,1-.6-.043c-.156-.07-.36-.281-.347-.411a.712.712,0,0,1,.351-.485,1.628,1.628,0,0,1,.671-.054q5.687,0,11.369,0c.152,0,.332-.048.449.017a5.228,5.228,0,0,1,.646.484c-.214.164-.422.457-.644.469-.981.052-1.969.024-2.955.025H31.809" fill="#5f19e1"/>
    </g>
  </g>
</svg>
