<svg xmlns="http://www.w3.org/2000/svg" xmlns:xlink="http://www.w3.org/1999/xlink" width="32.495" height="37.748" viewBox="0 0 32.495 37.748">
  <defs>
    <clipPath id="clip-path">
      <rect id="Rectangle_274" data-name="Rectangle 274" width="32.495" height="37.748" transform="translate(0 0)" fill="#5f19e1"/>
    </clipPath>
  </defs>
  <g id="Group_560" data-name="Group 560" transform="translate(0 0)">
    <g id="Group_503" data-name="Group 503" clip-path="url(#clip-path)">
      <path id="Path_914" data-name="Path 914" d="M12.3,22.13c0-.88.022-1.663-.014-2.442a1.053,1.053,0,0,0-.308-.618A13.208,13.208,0,0,1,9.2,14.694a1.835,1.835,0,0,0-.6-.769,3.039,3.039,0,0,1-.565-4.668,2.627,2.627,0,0,0,.7-1.686c.1-.975.213-1.949.328-2.922a4.183,4.183,0,0,1,2.308-3.385,10.083,10.083,0,0,1,9.917.079A4.086,4.086,0,0,1,23.509,4.7c.109,1.146.248,2.291.422,3.428a1.687,1.687,0,0,0,.423.872,3.112,3.112,0,0,1-.463,4.99,1.245,1.245,0,0,0-.442.534,12.755,12.755,0,0,1-2.921,4.623.82.82,0,0,0-.257.493c-.027.8-.012,1.606-.012,2.554a16.756,16.756,0,0,1,2.4.017,9.826,9.826,0,0,1,6.576,4.317,17.935,17.935,0,0,1,3.26,10.568c.008.538-.254.662-.729.656-1.374-.016-2.747-.006-4.121-.006H1.008c-1.013,0-1.033-.019-1-1.035a17.226,17.226,0,0,1,4-11.109,9.067,9.067,0,0,1,7.676-3.469c.167.01.335,0,.613,0M8.944,9.618A2.191,2.191,0,0,0,9.266,13.3a1.69,1.69,0,0,1,.652.794,11.08,11.08,0,0,0,3.226,4.827,4.7,4.7,0,0,0,6.256.028,10.29,10.29,0,0,0,3.17-4.681,1.854,1.854,0,0,1,.874-1.083,2.072,2.072,0,0,0,.148-3.529c-.466.625-.925,1.257-1.4,1.873a1.551,1.551,0,0,1-1.683.623c-.548-.124-1.1-.242-1.657-.316a16.931,16.931,0,0,0-6.491.274,1.841,1.841,0,0,1-2.172-.79c-.389-.563-.806-1.106-1.241-1.7M9.52,8.46H23.069c-.15-1.247-.316-2.43-.427-3.618a3.346,3.346,0,0,0-1.886-2.8,9.229,9.229,0,0,0-9,.048A3.346,3.346,0,0,0,9.938,4.782C9.8,5.974,9.667,7.166,9.52,8.46M7.268,36.8h8.645V34.945c-.893,0-1.747.016-2.6-.006-.585-.015-.736-.3-.45-.8.121-.212.272-.407.407-.611.767-1.154,1.533-2.308,2.346-3.533H7.268Zm17.957-6.811H17.008v1.984c.761,0,1.467-.016,2.172.006.6.018.749.281.451.8-.537.933-1.107,1.847-1.661,2.77-.243.405-.482.814-.749,1.266h8ZM7.846,23.671C3.89,25.855,2.169,29.354,1.23,33.449H6.346c0-1,0-1.944,0-2.893,0-1.421,0-1.42,1.361-1.516.04,0,.076-.05.139-.093Zm16.832.135v5.221c1.468.1,1.468.1,1.468,1.55v2.88H31.2c-.519-4.069-3.626-8.665-6.522-9.651M20.6,29.037c0-1.931,0-3.788-.01-5.645,0-.123-.151-.245-.231-.367a1.455,1.455,0,0,0-.283.354,3.873,3.873,0,0,1-3.832,2.74,3.882,3.882,0,0,1-3.836-2.735c-.059-.157-.242-.269-.484-.524v6.177Zm-7.417-8.978c0,.881-.018,1.614,0,2.346a2.842,2.842,0,0,0,2.732,2.822,2.924,2.924,0,0,0,3.344-2.4c.125-.861.094-1.745.139-2.758a5.677,5.677,0,0,1-6.219-.01M22.572,9.466H9.967c.186.286.332.478.446.688a1.8,1.8,0,0,0,2.345.98,15.686,15.686,0,0,1,6.572-.117c1.989.345,1.983.384,3.114-1.32.037-.057.066-.119.128-.231M.878,36.81H6.292V34.423H1.049C.991,35.229.936,36,.878,36.81m30.565-2.37H26.2v2.381h5.413c-.058-.814-.113-1.583-.17-2.381M10.932,29.018V22.956c-.646.113-1.225.189-1.788.331a.593.593,0,0,0-.37.417c-.026,1.758-.017,3.517-.017,5.314Zm10.624-5.946v5.946h2.076c.042-.08.082-.122.082-.164q.015-1.95.021-3.9c0-1.78-.155-1.932-1.979-1.927a1.255,1.255,0,0,0-.2.044m-5.522,7.916-2.059,3.074c.6,0,1.054,0,1.51,0,1.505-.017,1.344.013,1.37,1.283,0,.027.061.052.135.112l1.561-2.6h-.992c-1.465,0-1.513.137-1.481-1.4,0-.086-.015-.173-.044-.478" fill="#5f19e1"/>
      <path id="Path_915" data-name="Path 915" d="M16.883,3.568c.542,0,.957-.014,1.37,0,.61.024.775.269.491.781q-.912,1.636-1.883,3.239c-.106.175-.369.255-.559.379a2.251,2.251,0,0,1-.332-.66,11.1,11.1,0,0,1-.015-1.36c-.539,0-1.043.01-1.547,0-.692-.017-.864-.286-.512-.856.683-1.1,1.383-2.2,2.107-3.276a.762.762,0,0,1,.588-.27c.108.007.263.323.279.51.039.481.013.967.013,1.512m-.872-.159c-.409.659-.69,1.111-.971,1.565.684.3,1.568-.343,1.895.75.246-.43.458-.8.685-1.194-.667-.232-1.667.343-1.609-1.121" fill="#5f19e1"/>
      <path id="Path_916" data-name="Path 916" d="M7.992,31.89a1.415,1.415,0,1,1,2.83.023,1.415,1.415,0,1,1-2.83-.023m1.364-.736c-.224.35-.485.585-.443.735.06.214.343.365.53.543.161-.2.421-.39.45-.609.021-.155-.269-.352-.537-.669" fill="#5f19e1"/>
      <path id="Path_917" data-name="Path 917" d="M21.673,31.909a1.376,1.376,0,0,1,1.368-1.423A1.393,1.393,0,0,1,24.5,31.9a1.415,1.415,0,1,1-2.83.014m2.2,0c-.373-.259-.6-.527-.752-.494a.809.809,0,0,0-.52.509c-.03.127.293.473.464.478.208.006.424-.243.808-.493" fill="#5f19e1"/>
    </g>
  </g>
</svg>
