<svg xmlns="http://www.w3.org/2000/svg" xmlns:xlink="http://www.w3.org/1999/xlink" width="35.472" height="35.472" viewBox="0 0 35.472 35.472">
  <defs>
    <clipPath id="clip-path">
      <rect id="Rectangle_272" data-name="Rectangle 272" width="35.472" height="35.472" transform="translate(0 0)" fill="#5f19e1"/>
    </clipPath>
  </defs>
  <g id="Group_558" data-name="Group 558" transform="translate(0 0)">
    <g id="Group_499" data-name="Group 499" clip-path="url(#clip-path)">
      <path id="Path_905" data-name="Path 905" d="M35.435,24.486l-2.341-6.039a.556.556,0,0,0-.779-.288l-1.974,1.057c-.39.2-.807.05-1.509-.237a5.684,5.684,0,0,0-1.944-.517V5.362a.554.554,0,0,0-.162-.392L21.918.162A.554.554,0,0,0,21.526,0H.554A.554.554,0,0,0,0,.554V34.918a.554.554,0,0,0,.554.554h25.78a.554.554,0,0,0,.554-.554V33.142a1.669,1.669,0,0,0,1.3-1.771,1.675,1.675,0,0,0,1.2-.847,1.647,1.647,0,0,0,.2-.754h.045a1.678,1.678,0,0,0,1.473-.869,1.649,1.649,0,0,0,.2-.894,1.609,1.609,0,0,0,.254-.051A1.667,1.667,0,0,0,32.781,26.2l2.354-1A.556.556,0,0,0,35.435,24.486ZM22.08,1.892,25,4.807H22.543a.463.463,0,0,1-.463-.462ZM1.108,34.363V1.108H20.972V4.345a1.573,1.573,0,0,0,1.571,1.571H25.78V18.59a4.459,4.459,0,0,0-1.1.482,4.119,4.119,0,0,0-3.28-.258,2.144,2.144,0,0,1-1.62.012l-.04-.02-2.581-1.191a.555.555,0,0,0-.734.267l-2.7,5.737a.554.554,0,0,0,.292.749c.038.017,2.408,1.084,2.639,1.173.117.046.167.273.229.615a3.51,3.51,0,0,0,.169.665l-.351.656a1.677,1.677,0,0,0,1.391,2.467,1.686,1.686,0,0,0,.881,1.61,1.69,1.69,0,0,0,1.489.043,1.666,1.666,0,0,0,2.026.771,1.678,1.678,0,0,0,2.8.384l.412.226c.025.014.05.026.075.038v1.347Zm23.425-4.52a.561.561,0,0,1,.168-.026.577.577,0,0,1,.5.838l-.684,1.28a.57.57,0,0,1-1.005-.538l.685-1.28a.558.558,0,0,1,.337-.274m-1.315-.248-.782,1.462a.569.569,0,1,1-1-.537l.781-1.462A.57.57,0,0,1,23.218,29.595Zm-1.982-1.06-.967,1.808a.57.57,0,0,1-1-.538L20.233,28a.57.57,0,0,1,1,.54M19.4,27.2l-.715,1.337a.57.57,0,0,1-1-.54l.714-1.334a.576.576,0,0,1,.771-.233.584.584,0,0,1,.233.77m7.614,4.58a.57.57,0,0,1-.774.224l-.39-.215.329-.614a1.711,1.711,0,0,0,.156-.419L26.78,31l.007,0a.572.572,0,0,1,.226.775m4.6-5.167a.57.57,0,0,1-.347.275.545.545,0,0,1-.421-.048l-2.786-1.574a.555.555,0,0,0-.546.966l2.4,1.357a.57.57,0,1,1-.545,1l-3.034-1.7a.554.554,0,0,0-.544.966l2.4,1.35a.578.578,0,0,1,.229.777.569.569,0,0,1-.773.224l-1.683-.93a1.669,1.669,0,0,0-1.67-.525A1.67,1.67,0,0,0,22.31,27.7a1.669,1.669,0,0,0-1.77-1.1c-.011-.051-.024-.1-.039-.154a1.676,1.676,0,0,0-2.6-.86,1.423,1.423,0,0,0-.842-1.078c-.219-.086-1.465-.647-2.088-.928l2.222-4.728,2.063.952a3.176,3.176,0,0,0,2.4.089,3.47,3.47,0,0,1,2.009-.066q-.2.18-.4.381a13.31,13.31,0,0,1-2.849,2.126.553.553,0,0,0-.173.806c1.59,2.191,3.527,1.407,4.941.835.92-.373,1.715-.694,2.314-.353l3.887,2.216A.581.581,0,0,1,31.612,26.616Zm.715-1.427a1.669,1.669,0,0,0-.4-.314l-3.887-2.216a2.234,2.234,0,0,0-1.127-.293,6,6,0,0,0-2.152.581c-1.376.557-2.327.872-3.229.007a13.691,13.691,0,0,0,2.513-1.966,6.645,6.645,0,0,1,.934-.794,2.968,2.968,0,0,1,2.332-.565,6.566,6.566,0,0,1,1.1.376,2.734,2.734,0,0,0,2.446.191l1.429-.764,1.921,4.955ZM4.6,14.624a2.005,2.005,0,0,0,2,2h6.517a2,2,0,0,0,2-2V10.1a1.567,1.567,0,0,0,1.574-2.693L10.8,3.126a1.557,1.557,0,0,0-1.861-.015l-5.915,4.3a1.566,1.566,0,0,0,.922,2.835A1.552,1.552,0,0,0,4.6,10.1Zm6.111.894h-1.7v-4.3a.128.128,0,0,1,.127-.127h1.445a.128.128,0,0,1,.127.127Zm2.409,0h-1.3v-4.3a1.237,1.237,0,0,0-1.236-1.235H9.136A1.236,1.236,0,0,0,7.9,11.213v4.3H6.6a.9.9,0,0,1-.894-.894V9.333L9.859,6.316l4.153,3.018v5.29a.9.9,0,0,1-.9.894M3.572,8.946a.46.46,0,0,1,.1-.641l5.915-4.3a.462.462,0,0,1,.546.005l.009.007,5.9,4.285a.459.459,0,0,1-.538.744l-5.32-3.866a.554.554,0,0,0-.652,0L4.212,9.049A.46.46,0,0,1,3.572,8.946Zm8.091,14.031a.554.554,0,0,1-.554.554H5.152a.554.554,0,1,1,0-1.109h5.957A.555.555,0,0,1,11.663,22.977ZM13.949,26.3a.554.554,0,0,1-.554.554H5.152a.554.554,0,1,1,0-1.108H13.4A.554.554,0,0,1,13.949,26.3Zm0,3.326a.554.554,0,0,1-.554.554H5.152a.554.554,0,1,1,0-1.109H13.4A.555.555,0,0,1,13.949,29.628Zm-2.286-9.977a.554.554,0,0,1-.554.554H5.152a.554.554,0,1,1,0-1.108h5.957A.554.554,0,0,1,11.663,19.651Z" fill="#5f19e1"/>
    </g>
  </g>
</svg>
