<svg xmlns="http://www.w3.org/2000/svg" xmlns:xlink="http://www.w3.org/1999/xlink" width="37.466" height="37.41" viewBox="0 0 37.466 37.41">
  <defs>
    <clipPath id="clip-path">
      <rect id="Rectangle_270" data-name="Rectangle 270" width="37.466" height="37.41" transform="translate(0 0)" fill="#5f19e1"/>
    </clipPath>
  </defs>
  <g id="Group_556" data-name="Group 556" transform="translate(0 0)">
    <g id="Group_495" data-name="Group 495" clip-path="url(#clip-path)">
      <path id="Path_900" data-name="Path 900" d="M22.195,32.681c1.062,0,1.936-.033,2.807.008a1.794,1.794,0,0,1,1.586,2.718,1.677,1.677,0,0,1-1.483.873c-.778.005-1.556-.012-2.333.006a3.777,3.777,0,0,1-3.745-2.261c-.055-.11-.123-.212-.215-.37-.933.536-1.85,1.04-2.742,1.585a1.021,1.021,0,0,1-1.177,0Q7.747,31.089.58,26.975A1.053,1.053,0,0,1,0,25.941Q.014,17.7,0,9.469A1.1,1.1,0,0,1,.636,8.394Q7.738,4.32,14.819.207A1.175,1.175,0,0,1,16.141.2q7.081,4.113,14.182,8.191a1.139,1.139,0,0,1,.633,1.146c-.018,3.585-.034,7.171.018,10.755a4.473,4.473,0,0,0,.581,1.553,1.332,1.332,0,0,0,1.2.928,1.591,1.591,0,0,1,1.285,1.643c-.056,1.012-.233,2.018-.359,3.028,1.051-.236,1.786.351,2.3,1.367.318.623.714,1.207,1.033,1.83a3.837,3.837,0,0,1-3.374,5.633,1.955,1.955,0,0,0-1.832.686,1.594,1.594,0,0,1-2.077.135A18.6,18.6,0,0,1,28.1,35.9a1.764,1.764,0,0,1-.11-2.708A16.256,16.256,0,0,1,29.6,31.839a1.627,1.627,0,0,1,2.3.238c.518.764,1.148.6,1.947.553a3.617,3.617,0,0,0-.2-.63c-.272-.507-.551-1.013-.862-1.5a1.984,1.984,0,0,1-.184-2.257c-.778-.224-1.565-.486-2.371-.664a1.609,1.609,0,0,0-1.024.092c-1.3.7-2.574,1.45-3.846,2.2-.227.134-.387.377-.6.534-.374.27-.755.7-1.157.727-.95.065-1.035.748-1.407,1.544m-7.377,1.1c.021-.265.039-.389.04-.513,0-4.89-.005-9.779.011-14.669a.884.884,0,0,0-.533-.874Q8.955,14.653,3.594,11.541L1.276,10.2c-.025.25-.051.394-.051.538,0,4.89-.012,9.779.021,14.669a1.2,1.2,0,0,0,.542.837c2.587,1.531,5.2,3.022,7.8,4.523l5.23,3.014m5.325-18.069c-1.248.72-2.334,1.384-3.457,1.977a1.072,1.072,0,0,0-.626,1.123c.021,4.711.012,9.422.012,14.133v.878c.883-.509,1.638-.931,2.375-1.383.125-.076.186-.277.248-.432.266-.667.5-1.349.79-2a1.067,1.067,0,0,0,.1-1.026,1.617,1.617,0,0,1,.66-2.1c1.023-.53,2.016-1.231,3.09-1.078a4.412,4.412,0,0,1,.036-1.7,18.985,18.985,0,0,1,1.875-3.147,3.151,3.151,0,0,1,2.7-1.237,17.269,17.269,0,0,1,1.73.2v-9.7c-1.162.67-2.228,1.323-3.331,1.9a1.1,1.1,0,0,0-.691,1.159c.045,1.778,0,3.558.025,5.337a1.017,1.017,0,0,1-.593,1.017c-1.2.667-2.389,1.368-3.581,2.055-1,.574-1.358.368-1.362-.78,0-1.677,0-3.354,0-5.188m9-6.6C24.62,6.506,20.2,3.948,15.775,1.408a.725.725,0,0,0-.607.019c-1.221.68-2.425,1.39-3.652,2.1.073.09.107.166.165.2q6.534,3.779,13.075,7.544a.653.653,0,0,0,.536.046c1.263-.7,2.511-1.43,3.846-2.2m-9.591,5.535C15.014,12.035,10.6,9.482,6.175,6.94A.568.568,0,0,0,5.707,6.9c-1.272.71-2.53,1.442-3.882,2.22,4.535,2.619,8.952,5.172,13.378,7.709a.722.722,0,0,0,.6-.018c1.222-.682,2.428-1.393,3.743-2.155m4.311-2.495c-4.524-2.609-8.9-5.137-13.29-7.651a.75.75,0,0,0-.609-.068c-.938.506-1.852,1.056-2.848,1.635,4.5,2.6,8.9,5.139,13.306,7.668a.742.742,0,0,0,.606.05c.917-.5,1.812-1.037,2.835-1.634m4.4,8.75a2.589,2.589,0,0,0-2.408,1.2c-.444.694-.83,1.424-1.246,2.136-.22.377-.256.789.189.931a.976.976,0,0,0,.82-.364c.46-.65.8-1.387,1.237-2.051a1.436,1.436,0,0,1,2.451,0c.282.411.5.866.768,1.286a.8.8,0,0,1-.091,1.183c-.429.4-.321.8.232,1.039.5.215,1.033.372,1.548.562a.576.576,0,0,0,.873-.5,14.5,14.5,0,0,0,.207-1.785.551.551,0,0,0-.725-.62c-.591.134-.879-.153-1.117-.622-.2-.4-.436-.787-.677-1.166a2.505,2.505,0,0,0-2.061-1.231M23.622,35.075v0c.376,0,.753-.009,1.128,0,.437.013.868-.053.87-.58s-.425-.613-.861-.612c-.7,0-1.4.012-2.106,0a1.469,1.469,0,0,1-1.331-2.3c.211-.4.463-.773.673-1.171a.8.8,0,0,1,1.033-.476c.612.151.893-.161.8-.793q-.117-.78-.284-1.55c-.1-.484-.414-.69-.886-.5a8.587,8.587,0,0,0-1.627.757c-.188.125-.323.727-.212.836.518.508.308.932.008,1.407A12.5,12.5,0,0,0,20.19,31.2,2.644,2.644,0,0,0,22.5,35.073c.375.011.752,0,1.127,0m12.692-2.667a7.28,7.28,0,0,0-.372-1.2c-.358-.714-.782-1.4-1.183-2.087-.2-.348-.45-.653-.9-.39-.427.251-.342.607-.13.971.378.648.768,1.29,1.114,1.955a1.45,1.45,0,0,1-1.289,2.226c-.5.019-1,0-1.5.007a.729.729,0,0,1-.848-.639c-.137-.575-.544-.692-1.018-.334a16.86,16.86,0,0,0-1.319,1.115.578.578,0,0,0,.039.967c.448.36.919.694,1.4,1.013.366.243.781.245.921-.217.2-.659.634-.754,1.21-.721.425.024.852.014,1.277,0a2.726,2.726,0,0,0,2.6-2.662M24.462,13.223c-1.029.593-1.92,1.1-2.8,1.622a.6.6,0,0,0-.289.39c-.02,1.667-.013,3.336-.013,5.131,1.034-.6,1.944-1.109,2.835-1.652a.649.649,0,0,0,.254-.473c.019-1.624.011-3.248.011-5.018M25,28.673l3.519-2.031a9.034,9.034,0,0,1,.142-1.616,1.352,1.352,0,0,0-.666-1.7c-1.143,1.088-1.12,3.462-3.494,3.157.164.719.317,1.4.5,2.194" fill="#5f19e1"/>
    </g>
  </g>
</svg>
