<svg xmlns="http://www.w3.org/2000/svg" width="31.333" height="35.397" viewBox="0 0 31.333 35.397">
  <path id="Path_406" data-name="Path 406" d="M58.848,4.461H58V1.874A1.876,1.876,0,0,0,56.126,0H33.332a1.876,1.876,0,0,0-1.874,1.874v.245h-1.55a.519.519,0,0,0-.52.52V7.323a.519.519,0,0,0,.52.52h1.55v.245a1.876,1.876,0,0,0,1.874,1.874h3.4v2.586a2.053,2.053,0,1,0,4.106,0V9.961H48.9a.52.52,0,1,0,0-1.039H40.843v-4.3a1.014,1.014,0,0,1,2.028,0V5.789a2.053,2.053,0,0,0,4.106,0V1.039h9.15a.835.835,0,0,1,.835.834V8.087a.835.835,0,0,1-.835.835H50.98a.52.52,0,1,0,0,1.039h5.146A1.876,1.876,0,0,0,58,8.087V5.5h.849a.835.835,0,0,1,.835.834v4a.833.833,0,0,1-.691.822L46.37,13.361a1.87,1.87,0,0,0-1.551,1.845v1.81H43.345a.519.519,0,0,0-.52.52v1.951h-.113a.519.519,0,0,0-.52.52V32.252a3.145,3.145,0,1,0,6.29,0V28.17a.52.52,0,1,0-1.039,0v4.082a2.106,2.106,0,1,1-4.212,0V20.526h4.212v5.565a.52.52,0,1,0,1.039,0V20.007a.519.519,0,0,0-.52-.52h-.113V17.536a.519.519,0,0,0-.52-.52H45.858v-1.81a.833.833,0,0,1,.691-.822l12.623-2.209a1.87,1.87,0,0,0,1.551-1.845v-4a1.876,1.876,0,0,0-1.873-1.874ZM30.428,6.8V3.158h1.031V6.8ZM45.937,5.789a1.014,1.014,0,0,1-2.028,0V4.625a2.053,2.053,0,0,0-4.106,0v7.922a1.014,1.014,0,1,1-2.028,0V6.02a.52.52,0,1,0-1.039,0v2.9h-3.4a.835.835,0,0,1-.834-.835V1.874a.835.835,0,0,1,.834-.834h3.4v2.9a.52.52,0,1,0,1.039,0v-2.9h8.161Zm.875,13.7H43.865V18.055h2.947Z" transform="translate(-29.389)" fill="#5f19e1"/>
</svg>
