<svg xmlns="http://www.w3.org/2000/svg" xmlns:xlink="http://www.w3.org/1999/xlink" width="34.46" height="39.417" viewBox="0 0 34.46 39.417">
  <defs>
    <clipPath id="clip-path">
      <rect id="Rectangle_269" data-name="Rectangle 269" width="34.46" height="39.417" fill="#5f19e1"/>
    </clipPath>
  </defs>
  <g id="Group_555" data-name="Group 555" transform="translate(0 0)">
    <g id="Group_493" data-name="Group 493" transform="translate(0 0)" clip-path="url(#clip-path)">
      <path id="Path_886" data-name="Path 886" d="M17.29,21.568c-1.805-1.887-3.589-3.751-5.469-5.714-.307.878-.592,1.653-.85,2.437-.151.462-.369.864-.926.67-.54-.188-.5-.626-.326-1.094a22.212,22.212,0,0,1,.777-2.244,1.141,1.141,0,0,0-.345-1.545c-.95-.912-1.839-1.886-2.8-2.881a8.732,8.732,0,0,1-1.381.917c-.277.12-.675-.033-1.017-.063.086-.324.071-.753.28-.952.473-.45,1.071-.769,1.59-1.176a.828.828,0,0,1,1.288.131c.955,1.027,1.937,2.028,2.9,3.049a4.477,4.477,0,0,1,.387.5l3.6-1.81c.421-.213.83-.242,1.048.243s-.068.752-.5.958c-1.007.483-2,.993-3.136,1.56.486.511.82.864,1.156,1.214,1.523,1.588,3.061,3.162,4.56,4.771a1.153,1.153,0,0,0,1.229.38A18.25,18.25,0,0,1,21.5,20.7a3.412,3.412,0,0,1,2.6.857,2.588,2.588,0,0,0,1.193.49,16.634,16.634,0,0,1,3.271,1.33.787.787,0,0,1,.141.753.983.983,0,0,1-.832.277c-.759-.237-1.481-.586-2.294-.923L23.7,26.957a10.913,10.913,0,0,0,7.288,1.856,2.209,2.209,0,0,0,1.753-2.867c-1.1-3.378-2.251-6.742-3.418-10.1a3.693,3.693,0,0,0-2.088-2.116,14.114,14.114,0,0,1-1.787-.849c-.218-.139-.247-.569-.363-.867.306-.094.663-.34.91-.259,2.508.832,4.356,2.252,5.1,4.987.769,2.843,1.855,5.6,2.788,8.4.92,2.761-.744,5.023-3.685,5.061a13.306,13.306,0,0,1-7.476-2.292c-.139-.088-.364-.191-.374-.3-.082-.911-.857-.829-1.435-1.01A6.978,6.978,0,0,1,17.52,24.5a2.214,2.214,0,0,1-.23-2.927M24.2,23.2a6.715,6.715,0,0,0-2.144-1.124,11.543,11.543,0,0,0-3.251.34c-.745.143-.851.494-.377,1.1a5.722,5.722,0,0,0,4.136,2.077.658.658,0,0,0,.5-.293c.373-.627.7-1.281,1.139-2.1" transform="translate(0.328 0.545)" fill="#5f19e1"/>
      <path id="Path_887" data-name="Path 887" d="M16.132,30.292H6.143v.869c0,2.025,0,4.05,0,6.075,0,.473-.052.933-.65.938s-.68-.444-.68-.922c0-2.491-.011-4.981.012-7.471a1.461,1.461,0,0,1,.32-.8A11.623,11.623,0,0,1,6.293,27.69a3.24,3.24,0,0,0,1.261-3.013c-.1-.562.247-.859.838-.848.243,0,.486-.027.934-.055a6.687,6.687,0,0,0-.415-1.388c-.358-.643-.841-1.217-1.24-1.839-.423-.658-.19-1.147.6-1.16q2.9-.048,5.8,0c.727.013.959.5.574,1.125-.358.582-.81,1.111-1.14,1.708a10.143,10.143,0,0,0-.546,1.476c1.776.331,1.755.331,1.817,2a1.475,1.475,0,0,0,.4,1,6.477,6.477,0,0,1,2.318,6.241,37.426,37.426,0,0,0-.031,4.266c0,.453-.006.951-.614.975-.656.026-.71-.483-.711-.974,0-2.269,0-4.539,0-6.908M8.8,25.193c.611,1.742-.969,2.48-1.71,3.677h8.186c-.9-1.179-2.314-1.98-1.831-3.677Zm.627-4.445c.615.957,1.481,1.777,1.137,3.02h1.255c-.407-1.244.433-2.04,1.045-3.02Z" transform="translate(0.319 1.092)" fill="#5f19e1"/>
      <path id="Path_888" data-name="Path 888" d="M15.419,8.229A8.2,8.2,0,0,1,15.1,2.68,2.8,2.8,0,0,1,16.731.726,7.287,7.287,0,0,1,22.9.648,3.4,3.4,0,0,1,24.85,3.509a7.747,7.747,0,0,1-.292,4.366.812.812,0,0,0,.186.664c.907,1.085.806,1.974-.408,3.226a2.006,2.006,0,0,1-2.89.194,3.315,3.315,0,0,1-.8-.7,2.281,2.281,0,0,1-.139-.88,4.076,4.076,0,0,1,.958-.087c.187.024.348.252.517.393.805.662.98.626,1.686-.151a.737.737,0,0,0-.071-1.241c-.8-.678-1.558-1.4-2.349-2.08a2.368,2.368,0,0,0-2.612-.036c-.816.7-1.6,1.438-2.412,2.133-.5.425-.457.794-.034,1.242s.79.9,1.435.331a2.685,2.685,0,0,1,.774-.6.982.982,0,0,1,.857.087.85.85,0,0,1-.025.847c-1.6,1.643-3.031,1.924-4.5-.445-.611-.985-.107-1.832.689-2.541m8.1-3.937a2.3,2.3,0,0,0-1.759-2.676,6.05,6.05,0,0,0-3.893.059,2.111,2.111,0,0,0-1.57,2.634,6.1,6.1,0,0,1,7.222-.017m-.133,3.043c.045-.676.663-1.195-.077-1.679-2.052-1.337-4.116-1.711-6.317-.269-.971.636-1.077.757-.427,1.853.98-.8,1.777-1.762,3.3-1.775,1.545-.013,2.4.9,3.523,1.87" transform="translate(0.958 0)" fill="#5f19e1"/>
      <path id="Path_889" data-name="Path 889" d="M20.5,32.421q0,2.252,0,4.5c0,.487-.039,1.007-.693.982-.583-.022-.633-.509-.633-.969q0-4.629,0-9.255c0-.454.039-.926.659-.933s.662.463.663.92c0,1.582,0,3.166,0,4.749" transform="translate(1.271 1.508)" fill="#5f19e1"/>
      <path id="Path_890" data-name="Path 890" d="M27.8,35.934c0,.3-.013.6,0,.9.023.458-.1.923-.608.856a1.129,1.129,0,0,1-.689-.8c-.141-1.08-.156-2.175-.218-3.264-.046-.79-.089-1.58-.138-2.369-.031-.481-.066-1,.579-1.07s.715.435.744.932c.095,1.607.2,3.212.3,4.819Z" transform="translate(1.732 1.701)" fill="#5f19e1"/>
      <path id="Path_891" data-name="Path 891" d="M20.5,17.084c0,.655,0,1.31,0,1.966,0,.433-.069.856-.632.873s-.685-.378-.687-.825c-.009-1.392-.036-2.786.027-4.175a1.032,1.032,0,0,1,.62-.76c.535-.114.669.341.672.791.006.71,0,1.42,0,2.13" transform="translate(1.27 0.797)" fill="#5f19e1"/>
      <path id="Path_892" data-name="Path 892" d="M22.965,17.25a4.835,4.835,0,0,1-1.233-.027c-.246-.067-.579-.4-.579-.614A.848.848,0,0,1,21.727,16,13.746,13.746,0,0,1,24.2,16a.853.853,0,0,1,.579.612c0,.213-.336.546-.584.614a4.884,4.884,0,0,1-1.233.027" transform="translate(1.402 0.899)" fill="#5f19e1"/>
      <path id="Path_893" data-name="Path 893" d="M19.674,7.932a3.829,3.829,0,0,1,1.063.023c.259.078.624.36.632.565a.862.862,0,0,1-.524.671,11.691,11.691,0,0,1-2.378-.005c-.207-.021-.488-.433-.512-.686-.016-.169.336-.479.572-.54a4.759,4.759,0,0,1,1.146-.024v0" transform="translate(1.19 0.446)" fill="#5f19e1"/>
      <path id="Path_894" data-name="Path 894" d="M5.415,16.46,4.4,17.485c-.22-.288-.589-.56-.624-.868-.052-.46.033-1.091.728-1.012.275.032.5.454.914.856" transform="translate(0.249 0.879)" fill="#5f19e1"/>
      <path id="Path_895" data-name="Path 895" d="M.933,11c.406.479.645.758.883,1.039a3.1,3.1,0,0,1-.905.6c-.448.1-.985-.059-.9-.636.043-.3.479-.543.924-1.006" transform="translate(0 0.62)" fill="#5f19e1"/>
      <path id="Path_896" data-name="Path 896" d="M3.16,11.027c.388.432.783.671.821.956.078.574-.411.688-.892.685s-.986-.129-.89-.689c.05-.3.51-.526.962-.952" transform="translate(0.145 0.622)" fill="#5f19e1"/>
      <path id="Path_897" data-name="Path 897" d="M3.845,14.638c.181-.66.257-1.148.913-1.1.537.036.633.446.591.9-.046.485-.127,1.027-.765.919-.279-.046-.495-.467-.739-.717" transform="translate(0.255 0.763)" fill="#5f19e1"/>
      <path id="Path_898" data-name="Path 898" d="M3.013,12.767c.311.451.661.841.61.9a9.939,9.939,0,0,1-1.1,1.026c-.2-.226-.6-.568-.55-.659a9.043,9.043,0,0,1,1.044-1.27" transform="translate(0.13 0.72)" fill="#5f19e1"/>
      <path id="Path_899" data-name="Path 899" d="M1.116,16.288C.785,15.8.411,15.4.473,15.316a4.207,4.207,0,0,1,1.055-.961c.044-.03.608.487.565.575a9.8,9.8,0,0,1-.977,1.359" transform="translate(0.031 0.809)" fill="#5f19e1"/>
    </g>
  </g>
</svg>
