<svg xmlns="http://www.w3.org/2000/svg" xmlns:xlink="http://www.w3.org/1999/xlink" width="80.546" height="47.301" viewBox="0 0 80.546 47.301">
  <defs>
    <clipPath id="clip-path">
      <rect id="Rectangle_83" data-name="Rectangle 83" width="80.546" height="47.301" fill="none"/>
    </clipPath>
  </defs>
  <g id="Group_63" data-name="Group 63" transform="translate(0)">
    <g id="Group_62" data-name="Group 62" transform="translate(0)" clip-path="url(#clip-path)">
      <path id="Path_333" data-name="Path 333" d="M43.515,9.077c2.826,0,5.537-.1,8.233.06A4.355,4.355,0,0,1,54.172,10.4c3.664,3.466,7.228,7.038,10.9,10.5a3.749,3.749,0,0,0,2.195.883c2.012.12,4.037.035,6.055.042,3.036.01,4.805,1.762,4.848,4.84.029,2.059,0,4.118,0,6.154,2.27.313,2.686.958,2.187,3.182-.359,1.6-2.194,2.848-3.6,2.315-.4-.151-.7-.825-.856-1.319-2.222-7.125-10.25-9.7-15.9-4.862-1.465,1.254-2.134,3.422-3.23,5.131-.286.447-.795,1.06-1.212,1.068-3.977.081-7.956.048-12.046.048ZM61.028,21.822a10.777,10.777,0,0,0-1.079-1.6c-2.48-2.391-4.988-4.754-7.492-7.121-.751-.709-4.552-1.279-5.394-.73a1.432,1.432,0,0,0-.458,1.053c-.04,2.384,0,4.769-.032,7.153-.012.853.256,1.263,1.176,1.258,4.238-.025,8.477-.011,13.279-.011" transform="translate(0 0)" fill="#5f19e1"/>
      <path id="Path_334" data-name="Path 334" d="M.013,26.989H41.068V38.267c-.363.036-.764.109-1.166.112-2.179.011-4.371-.142-6.534.045-2.365.2-3.73-.228-4.562-2.881-1.166-3.711-5.282-5.722-9.687-5.487a9.32,9.32,0,0,0-8.53,6.542,2.041,2.041,0,0,1-2.525,1.816c-1.745-.126-3.506.006-5.259-.042A2.6,2.6,0,0,1,.028,35.717C-.026,32.858.013,30,.013,26.989" transform="translate(0 0)" fill="#5f19e1"/>
      <path id="Path_335" data-name="Path 335" d="M73.713,40.007a7.34,7.34,0,1,1-14.678-.159,7.34,7.34,0,0,1,14.678.159m-4.487,0a2.854,2.854,0,0,0-5.7-.138,2.853,2.853,0,1,0,5.7.138" transform="translate(0 0)" fill="#58595b"/>
      <path id="Path_336" data-name="Path 336" d="M12.638,39.963a7.327,7.327,0,0,1,14.653-.08A7.529,7.529,0,0,1,20.067,47.3a7.437,7.437,0,0,1-7.429-7.336m10.108,0a2.783,2.783,0,0,0-2.807-2.844,2.748,2.748,0,0,0-2.774,2.7A2.967,2.967,0,0,0,19.878,42.8a2.989,2.989,0,0,0,2.868-2.84" transform="translate(0 0)" fill="#58595b"/>
      <path id="Path_337" data-name="Path 337" d="M5.532,16.543c0-2.439.015-4.877-.011-7.316-.006-.593.184-.8.784-.8q7.319.027,14.637,0c.54,0,.721.177.72.718q-.024,7.347,0,14.693c0,.566-.174.759-.743.757q-7.318-.024-14.638,0c-.613,0-.767-.228-.761-.806.026-2.418.011-4.836.011-7.254" transform="translate(0 0)" fill="#ed1651"/>
      <path id="Path_338" data-name="Path 338" d="M35.539,18.047c0,1.942-.014,3.883.009,5.825.006.531-.165.73-.711.728q-5.8-.024-11.592,0c-.528,0-.729-.168-.727-.715q.026-5.824,0-11.65c0-.475.161-.671.644-.669q5.859.012,11.717,0c.521,0,.667.227.662.72-.021,1.92-.009,3.841-.009,5.762Z" transform="translate(0 0)" fill="#ed1651"/>
      <path id="Path_339" data-name="Path 339" d="M28.62,10.655H22.528c0-.541,0-1.112,0-1.683a1.256,1.256,0,0,0-1.413-1.4c-2.293,0-4.587,0-6.968,0V6.937c0-2.046.014-4.092-.005-6.138-.005-.581.195-.8.8-.8,4.3.018,8.6.01,12.9.007.418,0,.788,0,.786.592-.011,3.327,0,6.654,0,10.056" transform="translate(0 0)" fill="#ed1651"/>
    </g>
  </g>
</svg>
