<svg id="Group_65" data-name="Group 65" xmlns="http://www.w3.org/2000/svg" xmlns:xlink="http://www.w3.org/1999/xlink" width="75.947" height="71.269" viewBox="0 0 75.947 71.269">
  <defs>
    <clipPath id="clip-path">
      <rect id="Rectangle_84" data-name="Rectangle 84" width="75.947" height="71.269" fill="none"/>
    </clipPath>
  </defs>
  <g id="Group_64" data-name="Group 64" clip-path="url(#clip-path)">
    <path id="Path_340" data-name="Path 340" d="M54.163,48.784c1.663,0,3.257-.059,4.843.035a2.562,2.562,0,0,1,1.426.743c2.155,2.039,4.252,4.14,6.409,6.177a2.212,2.212,0,0,0,1.291.519c1.184.071,2.374.021,3.562.025a2.619,2.619,0,0,1,2.852,2.847c.017,1.211,0,2.422,0,3.62,1.335.184,1.58.564,1.286,1.872a1.781,1.781,0,0,1-2.117,1.362c-.236-.089-.413-.486-.5-.776a5.728,5.728,0,0,0-9.352-2.86c-.862.737-1.255,2.013-1.9,3.018-.168.263-.468.623-.713.628-2.339.048-4.68.029-7.086.029Zm10.3,7.5a6.258,6.258,0,0,0-.635-.942c-1.459-1.407-2.934-2.8-4.406-4.189a4.752,4.752,0,0,0-3.174-.43.845.845,0,0,0-.27.62c-.023,1.4,0,2.805-.019,4.207-.006.5.151.744.693.74,2.493-.014,4.986-.006,7.811-.006" transform="translate(0 0)" fill="#5f19e1"/>
    <path id="Path_341" data-name="Path 341" d="M28.573,59.32H52.724v6.634a6.883,6.883,0,0,1-.686.066c-1.282.007-2.571-.083-3.844.027-1.391.12-2.194-.135-2.684-1.695-.685-2.183-3.107-3.366-5.7-3.228a5.485,5.485,0,0,0-5.018,3.848,1.2,1.2,0,0,1-1.485,1.069c-1.026-.074-2.063,0-3.094-.025a1.532,1.532,0,0,1-1.633-1.562c-.032-1.682-.009-3.364-.009-5.134" transform="translate(0 0)" fill="#5f19e1"/>
    <path id="Path_342" data-name="Path 342" d="M71.927,66.978a4.317,4.317,0,1,1-8.634-.093,4.317,4.317,0,0,1,8.634.093m-2.64,0a1.678,1.678,0,0,0-3.355-.081,1.678,1.678,0,1,0,3.355.081" transform="translate(0 0)" fill="#58595b"/>
    <path id="Path_343" data-name="Path 343" d="M36,66.953a4.31,4.31,0,0,1,8.62-.047,4.429,4.429,0,0,1-4.25,4.362A4.374,4.374,0,0,1,36,66.953m5.946,0a1.637,1.637,0,0,0-1.651-1.673,1.617,1.617,0,0,0-1.632,1.588,1.644,1.644,0,1,0,3.283.085" transform="translate(0 0)" fill="#58595b"/>
    <path id="Path_344" data-name="Path 344" d="M32.875,6.155Q44.937,15.464,57,24.764a1.148,1.148,0,0,1,.478,1.045q-.016,9.079-.008,18.158v.8c-1.19,0-2.3,0-3.413,0-1.037.005-2.142-.2-2.918.878V24.188H13.334V61.669H7.074c-.016-.192-.04-.334-.04-.477,0-10.355,0-25.046-.01-35.4a1.167,1.167,0,0,1,.519-1.03q8.3-6.375,16.572-12.776,4.067-3.138,8.151-6.277c.219.161.417.3.609.447M22.535,18.336H41.962V15.389H22.535Z" transform="translate(0 0)" fill="#ed1651"/>
    <path id="Path_345" data-name="Path 345" d="M62.367,27.5l2.164-2.868c-2.451-1.891-4.853-3.745-7.255-5.6Q45.18,9.7,33.093.366a1.111,1.111,0,0,0-1.644,0Q20.045,9.211,8.594,18,4.552,21.117.508,24.231c-.152.118-.293.251-.508.437l2.178,2.871c1.372-1.056,2.7-2.072,4.018-3.093Q18.86,14.662,31.512,4.859a1.015,1.015,0,0,1,1.524.026Q47.531,16.117,62.061,27.3c.075.058.16.1.306.195" transform="translate(0 0)" fill="#ed1651"/>
    <path id="Path_346" data-name="Path 346" d="M22.116,45.943a4.054,4.054,0,0,0,0-.8c-.031-.447.185-.6.607-.6,3.916.007,7.832,0,11.747.014.18,0,.509.086.516.156a8.281,8.281,0,0,1,.048,1.866c-.022.165-.532.267-.927.448V47.7c0,2.6-.023,5.2.016,7.8.011.691-.228.873-.878.868-3.113-.023-6.227-.008-9.34-.012-.239,0-.478-.035-.8-.061V46.844c-.887.144-1.077-.243-.99-.9m8.315,4.685V46.9H26.743v3.611c1.245-1.081,2.431-1.352,3.688.113" transform="translate(0 0)" fill="#ed1651"/>
    <path id="Path_347" data-name="Path 347" d="M37.015,45.937a4.989,4.989,0,0,0,.005-.873c-.024-.416.177-.556.568-.555,3.962.005,7.924,0,11.886.012.17,0,.481.115.486.194a8.27,8.27,0,0,1,0,1.874c-.025.163-.545.249-.921.4v.718c0,2.6-.014,5.2.01,7.8.006.625-.187.844-.835.838-3.038-.03-6.076-.013-9.114-.013-1.135,0-1.126,0-1.123-1.113,0-2.766,0-5.532,0-8.4-.85.168-1.041-.219-.962-.883M41.708,50.4a4.923,4.923,0,0,0,.769-.418,1.467,1.467,0,0,1,2.073-.027,6,6,0,0,0,.841.47V46.892H41.708Z" transform="translate(0 0)" fill="#ed1651"/>
    <path id="Path_348" data-name="Path 348" d="M41.563,34.849c0,2.576-.022,5.152.012,7.728.009.69-.181.929-.9.92-3.063-.035-6.128-.041-9.191,0-.77.011-.938-.258-.929-.964.033-2.576.012-5.152.011-7.728v-.852c-.976.242-1.045-.283-.994-.93a5.491,5.491,0,0,0,0-.8c-.026-.4.139-.568.548-.567,3.963.007,7.926,0,11.89.013.17,0,.482.111.488.188a8.2,8.2,0,0,1,0,1.873c-.026.167-.545.257-.937.424v.693m-3.66-.805H34.2v3.475a3.939,3.939,0,0,0,.713-.37,1.58,1.58,0,0,1,2.3.018,3.839,3.839,0,0,0,.689.36Z" transform="translate(0 0)" fill="#ed1651"/>
  </g>
</svg>
