<svg xmlns="http://www.w3.org/2000/svg" xmlns:xlink="http://www.w3.org/1999/xlink" width="80.546" height="52.899" viewBox="0 0 80.546 52.899">
  <defs>
    <clipPath id="clip-path">
      <rect id="Rectangle_81" data-name="Rectangle 81" width="80.546" height="52.899" fill="none"/>
    </clipPath>
  </defs>
  <g id="Group_59" data-name="Group 59" transform="translate(0)">
    <g id="Group_58" data-name="Group 58" transform="translate(0)" clip-path="url(#clip-path)">
      <path id="Path_316" data-name="Path 316" d="M9.821,14.377,7.292,16.585a4.325,4.325,0,0,1-.552-.317C4.7,14.637,4.664,14.2,6.564,12.5Q13.552,6.241,20.584,0l4.665,4.221V.793H29.3c0,2.071-.049,4.117.032,6.159a2.548,2.548,0,0,0,.691,1.6c1.964,1.888,4,3.7,6.186,5.687-.814.73-1.478,1.789-2.3,1.925-.733.122-1.636-.772-2.551-1.265V31.08H27.424V23.088H21.44v7.987H9.821Zm4.912,4.938h4.155V14.976H14.733ZM26.5,15.006H22.29v4.318H26.5Z" transform="translate(0 0)" fill="#ed1651"/>
      <path id="Path_317" data-name="Path 317" d="M43.515,14.676c2.826,0,5.537-.1,8.233.06A4.355,4.355,0,0,1,54.172,16c3.664,3.466,7.228,7.038,10.9,10.5a3.749,3.749,0,0,0,2.195.883c2.012.12,4.037.035,6.055.042,3.036.01,4.805,1.762,4.848,4.84.029,2.059,0,4.118,0,6.154,2.27.313,2.686.958,2.187,3.182-.359,1.6-2.194,2.848-3.6,2.315-.4-.151-.7-.825-.856-1.319C73.679,35.471,65.651,32.9,60,37.734c-1.465,1.254-2.134,3.422-3.23,5.131-.286.447-.795,1.06-1.212,1.068-3.977.081-7.956.048-12.046.048ZM61.028,27.421a10.777,10.777,0,0,0-1.079-1.6c-2.48-2.391-4.988-4.754-7.492-7.121-.751-.709-4.552-1.279-5.394-.73a1.432,1.432,0,0,0-.458,1.053c-.04,2.384,0,4.769-.032,7.153-.012.853.256,1.263,1.176,1.258,4.238-.025,8.477-.011,13.279-.011" transform="translate(0 0)" fill="#5f19e1"/>
      <path id="Path_318" data-name="Path 318" d="M.013,32.587H41.068V43.865c-.363.036-.764.109-1.166.112-2.179.011-4.371-.142-6.534.045-2.365.2-3.73-.228-4.562-2.881-1.166-3.711-5.282-5.722-9.687-5.487a9.32,9.32,0,0,0-8.53,6.542,2.041,2.041,0,0,1-2.525,1.816c-1.745-.126-3.506.006-5.259-.042A2.6,2.6,0,0,1,.028,41.315C-.026,38.456.013,35.6.013,32.587" transform="translate(0 0)" fill="#5f19e1"/>
      <path id="Path_319" data-name="Path 319" d="M73.713,45.6a7.34,7.34,0,1,1-14.678-.159,7.34,7.34,0,0,1,14.678.159m-4.487,0a2.854,2.854,0,0,0-5.7-.138,2.853,2.853,0,1,0,5.7.138" transform="translate(0 0)" fill="#58595b"/>
      <path id="Path_320" data-name="Path 320" d="M12.638,45.561a7.327,7.327,0,0,1,14.653-.08A7.529,7.529,0,0,1,20.067,52.9a7.437,7.437,0,0,1-7.429-7.336m10.108,0a2.783,2.783,0,0,0-2.807-2.844,2.748,2.748,0,0,0-2.774,2.7A2.967,2.967,0,0,0,19.878,48.4a2.989,2.989,0,0,0,2.868-2.84" transform="translate(0 0)" fill="#58595b"/>
    </g>
  </g>
</svg>
