<svg xmlns="http://www.w3.org/2000/svg" xmlns:xlink="http://www.w3.org/1999/xlink" width="80.546" height="43.188" viewBox="0 0 80.546 43.188">
  <defs>
    <clipPath id="clip-path">
      <rect id="Rectangle_82" data-name="Rectangle 82" width="80.546" height="43.188" fill="none"/>
    </clipPath>
  </defs>
  <g id="Group_61" data-name="Group 61" transform="translate(0)">
    <g id="Group_60" data-name="Group 60" transform="translate(0)" clip-path="url(#clip-path)">
      <path id="Path_321" data-name="Path 321" d="M43.515,4.964c2.826,0,5.537-.1,8.233.06a4.355,4.355,0,0,1,2.424,1.263c3.664,3.466,7.228,7.038,10.9,10.5a3.749,3.749,0,0,0,2.195.883c2.012.12,4.037.035,6.055.042,3.036.01,4.805,1.762,4.848,4.84.029,2.059,0,4.118,0,6.154,2.27.313,2.686.958,2.187,3.182-.359,1.6-2.194,2.848-3.6,2.315-.4-.151-.7-.825-.856-1.319-2.222-7.125-10.25-9.695-15.9-4.862-1.465,1.254-2.134,3.422-3.23,5.131-.286.447-.795,1.06-1.212,1.068-3.977.081-7.956.048-12.046.048ZM61.028,17.709a10.777,10.777,0,0,0-1.079-1.6c-2.48-2.391-4.988-4.754-7.492-7.121-.751-.709-4.552-1.279-5.394-.73A1.432,1.432,0,0,0,46.6,9.309c-.04,2.384,0,4.769-.032,7.153-.012.853.256,1.263,1.176,1.258,4.238-.025,8.477-.011,13.279-.011" transform="translate(0 0)" fill="#5f19e1"/>
      <path id="Path_322" data-name="Path 322" d="M.013,22.876H41.068V34.154c-.363.036-.764.109-1.166.112-2.179.011-4.371-.142-6.534.045-2.365.2-3.73-.228-4.562-2.881-1.166-3.711-5.282-5.722-9.687-5.487a9.32,9.32,0,0,0-8.53,6.542A2.041,2.041,0,0,1,8.064,34.3c-1.745-.126-3.506.006-5.259-.042A2.6,2.6,0,0,1,.028,31.6c-.054-2.859-.015-5.719-.015-8.728" transform="translate(0 0)" fill="#5f19e1"/>
      <path id="Path_323" data-name="Path 323" d="M73.713,35.893a7.34,7.34,0,1,1-14.678-.159,7.34,7.34,0,0,1,14.678.159m-4.487,0a2.854,2.854,0,0,0-5.7-.138,2.853,2.853,0,1,0,5.7.138" transform="translate(0 0)" fill="#58595b"/>
      <path id="Path_324" data-name="Path 324" d="M12.638,35.85a7.327,7.327,0,0,1,14.653-.08,7.529,7.529,0,0,1-7.224,7.416,7.437,7.437,0,0,1-7.429-7.336m10.108,0A2.783,2.783,0,0,0,19.939,33a2.748,2.748,0,0,0-2.774,2.7,2.967,2.967,0,0,0,2.713,2.985,2.989,2.989,0,0,0,2.868-2.84" transform="translate(0 0)" fill="#58595b"/>
      <path id="Path_325" data-name="Path 325" d="M4.972,4a4.245,4.245,0,0,0,.395.754,2.269,2.269,0,0,1,.191,2.6,1.086,1.086,0,0,1-1.909.023,2.18,2.18,0,0,1,.1-2.534A1.31,1.31,0,0,0,3.415,2.69,2.333,2.333,0,0,1,2.9,2.323c-.12-.143-.25-.39-.2-.532a.617.617,0,0,1,.481-.3c2.049-.015,4.1-.028,6.147.018a1.363,1.363,0,0,1,1.3,1.453.905.905,0,0,0,.764.951c1.2.36,2.39.725,3.571,1.128a2.432,2.432,0,0,0,2.585-.54c.257-.231.51-.467.755-.711a3.2,3.2,0,0,1,2.432-1c.745.02,1.493.036,2.235,0a2.121,2.121,0,0,1,2.1,1.15c.608,1.011,1.063,1.107,2.114.488-.64-1.082-1.234-2.2-1.96-3.227-.164-.233-.784-.138-1.192-.208-.436-.075-1.16.159-1.157-.5,0-.733.726-.347,1.144-.427a2.188,2.188,0,0,1,2.625,1.584A16.189,16.189,0,0,0,27.662,3.4l.271-.072c-.125-.758-.217-1.523-.384-2.271-.2-.885-.035-1.075.853-.833A8.384,8.384,0,0,1,34.768,6.3c.342,1.223.08,1.561-1.178,1.548a6.912,6.912,0,0,0-7.041,5.315,12.333,12.333,0,0,0-.155,2.382,1.673,1.673,0,0,1-1.848,1.894q-3.553.02-7.107,0c-1.013,0-1.677-.452-1.808-1.337a13.46,13.46,0,0,0-5.58-8.884c-1.558-1.19-3.2-2.271-4.8-3.4L4.972,4M24.44,8.267H16.367a1.274,1.274,0,0,0,0,.307c.675,2.065,1.342,4.133,2.053,6.186a.841.841,0,0,0,.64.389c.9.045,1.805.017,2.708.02,1.267,0,1.266,0,1.521-1.275.078-.39.171-.776.25-1.166.3-1.474.594-2.948.9-4.461M33.907,6.7a7.442,7.442,0,0,0-2.267-3.83c-.9,1.754-.068,3.161,2.267,3.83m-5.591-.641.631.754c.169-.231.467-.459.473-.693s-.268-.5-.42-.751l-.684.69" transform="translate(0 0)" fill="#ed1651"/>
      <path id="Path_326" data-name="Path 326" d="M27.573,12.728c.63.482,1.224.884,1.746,1.365a1.172,1.172,0,0,1,.191.778,3.918,3.918,0,0,0,3.5,3.9,3.873,3.873,0,0,0,1.312-7.615c-.051-.013-.1-.047-.153-.039-1.6.272-2.177-.936-2.869-1.977,1.706-1.144,5.006-.377,6.76,1.572A6.275,6.275,0,0,1,30.183,20.3a6.179,6.179,0,0,1-2.61-7.576" transform="translate(0 0)" fill="#5f19e1"/>
      <path id="Path_327" data-name="Path 327" d="M10.028,9.073c-.457.6-.841,1.183-1.306,1.686a1.261,1.261,0,0,1-.821.29,3.9,3.9,0,0,0-3.773,3.634,3.954,3.954,0,0,0,3.142,4.05,3.922,3.922,0,0,0,4.451-2.656,1.036,1.036,0,0,0,.077-.388c-.177-1.578,1.108-2.03,2.057-2.767.942,1.709.5,5.207-2.218,7.126a6.28,6.28,0,0,1-8.829-8.64,6.075,6.075,0,0,1,7.22-2.335" transform="translate(0 0)" fill="#5f19e1"/>
      <path id="Path_328" data-name="Path 328" d="M11.073,9.127c.829,1.034,1.584,1.977,2.39,2.984-1.588,1.2-3.075,2.345-4.589,3.452A.992.992,0,0,1,7.5,15.415a1.013,1.013,0,0,1-.1-1.439c1.174-1.567,2.364-3.122,3.676-4.849" transform="translate(0 0)" fill="#ed1651"/>
      <path id="Path_329" data-name="Path 329" d="M27.772,11.8,30.288,9.31c.733.961,1.355,1.775,1.977,2.589.594.779,1.194,1.555,1.78,2.341.306.41.378.92-.061,1.2a1.358,1.358,0,0,1-1.189.115c-1.644-1.153-3.226-2.4-5.023-3.755" transform="translate(0 0)" fill="#ed1651"/>
      <path id="Path_330" data-name="Path 330" d="M33.406,11.95a2.955,2.955,0,0,1,3.013,2.969,3.017,3.017,0,0,1-2.976,3.02,2.961,2.961,0,0,1-3-3.018c.568.427,1.057.8,1.549,1.165a1.827,1.827,0,1,0,2.589-2.577c-.375-.5-.755-1-1.178-1.559" transform="translate(0 0)" fill="#5f19e1"/>
      <path id="Path_331" data-name="Path 331" d="M10.932,15.13a2.867,2.867,0,0,1-2.861,2.809A3.02,3.02,0,0,1,5,15.019a2.913,2.913,0,0,1,2.811-3.04c-.369.49-.708.921-1.025,1.367a1.976,1.976,0,0,0,2.784,2.79c.443-.319.879-.647,1.366-1.006" transform="translate(0 0)" fill="#5f19e1"/>
      <path id="Path_332" data-name="Path 332" d="M16.829,8.651h7.1c-.3,1.519-.584,3-.9,4.469-.349,1.633-.363,1.63-2.035,1.631-2.152,0-2.151,0-2.824-2.043-.431-1.31-.864-2.619-1.339-4.057m3.9,1.989c0,.065,0,.13.007.195h1.973l-.006-.195Zm-.322,1.128.012.164h2c-.006-.055-.011-.109-.017-.164Zm.624-2.25c0,.065.006.129.008.194h1.949c0-.065,0-.129-.008-.194Z" transform="translate(0 0)" fill="#fff"/>
    </g>
  </g>
</svg>
