<svg id="Group_67" data-name="Group 67" xmlns="http://www.w3.org/2000/svg" xmlns:xlink="http://www.w3.org/1999/xlink" width="90.848" height="46.966" viewBox="0 0 90.848 46.966">
  <defs>
    <clipPath id="clip-path">
      <rect id="Rectangle_92" data-name="Rectangle 92" width="90.848" height="46.966" fill="none"/>
    </clipPath>
  </defs>
  <g id="Group_66" data-name="Group 66" clip-path="url(#clip-path)">
    <path id="Path_349" data-name="Path 349" d="M60.307,13.071c2.331,0,4.567-.083,6.79.049a3.594,3.594,0,0,1,2,1.042c3.022,2.858,5.961,5.8,8.985,8.66a3.1,3.1,0,0,0,1.811.728c1.659.1,3.328.029,4.993.034a3.675,3.675,0,0,1,4,3.993c.023,1.7,0,3.4,0,5.075,1.872.258,2.215.79,1.8,2.624a2.5,2.5,0,0,1-2.969,1.91c-.33-.125-.579-.681-.706-1.088-1.833-5.877-8.454-8-13.113-4.01-1.208,1.034-1.76,2.822-2.663,4.232-.236.368-.656.873-1,.88-3.28.067-6.562.04-9.935.04ZM74.751,23.582a8.853,8.853,0,0,0-.89-1.321c-2.045-1.973-4.114-3.921-6.179-5.873-.619-.585-3.754-1.055-4.45-.6a1.188,1.188,0,0,0-.377.869c-.033,1.966,0,3.933-.026,5.9-.01.7.211,1.042.97,1.038,3.5-.02,6.992-.009,10.952-.009" transform="translate(0 0)" fill="#5f19e1"/>
    <path id="Path_350" data-name="Path 350" d="M24.428,27.843H58.289v9.3c-.3.031-.631.091-.962.093-1.8.009-3.6-.117-5.389.037-1.95.169-3.076-.188-3.763-2.376-.961-3.061-4.356-4.719-7.99-4.525a7.688,7.688,0,0,0-7.035,5.4,1.683,1.683,0,0,1-2.082,1.5c-1.439-.1-2.892.005-4.337-.035a2.148,2.148,0,0,1-2.291-2.19c-.044-2.358-.012-4.717-.012-7.2" transform="translate(0 0)" fill="#5f19e1"/>
    <path id="Path_351" data-name="Path 351" d="M85.213,38.579a6.053,6.053,0,1,1-12.1-.131,6.053,6.053,0,0,1,12.1.131m-3.7,0a2.353,2.353,0,0,0-4.705-.114,2.353,2.353,0,1,0,4.705.114" transform="translate(0 0)" fill="#58595b"/>
    <path id="Path_352" data-name="Path 352" d="M34.84,38.544a6.043,6.043,0,0,1,12.086-.066,6.21,6.21,0,0,1-5.959,6.116,6.134,6.134,0,0,1-6.127-6.05m8.337,0a2.3,2.3,0,0,0-2.315-2.346,2.268,2.268,0,0,0-2.288,2.226,2.3,2.3,0,1,0,4.6.12" transform="translate(0 0)" fill="#58595b"/>
    <path id="Path_353" data-name="Path 353" d="M21.419,45.546V30.765H0v16.2H21.419Z" transform="translate(0 0)" fill="#ed1651"/>
    <path id="Path_354" data-name="Path 354" d="M21.872,46.966H86.28v-1.42H21.872Z" transform="translate(0 0)" fill="#5f19e1"/>
    <path id="Path_355" data-name="Path 355" d="M4.156,28.944H10.35v-6.21c-.18-.012-.338-.033-.5-.033-1.721,0-3.444.013-5.165-.013-.464-.007-.577.148-.571.588.023,1.7.008,3.407.01,5.11,0,.178.018.355.029.558" transform="translate(0 0)" fill="#ed1651"/>
    <rect id="Rectangle_85" data-name="Rectangle 85" width="6.189" height="6.159" transform="translate(4.155 14.75)" fill="#ed1651"/>
    <rect id="Rectangle_86" data-name="Rectangle 86" width="6.145" height="6.209" transform="translate(12.202 22.734)" fill="#ed1651"/>
    <rect id="Rectangle_87" data-name="Rectangle 87" width="6.147" height="6.185" transform="translate(12.198 6.734)" fill="#ed1651"/>
    <rect id="Rectangle_88" data-name="Rectangle 88" width="6.152" height="6.158" transform="translate(12.188 14.744)" fill="#ed1651"/>
    <rect id="Rectangle_89" data-name="Rectangle 89" width="11.219" height="11.163" transform="translate(31.29 14.531)" fill="#ed1651"/>
    <rect id="Rectangle_90" data-name="Rectangle 90" width="11.141" height="11.21" transform="translate(45.869)" fill="#ed1651"/>
    <rect id="Rectangle_91" data-name="Rectangle 91" width="11.15" height="11.161" transform="translate(45.849 14.52)" fill="#ed1651"/>
  </g>
</svg>
