<svg xmlns="http://www.w3.org/2000/svg" xmlns:xlink="http://www.w3.org/1999/xlink" width="70.469" height="36.892" viewBox="0 0 70.469 36.892">
  <defs>
    <clipPath id="clip-path">
      <rect id="Rectangle_101" data-name="Rectangle 101" width="70.469" height="36.892" transform="translate(0 0)" fill="none"/>
    </clipPath>
  </defs>
  <g id="Group_77" data-name="Group 77" transform="translate(0 0)">
    <g id="Group_76" data-name="Group 76" clip-path="url(#clip-path)">
      <path id="Path_381" data-name="Path 381" d="M38.072,3.451c2.473,0,4.844-.088,7.2.052a3.81,3.81,0,0,1,2.121,1.1c3.206,3.032,6.323,6.157,9.532,9.186a3.28,3.28,0,0,0,1.921.773c1.759.1,3.53.031,5.3.037,2.657.008,4.2,1.541,4.242,4.235.025,1.8,0,3.6,0,5.384,1.986.273,2.35.837,1.913,2.783-.314,1.4-1.919,2.492-3.15,2.026-.35-.133-.614-.722-.749-1.155C64.462,21.644,57.439,19.4,52.5,23.624c-1.282,1.1-1.867,2.994-2.825,4.489-.251.391-.7.927-1.061.934-3.479.071-6.961.043-10.539.043ZM53.394,14.6a9.415,9.415,0,0,0-.944-1.4c-2.17-2.093-4.364-4.16-6.555-6.23-.657-.621-3.982-1.119-4.72-.64a1.26,1.26,0,0,0-.4.922c-.035,2.085,0,4.172-.028,6.258-.01.747.224,1.1,1.029,1.1,3.708-.021,7.417-.009,11.618-.009" fill="#5f19e1"/>
      <path id="Path_382" data-name="Path 382" d="M.012,19.121H35.931v9.867c-.318.032-.669.1-1.02.1-1.907.01-3.824-.124-5.717.039-2.069.179-3.263-.2-3.991-2.52-1.02-3.247-4.621-5.006-8.476-4.8a8.153,8.153,0,0,0-7.462,5.723,1.787,1.787,0,0,1-2.209,1.589c-1.526-.11-3.068,0-4.6-.037a2.28,2.28,0,0,1-2.43-2.323c-.047-2.5-.013-5-.013-7.636" fill="#5f19e1"/>
      <path id="Path_383" data-name="Path 383" d="M64.491,30.51a6.421,6.421,0,1,1-12.841-.139,6.421,6.421,0,0,1,12.841.139m-3.926,0a2.5,2.5,0,0,0-4.991-.121,2.5,2.5,0,1,0,4.991.121" fill="#58595b"/>
      <path id="Path_384" data-name="Path 384" d="M11.057,30.472a6.41,6.41,0,0,1,12.82-.07,6.588,6.588,0,0,1-6.321,6.488,6.505,6.505,0,0,1-6.5-6.418m8.843,0a2.433,2.433,0,0,0-2.456-2.488,2.4,2.4,0,0,0-2.427,2.361,2.6,2.6,0,0,0,2.374,2.612A2.616,2.616,0,0,0,19.9,30.469" fill="#58595b"/>
      <path id="Path_385" data-name="Path 385" d="M33.6,17.937c-.4.023-.73.057-1.05.057-4.24,0-10.48-.011-14.71.012a1.919,1.919,0,0,1-.59-.08H4.076c-.02-.4-.05-.734-.05-1.078V2.166c0-1.811,2.31-2.154,3.9-2.154C8.956,0,9.976,0,11.046,0h17.11V.012c1.54,0,3.24,0,4.15.011a1.223,1.223,0,0,1,1.28,1.318c.02,5.513.01,11.014.01,16.6" fill="#ed1651"/>
      <path id="Path_386" data-name="Path 386" d="M21.945,2.028a.336.336,0,0,1,.147.3,2.369,2.369,0,0,0,.283,1.042,1.505,1.505,0,0,0,1.325.817,1.1,1.1,0,0,1,.152.01.206.206,0,0,1,.178.225.2.2,0,0,1-.193.2,4.438,4.438,0,0,0-.477.059,1.517,1.517,0,0,0-1.13,1.1,7.061,7.061,0,0,0-.143.743.39.39,0,0,1-.079.2.284.284,0,0,1-.206.045c-.1-.015-.134-.1-.15-.2a5.966,5.966,0,0,0-.136-.757A1.549,1.549,0,0,0,20,4.628c-.207-.013-.294-.079-.293-.22s.095-.214.294-.221a1.542,1.542,0,0,0,1.507-1.153,4.561,4.561,0,0,0,.136-.719.355.355,0,0,1,.148-.287Zm-.076,3.439a2.157,2.157,0,0,1,.938-1.06,2.157,2.157,0,0,1-.94-1.056,2.135,2.135,0,0,1-.937,1.058,2.153,2.153,0,0,1,.939,1.058" fill="#fff"/>
      <path id="Path_387" data-name="Path 387" d="M17.535,6.354a.209.209,0,0,1-.2.215,2.1,2.1,0,0,0-.288.038,1.047,1.047,0,0,0-.748.858,2.475,2.475,0,0,0-.055.375c-.014.152-.091.246-.216.247s-.195-.1-.222-.243a3.421,3.421,0,0,0-.165-.683.926.926,0,0,0-.868-.592.3.3,0,0,1-.2-.077.25.25,0,0,1-.034-.217.337.337,0,0,1,.193-.133,4.112,4.112,0,0,0,.451-.105,1.064,1.064,0,0,0,.573-.8,2.6,2.6,0,0,0,.053-.375c.014-.142.094-.233.216-.234a.218.218,0,0,1,.217.231,1.872,1.872,0,0,0,.175.72.942.942,0,0,0,.864.561c.166.006.256.084.257.217m-1.512.517.46-.527c-.077-.074-.169-.15-.246-.238s-.144-.2-.2-.278l-.457.527.446.516" fill="#fff"/>
      <path id="Path_388" data-name="Path 388" d="M17.3,4.423c-.05-.04-.132-.074-.156-.133a.26.26,0,0,1,.015-.219,3.088,3.088,0,0,1,.372-.378.188.188,0,0,1,.265.013.182.182,0,0,1,.041.261,5.27,5.27,0,0,1-.407.412c-.025.023-.07.024-.13.044" fill="#fff"/>
      <path id="Path_389" data-name="Path 389" d="M18.652,2.663c.049.039.135.074.154.131a.28.28,0,0,1-.023.231,2.712,2.712,0,0,1-.353.358.212.212,0,0,1-.312-.279c.123-.138.258-.265.393-.392.027-.026.077-.028.141-.049" fill="#fff"/>
      <path id="Path_390" data-name="Path 390" d="M18.849,4.214c-.042.053-.076.135-.134.158a.259.259,0,0,1-.22-.015,2.941,2.941,0,0,1-.37-.362.208.208,0,0,1,.022-.287.2.2,0,0,1,.277-.011c.128.116.249.241.366.367a.516.516,0,0,1,.059.15" fill="#fff"/>
      <path id="Path_391" data-name="Path 391" d="M17.86,3.192c0,.179-.183.306-.308.21a2.715,2.715,0,0,1-.419-.418.177.177,0,0,1,.044-.241.178.178,0,0,1,.241-.034,5.287,5.287,0,0,1,.413.407c.021.021.023.061.029.076" fill="#fff"/>
      <path id="Path_392" data-name="Path 392" d="M23.385,7c0-.076,0-.152,0-.228a.2.2,0,0,1,.191-.2.192.192,0,0,1,.223.161,2.962,2.962,0,0,1,0,.541.184.184,0,0,1-.225.156.193.193,0,0,1-.187-.189c-.007-.079,0-.16,0-.24h0" fill="#fff"/>
      <path id="Path_393" data-name="Path 393" d="M22.946,7.865a2.4,2.4,0,0,1-.24,0,.193.193,0,0,1-.185-.19.189.189,0,0,1,.16-.222,3.337,3.337,0,0,1,.529,0,.2.2,0,0,1,.17.217.208.208,0,0,1-.194.2c-.079.007-.16,0-.24,0h0" fill="#fff"/>
      <path id="Path_394" data-name="Path 394" d="M24.246,7.865a2.4,2.4,0,0,1-.24,0,.193.193,0,0,1-.187-.189.19.19,0,0,1,.159-.223,3.257,3.257,0,0,1,.541,0,.188.188,0,0,1,.16.212.2.2,0,0,1-.193.2c-.079.007-.16,0-.24,0" fill="#fff"/>
      <path id="Path_395" data-name="Path 395" d="M23.385,8.306c0-.076,0-.152,0-.228a.21.21,0,0,1,.2-.206.2.2,0,0,1,.222.183,3.533,3.533,0,0,1,0,.5.2.2,0,0,1-.227.173.205.205,0,0,1-.193-.2c0-.076,0-.152,0-.228" fill="#fff"/>
      <path id="Path_396" data-name="Path 396" d="M20.185,9.378h1.666a1.316,1.316,0,0,1,.874.261,1.282,1.282,0,0,1,.252,1.744.452.452,0,0,0-.069.4,1.311,1.311,0,0,1-.149,1.016.5.5,0,0,0-.05.272,1.5,1.5,0,0,1-.305,1.131.429.429,0,0,0-.072.244,1.368,1.368,0,0,1-1.381,1.47,8.054,8.054,0,0,1-3.607-.559,7.785,7.785,0,0,0-.918-.253c-.282-.068-.4-.186-.4-.473q0-1.98,0-3.961c0-.308.084-.39.376-.488a.826.826,0,0,0,.342-.224c.4-.456.761-.947,1.181-1.382a2.573,2.573,0,0,0,.7-1.5,1.867,1.867,0,0,1,.165-.51c.214-.467.4-.553.9-.446a1.24,1.24,0,0,1,1.041,1.319A2.7,2.7,0,0,1,20.4,8.929c-.074.132-.129.274-.211.449" fill="#fff"/>
      <path id="Path_397" data-name="Path 397" d="M12.947,12.633c0-.649,0-1.3,0-1.945,0-.358.133-.495.484-.5q.849,0,1.7,0a.424.424,0,0,1,.482.485q0,1.982,0,3.962a.427.427,0,0,1-.469.478q-.861.008-1.723,0c-.324,0-.471-.159-.472-.491,0-.664,0-1.329,0-1.993m1.229,1.674a.416.416,0,0,0,.408-.429.422.422,0,0,0-.4-.41.42.42,0,1,0,0,.839" fill="#fff"/>
    </g>
  </g>
</svg>
