<svg xmlns="http://www.w3.org/2000/svg" xmlns:xlink="http://www.w3.org/1999/xlink" width="34.75" height="57.39" viewBox="0 0 34.75 57.39">
  <defs>
    <clipPath id="clip-path">
      <rect id="Rectangle_99" data-name="Rectangle 99" width="34.75" height="57.39" fill="none"/>
    </clipPath>
  </defs>
  <g id="Group_73" data-name="Group 73" transform="translate(0 0)">
    <g id="Group_72" data-name="Group 72" transform="translate(0 0)" clip-path="url(#clip-path)">
      <path id="Path_373" data-name="Path 373" d="M24.952,32.925c-2.656-1.563-4.856-.418-6.868,1.86-.233.263-1.647-.012-2-.452a4.573,4.573,0,0,0-5.924-1.553,1.434,1.434,0,0,1-2.166-1.162,4.742,4.742,0,0,0-4.5-4.557A1.435,1.435,0,0,1,2.324,24.9a4.658,4.658,0,0,0-1.61-6.051,1.5,1.5,0,0,1,.048-2.587A4.582,4.582,0,0,0,2.34,10.344,1.549,1.549,0,0,1,3.714,8.028a4.483,4.483,0,0,0,4.2-4.254c.19-1.42,1.187-1.852,2.476-1.332a4.28,4.28,0,0,0,5.5-1.461c1.06-1.325,1.9-1.308,3,.049A4.29,4.29,0,0,0,24.26,2.486c1.627-.588,2.314-.2,2.608,1.51a4.429,4.429,0,0,0,3.911,3.991c1.788.348,2.138.984,1.512,2.734a4.331,4.331,0,0,0,1.394,5.263c1.446,1.242,1.42,1.962-.061,3.253a4.252,4.252,0,0,0-1.354,5.127c.664,1.887.3,2.459-1.735,2.873a4.094,4.094,0,0,0-3.6,3.7c-.149.951-.392,1.933-1.986,1.986m5.54-15.272A13.225,13.225,0,0,0,17.445,4.294a13.286,13.286,0,0,0-.149,26.57,13.222,13.222,0,0,0,13.2-13.21" transform="translate(0 0)" fill="#5f19e1"/>
      <path id="Path_374" data-name="Path 374" d="M29.62,47.334c-1.915-.815-3.524-1.448-5.083-2.184a1.3,1.3,0,0,0-1.967.5c-.962,1.451-2.067,2.806-3.328,4.492-1.95-7.323-3.819-14.347-5.644-21.2a17.476,17.476,0,0,0,2.056-1.8,3.305,3.305,0,0,1,4.12-1.066c1.491.569,2.832.533,3.8-1.439l6.045,22.7" transform="translate(3.999 7.246)" fill="#5f19e1"/>
      <path id="Path_375" data-name="Path 375" d="M.96,46.978c1.945-7.351,3.878-14.66,5.906-22.326,1.016,2.05,2.436,1.941,3.986,1.364a3.176,3.176,0,0,1,3.854,1.021,20.9,20.9,0,0,0,2.151,1.895c-1.82,6.873-3.677,13.892-5.61,21.2C10.3,48.878,9.5,47.837,8.722,46.785c-1.59-2.139-1.585-2.135-3.978-1.1-1.073.465-2.156.9-3.239,1.339-.083.034-.2-.014-.545-.047" transform="translate(0.282 7.25)" fill="#5f19e1"/>
      <path id="Path_376" data-name="Path 376" d="M27.6,16.438A11.556,11.556,0,1,1,4.5,15.99,11.636,11.636,0,0,1,16.2,4.525,11.637,11.637,0,0,1,27.6,16.438m-4.289-5.759L19.71,15.695c-1.251-1.737-2.415-3.35-3.661-5.082l-3.664,5.05c-1.21-1.655-2.309-3.158-3.573-4.885v9.06h14.5Z" transform="translate(1.323 1.33)" fill="#ed1651"/>
    </g>
  </g>
</svg>
