<svg xmlns="http://www.w3.org/2000/svg" xmlns:xlink="http://www.w3.org/1999/xlink" width="38.101" height="58.623" viewBox="0 0 38.101 58.623">
  <defs>
    <clipPath id="clip-path">
      <rect id="Rectangle_100" data-name="Rectangle 100" width="38.101" height="58.623" fill="none"/>
    </clipPath>
  </defs>
  <g id="Group_75" data-name="Group 75" transform="translate(0 0)">
    <g id="Group_74" data-name="Group 74" transform="translate(0 0)" clip-path="url(#clip-path)">
      <path id="Path_377" data-name="Path 377" d="M18.5,51.921c-.8-1.132-1.564-2.2-2.3-3.277A118.21,118.21,0,0,1,6.166,31.24a53.1,53.1,0,0,1-3.832-10.9,16.267,16.267,0,0,1,3.4-14.248A15.749,15.749,0,0,1,16.147.175a15.966,15.966,0,0,1,13.87,4.519,16.447,16.447,0,0,1,5.06,13.258,26.2,26.2,0,0,1-1.6,6.7A76.511,76.511,0,0,1,27.73,37.481a128.943,128.943,0,0,1-9,14.15c-.05.069-.106.134-.23.29M31.371,16.754A13.016,13.016,0,0,0,18.783,3.776a12.977,12.977,0,1,0-.194,25.954A12.943,12.943,0,0,0,31.371,16.754" transform="translate(0.533 0)" fill="#5f19e1"/>
      <path id="Path_378" data-name="Path 378" d="M19.035,43.01c1.048-1.462,2.016-2.81,2.983-4.159.081-.113.16-.226.239-.34.348-.492.6-1.177,1.073-1.424a4.306,4.306,0,0,1,1.793-.068q2.239,0,4.479,0a2.9,2.9,0,0,1,2.631,1.348c1.757,2.637,3.592,5.224,5.395,7.831.031.042.06.084.09.128a1.266,1.266,0,0,1,.258,1.4,1.356,1.356,0,0,1-1.314.582H24.684q-11.459,0-22.916-.005a3.591,3.591,0,0,1-1.074-.127A.89.89,0,0,1,.09,46.9a5.5,5.5,0,0,1,.6-1.024c1.8-2.61,3.616-5.209,5.409-7.825a2.4,2.4,0,0,1,2.059-1.016c2.135-.045,4.271-.026,6.407-.005a.791.791,0,0,1,.5.339c1.3,1.835,2.591,3.684,3.961,5.639" transform="translate(0 10.312)" fill="#5f19e1"/>
      <path id="Path_379" data-name="Path 379" d="M16.344,19.555a6.628,6.628,0,1,1,6.55-6.664,6.595,6.595,0,0,1-6.55,6.664" transform="translate(2.723 1.758)" fill="#ed1651"/>
      <path id="Path_380" data-name="Path 380" d="M22.47,15.483a11.119,11.119,0,0,1,3.994,3.552c.072.1-.009.389-.107.524A11.374,11.374,0,0,1,20.2,23.913,11.607,11.607,0,0,1,7.6,19.6a.53.53,0,0,1,0-.758,12.091,12.091,0,0,1,3.572-3.205.406.406,0,0,1,.583.056,7.378,7.378,0,0,0,10.537-.074,1.573,1.573,0,0,1,.179-.138" transform="translate(2.076 4.321)" fill="#ed1651"/>
    </g>
  </g>
</svg>
