<svg xmlns="http://www.w3.org/2000/svg" xmlns:xlink="http://www.w3.org/1999/xlink" width="70.469" height="39.942" viewBox="0 0 70.469 39.942">
  <defs>
    <clipPath id="clip-path">
      <rect id="Rectangle_98" data-name="Rectangle 98" width="70.469" height="39.942" transform="translate(0 0)" fill="none"/>
    </clipPath>
  </defs>
  <g id="Group_71" data-name="Group 71" transform="translate(0 0)">
    <g id="Group_70" data-name="Group 70" clip-path="url(#clip-path)">
      <path id="Path_365" data-name="Path 365" d="M38.072,6.5c2.473,0,4.844-.088,7.2.052A3.81,3.81,0,0,1,47.4,7.658c3.206,3.032,6.323,6.157,9.532,9.186a3.28,3.28,0,0,0,1.921.773c1.759.1,3.53.031,5.3.037,2.657.008,4.2,1.541,4.242,4.235.025,1.8,0,3.6,0,5.384,1.986.273,2.35.837,1.913,2.783-.314,1.4-1.919,2.492-3.15,2.026-.35-.133-.614-.722-.749-1.155-1.944-6.233-8.967-8.482-13.909-4.253-1.282,1.1-1.867,2.994-2.825,4.489-.251.391-.7.927-1.061.934-3.479.071-6.961.043-10.539.043Zm15.322,11.15a9.415,9.415,0,0,0-.944-1.4c-2.17-2.093-4.364-4.16-6.555-6.23-.657-.621-3.982-1.119-4.72-.64a1.26,1.26,0,0,0-.4.922c-.035,2.085,0,4.172-.028,6.258-.01.747.224,1.105,1.029,1.1,3.708-.021,7.417-.009,11.618-.009" fill="#5f19e1"/>
      <path id="Path_366" data-name="Path 366" d="M.012,22.171H35.931v9.867c-.318.032-.669.1-1.02.1-1.907.01-3.824-.124-5.717.039-2.069.179-3.263-.2-3.991-2.52-1.02-3.247-4.621-5.006-8.476-4.8a8.153,8.153,0,0,0-7.462,5.723,1.787,1.787,0,0,1-2.209,1.589c-1.526-.11-3.068.005-4.6-.037a2.28,2.28,0,0,1-2.43-2.323c-.047-2.5-.013-5-.013-7.636" fill="#5f19e1"/>
      <path id="Path_367" data-name="Path 367" d="M64.491,33.56a6.421,6.421,0,1,1-12.841-.139,6.421,6.421,0,0,1,12.841.139m-3.926,0a2.5,2.5,0,0,0-4.991-.121,2.5,2.5,0,1,0,4.991.121" fill="#58595b"/>
      <path id="Path_368" data-name="Path 368" d="M11.057,33.523a6.41,6.41,0,0,1,12.82-.07,6.588,6.588,0,0,1-6.321,6.488,6.505,6.505,0,0,1-6.5-6.418m8.843,0a2.433,2.433,0,0,0-2.456-2.488,2.4,2.4,0,0,0-2.427,2.361,2.6,2.6,0,0,0,2.374,2.612A2.616,2.616,0,0,0,19.9,33.52" fill="#58595b"/>
      <path id="Path_369" data-name="Path 369" d="M7.372,20.986c-.671.1-3.369.023-4.111,0Z" fill="#ed1651"/>
      <path id="Path_370" data-name="Path 370" d="M22.974,3.171l-1.13,1.248a5.217,5.217,0,1,0-3.5,8.761,4.991,4.991,0,0,0,4.792-5.009,3.113,3.113,0,0,1,1.237-2.447c1.4,2,.253,6.011-2.237,7.908A6.959,6.959,0,0,1,12.7,12.51a7.084,7.084,0,0,1,.81-9.876,6.855,6.855,0,0,1,9.46.537" fill="#5f19e1"/>
      <path id="Path_371" data-name="Path 371" d="M18.654,8.488c2.312-2.469,4.555-4.865,6.8-7.26A5.052,5.052,0,0,1,26.513.167c.328-.18,1-.243,1.184-.045a1.343,1.343,0,0,1,.085,1.217,5.391,5.391,0,0,1-1.055,1.2q-3.51,3.744-7.026,7.484c-.954,1.011-1.209,1-2.167-.056C16.653,9,15.78,8.027,14.9,7.055c-.448-.5-.72-1.033-.079-1.554.59-.478,1.041-.13,1.455.341.751.856,1.521,1.7,2.375,2.646" fill="#5f19e1"/>
      <path id="Path_372" data-name="Path 372" d="M32.779,20.993c-.4.02-.728.051-1.052.051-4.237,0-10.475-.01-14.71.014a2.017,2.017,0,0,1-.588-.071H3.261c-.018-.347-.049-.641-.049-.937q-.006-6.406,0-12.815c0-1.577,2.31-1.877,3.9-1.883,1.269-.006,2.538,0,3.886,0-.981,3.722-.126,6.8,3.047,8.918a6.777,6.777,0,0,0,7.883.033c3.2-2.09,4.073-5.16,3.1-8.943,1.582,0,5.023-.016,6.465.006A1.148,1.148,0,0,1,32.765,6.52c.028,4.8.014,9.6.014,14.473" fill="#ed1651"/>
    </g>
  </g>
</svg>
