<svg id="Group_507" data-name="Group 507" xmlns="http://www.w3.org/2000/svg" xmlns:xlink="http://www.w3.org/1999/xlink" width="92.097" height="81.318" viewBox="0 0 92.097 81.318">
  <defs>
    <clipPath id="clip-path">
      <rect id="Rectangle_114" data-name="Rectangle 114" width="92.097" height="81.318" fill="none"/>
    </clipPath>
  </defs>
  <g id="Group_90" data-name="Group 90" transform="translate(0 0)" clip-path="url(#clip-path)">
    <path id="Path_405" data-name="Path 405" d="M85.479,31.158A15.306,15.306,0,0,1,77.55,44.132a14.625,14.625,0,0,1-3.634,1.529.766.766,0,0,0-.6.674,17.724,17.724,0,0,1-9.2,12.285,18.223,18.223,0,0,1-18.223-.539c-.287-.169-.467-.2-.734.051a16.546,16.546,0,0,1-8.5,4.4,16.343,16.343,0,0,1-10.075-1.325,15.828,15.828,0,0,1-7.45-7.268.669.669,0,0,0-.577-.406A20.445,20.445,0,0,1,6.2,47.7,20.248,20.248,0,0,1,.15,35.345c-.8-7.2,1.627-13.205,6.9-18.108A20.093,20.093,0,0,1,17.33,12.331a.763.763,0,0,0,.647-.569A17.115,17.115,0,0,1,31.789.284c5.4-.968,10.194.581,14.434,3.965a14.167,14.167,0,0,1,2.5,2.633.46.46,0,0,0,.7.165,14.615,14.615,0,0,1,7.689-1.825,14.458,14.458,0,0,1,11.307,5.833,13.856,13.856,0,0,1,1.93,3.488.656.656,0,0,0,.619.472,16.1,16.1,0,0,1,12.69,8.508,15.3,15.3,0,0,1,1.817,7.634M55.506,57.1a11.613,11.613,0,0,0,4.894-.775c5.335-2.16,8.707-5.946,9.554-11.765.206-1.415.581-1.861,1.969-2.122a12.07,12.07,0,0,0,7.046-4.106,11.33,11.33,0,0,0,2.68-9.756C80.943,24.531,78.4,21.8,74.9,19.868A12.755,12.755,0,0,0,69.19,18.49,1.744,1.744,0,0,1,67.378,17,11.168,11.168,0,0,0,52.542,9.57a13.229,13.229,0,0,0-2.994,1.713,1.68,1.68,0,0,1-1.616.258A2.561,2.561,0,0,1,46.681,10.3a13.573,13.573,0,0,0-2.434-2.925A13.921,13.921,0,0,0,32.174,3.865a13.528,13.528,0,0,0-8.442,4.906,13.533,13.533,0,0,0-2.742,5.453A1.866,1.866,0,0,1,19.28,15.7c-.7.093-1.4.172-2.084.327A17.248,17.248,0,0,0,3.74,35.015a16.161,16.161,0,0,0,4.6,9.637,16.58,16.58,0,0,0,11.707,5.34,1.913,1.913,0,0,1,1.877,1.348,11.533,11.533,0,0,0,2.13,3.464,12.751,12.751,0,0,0,15.936,2.737,13.685,13.685,0,0,0,3.639-3.109,2.264,2.264,0,0,1,1.046-.745,2.01,2.01,0,0,1,1.9.539A13.948,13.948,0,0,0,55.506,57.1" transform="translate(0 0)" fill="#5f19e1"/>
    <path id="Path_406" data-name="Path 406" d="M107.669,84.507a7.088,7.088,0,1,1-7.08-7.051,7.047,7.047,0,0,1,7.08,7.051m-10.553-.014a3.449,3.449,0,1,0,3.477-3.386,3.34,3.34,0,0,0-3.477,3.386" transform="translate(-24.9 -20.629)" fill="#5f19e1"/>
    <path id="Path_407" data-name="Path 407" d="M110.647,101.441a5.379,5.379,0,0,1,5.472-5.34,5.439,5.439,0,0,1,5.445,5.395,5.37,5.37,0,0,1-5.417,5.414,5.441,5.441,0,0,1-5.5-5.47m7.224.058a1.661,1.661,0,0,0-1.778-1.762,1.77,1.77,0,1,0,.05,3.537,1.671,1.671,0,0,0,1.728-1.775" transform="translate(-29.468 -25.595)" fill="#ed1651"/>
    <path id="Path_408" data-name="Path 408" d="M56.694,43.678c-1.814,0-3.627.015-5.441-.01a.771.771,0,0,0-.877.6,12.92,12.92,0,0,1-18.53,7.08,12.233,12.233,0,0,1-6.585-10.167,12.486,12.486,0,0,1,6.362-12.27,12.02,12.02,0,0,1,6.1-1.806A12.99,12.99,0,0,1,50.4,35.923a.676.676,0,0,0,.778.53q11.961-.02,23.923-.012a3.6,3.6,0,0,1,3.589,4.385,3.688,3.688,0,0,1-3.45,2.85,6.746,6.746,0,0,1-.944,0c-.428-.043-.583.1-.576.546.023,1.3.017,2.607,0,3.91a1.844,1.844,0,0,1-1.946,1.949A1.825,1.825,0,0,1,70.1,48.143c-.022-1.288-.006-2.577-.01-3.866,0-.593-.013-.6-.607-.6-.795,0-1.59.017-2.383-.012-.423-.015-.6.107-.577.551.03.674.025,1.349.005,2.023a1.832,1.832,0,0,1-2.259,1.849A1.877,1.877,0,0,1,62.9,46.238c-.023-.674-.026-1.349,0-2.023.014-.407-.124-.552-.541-.548-1.888.018-3.778.007-5.666.007ZM38.127,45.793a5.669,5.669,0,0,0,5.764-5.7,5.742,5.742,0,0,0-5.67-5.775,5.848,5.848,0,0,0-5.836,5.731,5.762,5.762,0,0,0,5.742,5.748" transform="translate(-6.715 -7.217)" fill="#ed1651"/>
  </g>
</svg>
