<svg id="Group_549" data-name="Group 549" xmlns="http://www.w3.org/2000/svg" xmlns:xlink="http://www.w3.org/1999/xlink" width="83.339" height="81.388" viewBox="0 0 83.339 81.388">
  <defs>
    <clipPath id="clip-path">
      <rect id="Rectangle_124" data-name="Rectangle 124" width="83.339" height="81.388" fill="none"/>
    </clipPath>
  </defs>
  <g id="Group_120" data-name="Group 120" transform="translate(0 0)" clip-path="url(#clip-path)">
    <path id="Path_430" data-name="Path 430" d="M75.4,27.354a1.711,1.711,0,0,0-1.553-.992h-5.98l-.022-.109A34.416,34.416,0,0,0,0,34.414a1.706,1.706,0,1,0,3.413,0A31,31,0,0,1,64.306,26.18l.051.182H59.937a1.7,1.7,0,0,0-1.3,2.815L65.6,37.3a1.7,1.7,0,0,0,2.589,0l6.957-8.124a1.715,1.715,0,0,0,.255-1.823m-8.51,6.213-3.245-3.792h6.5Z" transform="translate(0 0)" fill="#ed1651"/>
    <path id="Path_431" data-name="Path 431" d="M19.724,84.882a10.112,10.112,0,0,1-10.1-10.1V48.523a10.112,10.112,0,0,1,10.1-10.1h.454V29.748a16.84,16.84,0,1,1,33.681,0v8.674h.454a10.067,10.067,0,0,1,9.048,5.617,1.717,1.717,0,0,1-.366,2.014l-.272.253H79.484a6.465,6.465,0,0,1,6.46,6.456V64.577a6.466,6.466,0,0,1-6.46,6.457H63.593l.273.253a1.712,1.712,0,0,1,.547,1.251v2.243a10.112,10.112,0,0,1-10.1,10.1Zm0-43.046a6.694,6.694,0,0,0-6.687,6.687V74.781a6.694,6.694,0,0,0,6.687,6.686H54.313A6.694,6.694,0,0,0,61,74.781V72.538a1.712,1.712,0,0,1,.547-1.251l.273-.253H43.535l-8.621,8.354a1.706,1.706,0,0,1-2.894-1.226V71.034H27.908a6.464,6.464,0,0,1-6.456-6.457V52.762a6.463,6.463,0,0,1,6.456-6.456H60.94l-.271-.253a1.7,1.7,0,0,1-.365-.489,6.672,6.672,0,0,0-5.993-3.728Zm8.184,7.884a3.046,3.046,0,0,0-3.042,3.042V64.577a3.045,3.045,0,0,0,3.042,3.042h5.819a1.709,1.709,0,0,1,1.707,1.707v4.8L41.656,68.1a1.7,1.7,0,0,1,1.188-.481H79.484a3.048,3.048,0,0,0,3.047-3.042V52.762a3.049,3.049,0,0,0-3.047-3.042Zm9.113-27.971a8.006,8.006,0,0,1,7.994,8v8.674h5.43V29.748a13.426,13.426,0,1,0-26.853,0v8.674h5.43V29.748a8.008,8.008,0,0,1,8-8m0,3.414a4.646,4.646,0,0,0-4.585,4.585v8.674H41.6V29.748a4.644,4.644,0,0,0-4.58-4.585" transform="translate(-2.606 -3.494)" fill="#5f19e1"/>
    <path id="Path_432" data-name="Path 432" d="M52.34,71.675l-2.691,1.554,2.691,1.554a1.124,1.124,0,1,1-1.124,1.946l-2.691-1.554v3.106a1.123,1.123,0,1,1-2.247,0V75.175l-2.691,1.554a1.124,1.124,0,0,1-1.125-1.946l2.692-1.554-2.692-1.554a1.124,1.124,0,0,1,1.125-1.946l2.691,1.554V68.177a1.123,1.123,0,1,1,2.247,0v3.106l2.691-1.554a1.124,1.124,0,0,1,1.124,1.946" transform="translate(-11.345 -18.154)" fill="#ed1651"/>
    <path id="Path_433" data-name="Path 433" d="M72.957,71.675l-2.691,1.554,2.691,1.554a1.124,1.124,0,1,1-1.124,1.946l-2.691-1.554v3.105a1.124,1.124,0,1,1-2.248,0V75.175L64.2,76.729a1.124,1.124,0,1,1-1.124-1.946l2.692-1.554L63.08,71.675A1.124,1.124,0,1,1,64.2,69.729L66.9,71.283V68.177a1.124,1.124,0,1,1,2.248,0v3.106l2.691-1.554a1.124,1.124,0,1,1,1.124,1.946Z" transform="translate(-16.927 -18.154)" fill="#ed1651"/>
    <path id="Path_434" data-name="Path 434" d="M93.571,71.813l-2.69,1.554,2.69,1.555a1.124,1.124,0,1,1-1.125,1.946l-2.686-1.552v3.1a1.124,1.124,0,1,1-2.248,0V75.313l-2.69,1.555A1.124,1.124,0,0,1,83.7,74.922l2.69-1.555L83.7,71.813a1.124,1.124,0,0,1,1.125-1.946l2.69,1.554V68.315a1.124,1.124,0,1,1,2.248,0v3.1l2.686-1.553a1.124,1.124,0,0,1,1.125,1.946Z" transform="translate(-22.509 -18.192)" fill="#ed1651"/>
  </g>
</svg>
